<?xml version="1.0" encoding="utf-8"?>
<!-- Generator: Adobe Illustrator 23.0.2, SVG Export Plug-In . SVG Version: 6.00 Build 0)  -->
<svg version="1.1" id="Layer_1" xmlns="http://www.w3.org/2000/svg" xmlns:xlink="http://www.w3.org/1999/xlink" x="0px" y="0px"
	 viewBox="0 0 528.2 125.3" style="enable-background:new 0 0 528.2 125.3;" xml:space="preserve">
<style type="text/css">
	.st0{fill:url(#SVGID_1_);}
	.st1{fill:url(#SVGID_2_);}
	.st2{fill:url(#SVGID_3_);}
	.st3{fill:url(#SVGID_4_);}
	.st4{fill:url(#SVGID_5_);}
	.st5{fill:url(#SVGID_6_);}
	.st6{fill:url(#SVGID_7_);}
	.st7{fill:url(#SVGID_8_);}
	.st8{fill:url(#SVGID_9_);}
	.st9{fill:url(#SVGID_10_);}
	.st10{fill:none;}
	.st11{fill:url(#SVGID_11_);}
	.st12{fill:url(#SVGID_12_);}
	.st13{fill:url(#SVGID_13_);}
	.st14{fill:url(#SVGID_14_);}
	.st15{fill:url(#SVGID_15_);}
	.st16{fill:url(#SVGID_16_);}
	.st17{fill:url(#SVGID_17_);}
	.st18{fill:url(#SVGID_18_);}
	.st19{fill:url(#SVGID_19_);}
	.st20{fill:url(#SVGID_20_);}
	.st21{fill:url(#SVGID_21_);}
	.st22{fill:url(#SVGID_22_);}
	.st23{fill:url(#SVGID_23_);}
	.st24{fill:url(#SVGID_24_);}
	.st25{fill:url(#SVGID_25_);}
	.st26{fill:url(#SVGID_26_);}
	.st27{fill:url(#SVGID_27_);}
	.st28{fill:url(#SVGID_28_);}
	.st29{fill:url(#SVGID_29_);}
	.st30{fill:url(#SVGID_30_);}
	.st31{fill:url(#SVGID_31_);}
	.st32{fill:url(#SVGID_32_);}
	.st33{fill:url(#SVGID_33_);}
	.st34{fill:url(#SVGID_34_);}
	.st35{fill:url(#SVGID_35_);}
	.st36{fill:url(#SVGID_36_);}
	.st37{fill:url(#SVGID_37_);}
	.st38{fill:url(#SVGID_38_);}
</style>
<g>
	<linearGradient id="SVGID_1_" gradientUnits="userSpaceOnUse" x1="309.5683" y1="69.173" x2="309.5683" y2="125.3043">
		<stop  offset="0" style="stop-color:#84CEE2"/>
		<stop  offset="1" style="stop-color:#2D67B0"/>
	</linearGradient>
	<path class="st0" d="M304.15,71.16l13.98,0.24h6.72l-3.06,51.95h-22.87l2.53-19.96l-5.71-2.71l-0.41-3.77l-0.75-0.05l-0.19-1.62
		l6.36-0.26v-1.72c-0.56-0.22-0.94-0.67-0.94-1.2c0-0.74,0.74-1.34,1.66-1.34c0.92,0,1.66,0.6,1.66,1.34c0,0.52-0.37,0.96-0.9,1.18
		v1.68l4.62-0.23l3.38-14.31c0,0-5.56-1.06-6.08-2.72C303.92,76.95,304.15,71.16,304.15,71.16 M302.27,69.17l-0.07,1.91
		c-0.24,6.13,0,6.89,0.09,7.17c0.57,1.81,3.06,2.93,5.59,3.6l-2.59,10.96l-0.3,0.01c0.07-0.25,0.1-0.51,0.1-0.77
		c0-1.81-1.62-3.29-3.61-3.29c-1.99,0-3.61,1.48-3.61,3.29c0,0.37,0.07,0.74,0.2,1.08l-3.74,0.15l-2.1,0.08l0.24,2.09l0.19,1.62
		l0.19,1.62l0.74,0.05l0.23,2.13l0.12,1.08l0.98,0.47l4.43,2.11l-2.35,18.56l-0.28,2.2h2.21h22.87h1.84l0.11-1.84l3.06-51.95
		l0.12-2.07h-2.07h-6.72l-13.95-0.24L302.27,69.17L302.27,69.17z"/>
	<linearGradient id="SVGID_2_" gradientUnits="userSpaceOnUse" x1="29.2742" y1="69.445" x2="29.2742" y2="125.3043">
		<stop  offset="0" style="stop-color:#84CEE2"/>
		<stop  offset="1" style="stop-color:#2D67B0"/>
	</linearGradient>
	<path class="st1" d="M56.13,71.4l-2.23,10.39h-33.4l-6.61,31.17h22.27l2.82-13.36H24.14l2.23-10.39h25.98l-7.27,34.14H7.96
		c-1.78,0-3.23-0.58-4.34-1.74c-1.11-1.16-1.67-2.58-1.67-4.27c0-0.25,0.01-0.48,0.04-0.71c0.02-0.22,0.06-0.46,0.11-0.7l7.94-37.11
		c0.4-2.03,1.48-3.76,3.27-5.2c1.78-1.48,3.69-2.23,5.72-2.23H56.13 M58.55,69.44h-2.41H19.02c-2.49,0-4.83,0.9-6.97,2.68
		c-2.12,1.71-3.45,3.84-3.93,6.32l-7.93,37.08c-0.07,0.33-0.11,0.62-0.14,0.9C0.02,116.7,0,117.01,0,117.34
		c0,2.2,0.74,4.09,2.21,5.62c1.49,1.56,3.43,2.35,5.75,2.35h37.11h1.58l0.33-1.55l7.27-34.14l0.5-2.36h-2.41H26.37h-1.58l-0.33,1.54
		l-2.23,10.39l-0.51,2.36h2.41h12.44l-2,9.45H16.31l5.78-27.27h31.82h1.58l0.33-1.54l2.23-10.39L58.55,69.44L58.55,69.44z"/>
	<linearGradient id="SVGID_3_" gradientUnits="userSpaceOnUse" x1="77.2382" y1="69.445" x2="77.2382" y2="125.3043">
		<stop  offset="0" style="stop-color:#84CEE2"/>
		<stop  offset="1" style="stop-color:#2D67B0"/>
	</linearGradient>
	<path class="st2" d="M95.92,71.4l9.72,51.95H93.02l-2.23-11.88H69.86l-7.27,11.88H49.97L81.81,71.4H95.92 M76.25,101.09h12.62
		L85.9,85.28L76.25,101.09 M97.54,69.44h-1.62h-14.1h-1.09l-0.57,0.93l-31.84,51.95l-1.82,2.97h3.49h12.62h1.09l0.57-0.93l6.7-10.94
		h18.22l1.93,10.28l0.3,1.59h1.62h12.62h2.35l-0.43-2.31l-9.72-51.95L97.54,69.44L97.54,69.44z M79.73,99.13l5.19-8.5l1.6,8.5H79.73
		L79.73,99.13z"/>
	<linearGradient id="SVGID_4_" gradientUnits="userSpaceOnUse" x1="144.3439" y1="69.445" x2="144.3439" y2="125.3043">
		<stop  offset="0" style="stop-color:#84CEE2"/>
		<stop  offset="1" style="stop-color:#2D67B0"/>
	</linearGradient>
	<path class="st3" d="M178.08,71.4l-11.06,51.95h-11.13l5.49-25.98l-18.11,25.98h-8.91l-7.13-25.98l-5.49,25.98h-11.13l11.06-51.95
		h11.13l9.43,35.26l24.72-35.26H178.08 M180.49,69.44h-2.41h-11.13h-1.02l-0.58,0.83l-22.31,31.83l-8.34-31.21l-0.39-1.45h-1.5
		h-11.13h-1.58l-0.33,1.55l-11.06,51.95l-0.5,2.36h2.41h11.13h1.58l0.33-1.55l3.83-18.11l5,18.22l0.39,1.44h1.49h8.91h1.02
		l0.58-0.84l12.61-18.09l-3.5,16.57l-0.5,2.36h2.41h11.13h1.58l0.33-1.55l11.06-51.95L180.49,69.44L180.49,69.44z"/>
	<linearGradient id="SVGID_5_" gradientUnits="userSpaceOnUse" x1="200.6484" y1="69.445" x2="200.6484" y2="125.3043">
		<stop  offset="0" style="stop-color:#84CEE2"/>
		<stop  offset="1" style="stop-color:#2D67B0"/>
	</linearGradient>
	<path class="st4" d="M225.65,71.4l-2.23,10.39h-29.69l-1.56,7.42h29.69l-2.23,10.39h-29.69l-2.82,13.36h29.69l-2.23,10.39h-33.4
		c-1.78,0-3.23-0.58-4.34-1.74c-1.11-1.16-1.67-2.58-1.67-4.27c0-0.25,0.01-0.48,0.04-0.71c0.02-0.22,0.06-0.46,0.11-0.7l7.94-37.11
		c0.4-2.03,1.48-3.76,3.27-5.2c1.78-1.48,3.69-2.23,5.71-2.23H225.65 M228.07,69.44h-2.41h-33.4c-2.49,0-4.83,0.9-6.96,2.68
		c-2.12,1.71-3.45,3.84-3.93,6.32l-7.93,37.08c-0.07,0.33-0.11,0.62-0.14,0.9c-0.03,0.28-0.05,0.59-0.05,0.92
		c0,2.2,0.74,4.09,2.21,5.62c1.49,1.56,3.42,2.35,5.75,2.35h33.4h1.58l0.33-1.54l2.23-10.39l0.51-2.36h-2.41h-27.28l2-9.45h28.11
		h1.58l0.33-1.54l2.23-10.39l0.51-2.36h-2.41h-27.28l0.74-3.52h28.1H225l0.33-1.54l2.23-10.39L228.07,69.44L228.07,69.44z"/>
	<linearGradient id="SVGID_6_" gradientUnits="userSpaceOnUse" x1="247.2121" y1="69.445" x2="247.2121" y2="125.3043">
		<stop  offset="0" style="stop-color:#84CEE2"/>
		<stop  offset="1" style="stop-color:#2D67B0"/>
	</linearGradient>
	<path class="st5" d="M275.01,71.4l-2.23,10.39h-33.4l-1.56,7.42h25.98c1.78,0,3.23,0.57,4.34,1.71c1.11,1.14,1.67,2.57,1.67,4.3
		c0,0.2-0.01,0.42-0.04,0.67c-0.03,0.25-0.06,0.5-0.11,0.74l-4.16,19.3c-0.4,2.03-1.48,3.79-3.27,5.27
		c-1.83,1.44-3.74,2.15-5.72,2.15h-37.11l2.23-10.39h33.4l2.82-13.36h-25.98c-1.78,0-3.23-0.58-4.34-1.74
		c-1.11-1.16-1.67-2.58-1.67-4.27c0-0.25,0.01-0.48,0.04-0.71c0.02-0.22,0.06-0.46,0.11-0.71l2.89-13.36
		c0.4-2.03,1.48-3.76,3.27-5.2c1.78-1.48,3.69-2.23,5.71-2.23H275.01 M277.42,69.44h-2.41H237.9c-2.49,0-4.83,0.9-6.96,2.68
		c-2.12,1.71-3.45,3.84-3.93,6.32l-2.89,13.32c-0.07,0.34-0.11,0.63-0.14,0.91c-0.03,0.28-0.05,0.59-0.05,0.91
		c0,2.2,0.74,4.09,2.21,5.62c1.49,1.56,3.42,2.35,5.75,2.35h23.57l-2,9.45h-31.82h-1.58l-0.33,1.54l-2.23,10.39L217,125.3h2.41
		h37.11c2.42,0,4.75-0.86,6.92-2.57c2.17-1.81,3.49-3.96,3.98-6.43l4.15-19.26c0.07-0.34,0.11-0.65,0.14-0.95
		c0.03-0.33,0.05-0.61,0.05-0.87c0-2.25-0.75-4.16-2.23-5.67c-1.49-1.52-3.42-2.29-5.74-2.29h-23.57l0.74-3.52h31.81h1.58l0.33-1.54
		l2.23-10.39L277.42,69.44L277.42,69.44z"/>
	<linearGradient id="SVGID_7_" gradientUnits="userSpaceOnUse" x1="383.4702" y1="69.445" x2="383.4702" y2="125.3043">
		<stop  offset="0" style="stop-color:#84CEE2"/>
		<stop  offset="1" style="stop-color:#2D67B0"/>
	</linearGradient>
	<path class="st6" d="M403.84,71.4c1.78,0,3.23,0.57,4.34,1.71c1.11,1.14,1.67,2.57,1.67,4.31c0,0.2-0.01,0.42-0.04,0.67
		c-0.02,0.25-0.06,0.5-0.11,0.74l-7.94,37.11c-0.4,2.03-1.48,3.79-3.27,5.27c-1.83,1.44-3.74,2.15-5.72,2.15H363.1
		c-1.78,0-3.23-0.58-4.34-1.74c-1.11-1.16-1.67-2.58-1.67-4.27c0-0.25,0.01-0.48,0.04-0.71c0.02-0.22,0.06-0.46,0.11-0.7l7.94-37.11
		c0.4-2.03,1.48-3.76,3.27-5.2c1.78-1.48,3.69-2.23,5.71-2.23H403.84 M369.03,112.96h22.27l6.61-31.17h-22.27L369.03,112.96
		 M403.84,69.44h-29.69c-2.49,0-4.83,0.9-6.96,2.68c-2.12,1.71-3.45,3.84-3.93,6.32l-7.93,37.08c-0.07,0.33-0.11,0.62-0.14,0.9
		c-0.03,0.28-0.05,0.59-0.05,0.92c0,2.2,0.74,4.09,2.21,5.62c1.49,1.56,3.42,2.35,5.75,2.35h29.69c2.42,0,4.75-0.86,6.92-2.57
		c2.17-1.81,3.49-3.96,3.98-6.43l7.93-37.08c0.07-0.34,0.11-0.65,0.14-0.96c0.03-0.32,0.05-0.61,0.05-0.86
		c0-2.25-0.75-4.16-2.23-5.67C408.09,70.22,406.16,69.44,403.84,69.44L403.84,69.44z M377.22,83.74h18.28l-5.78,27.27h-18.28
		L377.22,83.74L377.22,83.74z"/>
	<linearGradient id="SVGID_8_" gradientUnits="userSpaceOnUse" x1="434.7566" y1="69.445" x2="434.7566" y2="125.3043">
		<stop  offset="0" style="stop-color:#84CEE2"/>
		<stop  offset="1" style="stop-color:#2D67B0"/>
	</linearGradient>
	<path class="st7" d="M455.13,71.4c1.78,0,3.23,0.57,4.34,1.71c1.11,1.14,1.67,2.57,1.67,4.31c0,0.2-0.01,0.42-0.04,0.67
		c-0.03,0.25-0.06,0.5-0.11,0.74l-7.94,37.11c-0.4,2.03-1.48,3.79-3.27,5.27c-1.83,1.44-3.74,2.15-5.71,2.15h-29.69
		c-1.78,0-3.23-0.58-4.34-1.74c-1.11-1.16-1.67-2.58-1.67-4.27c0-0.25,0.01-0.48,0.04-0.71c0.02-0.22,0.06-0.46,0.11-0.7l7.94-37.11
		c0.4-2.03,1.48-3.76,3.27-5.2c1.78-1.48,3.69-2.23,5.71-2.23H455.13 M420.32,112.96h22.27l6.6-31.17h-22.27L420.32,112.96
		 M455.13,69.44h-29.69c-2.49,0-4.83,0.9-6.96,2.68c-2.12,1.71-3.45,3.84-3.93,6.32l-7.93,37.08c-0.07,0.33-0.11,0.62-0.14,0.9
		c-0.03,0.28-0.05,0.59-0.05,0.92c0,2.2,0.74,4.09,2.21,5.62c1.49,1.56,3.42,2.35,5.75,2.35h29.69c2.42,0,4.75-0.86,6.92-2.57
		c2.17-1.81,3.49-3.96,3.98-6.43l7.93-37.08c0.07-0.33,0.11-0.64,0.14-0.95c0.03-0.33,0.05-0.61,0.05-0.87
		c0-2.25-0.75-4.16-2.23-5.67C459.38,70.22,457.45,69.44,455.13,69.44L455.13,69.44z M428.51,83.74h18.28l-5.78,27.27h-18.28
		L428.51,83.74L428.51,83.74z"/>
	<linearGradient id="SVGID_9_" gradientUnits="userSpaceOnUse" x1="492.0555" y1="69.445" x2="492.0555" y2="125.3043">
		<stop  offset="0" style="stop-color:#84CEE2"/>
		<stop  offset="1" style="stop-color:#2D67B0"/>
	</linearGradient>
	<path class="st8" d="M525.79,71.4l-11.06,51.95H503.6l5.49-25.98l-18.11,25.98h-8.91l-7.13-25.98l-5.49,25.98h-11.13l11.06-51.95
		h11.13l9.43,35.26l24.72-35.26H525.79 M528.2,69.44h-2.41h-11.13h-1.02l-0.58,0.83l-22.31,31.83l-8.34-31.21l-0.39-1.45h-1.5
		h-11.13h-1.58l-0.33,1.55l-11.06,51.95l-0.5,2.36h2.41h11.13h1.58l0.33-1.55l3.83-18.11l5,18.22l0.39,1.44h1.49h8.91H492l0.58-0.84
		l12.61-18.09l-3.5,16.57l-0.5,2.36h2.41h11.13h1.58l0.33-1.55L527.7,71.8L528.2,69.44L528.2,69.44z"/>
	<linearGradient id="SVGID_10_" gradientUnits="userSpaceOnUse" x1="342.3919" y1="69.445" x2="342.3919" y2="125.3043">
		<stop  offset="0" style="stop-color:#84CEE2"/>
		<stop  offset="1" style="stop-color:#2D67B0"/>
	</linearGradient>
	<path class="st9" d="M352.56,71.4c1.78,0,3.23,0.57,4.34,1.71c1.11,1.14,1.67,2.57,1.67,4.31c0,0.2-0.01,0.42-0.04,0.67
		c-0.03,0.25-0.06,0.5-0.11,0.74l-1.78,8.16c-0.45,2.03-1.56,3.79-3.34,5.27c-1.73,1.44-3.61,2.15-5.64,2.15
		c1.78,0,3.23,0.57,4.34,1.71c1.11,1.14,1.67,2.57,1.67,4.3c0,0.2-0.01,0.42-0.04,0.67c-0.03,0.25-0.06,0.5-0.11,0.74l-4.6,21.52
		h-11.13l5.05-23.75h-16.5l0.61-10.39h18.12l1.56-7.42h-19.24l0.61-10.33L352.56,71.4 M352.56,69.44L352.56,69.44L352.56,69.44
		l-24.57,0.06l-1.84,0l-0.11,1.83l-0.61,10.33l-0.12,2.07h2.07h16.83l-0.74,3.52h-16.53h-1.84L325,89.1l-0.61,10.39l-0.12,2.07h2.07
		h14.09l-4.55,21.39l-0.5,2.36h2.41h11.13h1.58l0.33-1.54l4.6-21.52c0.07-0.34,0.11-0.64,0.14-0.95c0.03-0.32,0.05-0.61,0.05-0.87
		c0-2.25-0.75-4.16-2.23-5.67c-0.03-0.03-0.06-0.06-0.09-0.09c0.42-0.27,0.83-0.57,1.23-0.91c2.12-1.77,3.46-3.9,4-6.35l1.78-8.17
		c0.07-0.35,0.11-0.65,0.15-0.96c0.03-0.33,0.05-0.61,0.05-0.87c0-2.25-0.75-4.16-2.23-5.67C356.81,70.22,354.88,69.44,352.56,69.44
		L352.56,69.44z"/>
	<path class="st10" d="M161.03,97.88c0.08,0.01,0.16,0.02,0.24,0.04l0.11-0.54L161.03,97.88z"/>
	<path class="st10" d="M127.06,98.19c0.13-0.03,0.25-0.07,0.37-0.1l-0.2-0.72L127.06,98.19z"/>
	<path class="st10" d="M474.8,98.08c0.12,0.01,0.23,0.02,0.35,0.03l-0.2-0.74L474.8,98.08z"/>
	<path class="st10" d="M507.65,99.44c0.32,0.05,0.65,0.1,0.98,0.13l0.47-2.2L507.65,99.44z"/>
	<linearGradient id="SVGID_11_" gradientUnits="userSpaceOnUse" x1="309.2737" y1="-16.8665" x2="310.1217" y2="225.663">
		<stop  offset="0" style="stop-color:#344395"/>
		<stop  offset="0.2083" style="stop-color:#333B8C"/>
		<stop  offset="0.3387" style="stop-color:#313685"/>
		<stop  offset="0.349" style="stop-color:#323887"/>
		<stop  offset="0.3598" style="stop-color:#323F8C"/>
		<stop  offset="0.3709" style="stop-color:#324C96"/>
		<stop  offset="0.3822" style="stop-color:#315EA4"/>
		<stop  offset="0.3937" style="stop-color:#3175B7"/>
		<stop  offset="0.4051" style="stop-color:#3693CE"/>
		<stop  offset="0.4165" style="stop-color:#44B5E8"/>
		<stop  offset="0.4727" style="stop-color:#FFFFFF"/>
	</linearGradient>
	<path class="st11" d="M303.61,98.56c4.38,0,8.8-2.97,13.65-2.97c1.45,0,3.69,0.32,6.12,0.77l1.47-24.97h-6.72l-13.98-0.24
		c0,0-0.22,5.8,0,6.52c0.52,1.66,6.08,2.72,6.08,2.72l-3.38,14.31l-4.62,0.23v-1.68c0.53-0.22,0.9-0.67,0.9-1.18
		c0-0.74-0.74-1.34-1.66-1.34c-0.92,0-1.66,0.6-1.66,1.34c0,0.53,0.39,0.99,0.94,1.2v1.72l-6.36,0.26l0.15,1.29
		c0.67-0.18,1.44-0.3,2.42-0.3C301.38,96.23,299.23,98.56,303.61,98.56z"/>
	<linearGradient id="SVGID_12_" gradientUnits="userSpaceOnUse" x1="38.1294" y1="-15.8941" x2="38.9774" y2="226.6356">
		<stop  offset="0" style="stop-color:#344395"/>
		<stop  offset="0.2083" style="stop-color:#333B8C"/>
		<stop  offset="0.3387" style="stop-color:#313685"/>
		<stop  offset="0.349" style="stop-color:#323887"/>
		<stop  offset="0.3598" style="stop-color:#323F8C"/>
		<stop  offset="0.3709" style="stop-color:#324C96"/>
		<stop  offset="0.3822" style="stop-color:#315EA4"/>
		<stop  offset="0.3937" style="stop-color:#3175B7"/>
		<stop  offset="0.4051" style="stop-color:#3693CE"/>
		<stop  offset="0.4165" style="stop-color:#44B5E8"/>
		<stop  offset="0.4727" style="stop-color:#FFFFFF"/>
	</linearGradient>
	<path class="st12" d="M48.36,96.02c0.89-0.09,1.72-0.03,2.52,0.13l1.48-6.93H26.37l-1.7,7.92c1.16,0.45,2.8,0.98,6.05,1.43
		C38.16,99.6,44.32,96.44,48.36,96.02z"/>
	<linearGradient id="SVGID_13_" gradientUnits="userSpaceOnUse" x1="30.6278" y1="-15.8679" x2="31.4758" y2="226.6618">
		<stop  offset="0" style="stop-color:#344395"/>
		<stop  offset="0.2083" style="stop-color:#333B8C"/>
		<stop  offset="0.3387" style="stop-color:#313685"/>
		<stop  offset="0.349" style="stop-color:#323887"/>
		<stop  offset="0.3598" style="stop-color:#323F8C"/>
		<stop  offset="0.3709" style="stop-color:#324C96"/>
		<stop  offset="0.3822" style="stop-color:#315EA4"/>
		<stop  offset="0.3937" style="stop-color:#3175B7"/>
		<stop  offset="0.4051" style="stop-color:#3693CE"/>
		<stop  offset="0.4165" style="stop-color:#44B5E8"/>
		<stop  offset="0.4727" style="stop-color:#FFFFFF"/>
	</linearGradient>
	<path class="st13" d="M17.42,96.33l3.08-14.55h33.4l2.23-10.39H19.02c-2.03,0-3.93,0.74-5.72,2.23c-1.78,1.44-2.87,3.17-3.27,5.2
		l-4.21,19.7c0.37,0.03,0.74,0.05,1.11,0.05C11.66,98.56,14.51,97.02,17.42,96.33z"/>
	<linearGradient id="SVGID_14_" gradientUnits="userSpaceOnUse" x1="83.0199" y1="-16.051" x2="83.8679" y2="226.4786">
		<stop  offset="0" style="stop-color:#344395"/>
		<stop  offset="0.2083" style="stop-color:#333B8C"/>
		<stop  offset="0.3387" style="stop-color:#313685"/>
		<stop  offset="0.349" style="stop-color:#323887"/>
		<stop  offset="0.3598" style="stop-color:#323F8C"/>
		<stop  offset="0.3709" style="stop-color:#324C96"/>
		<stop  offset="0.3822" style="stop-color:#315EA4"/>
		<stop  offset="0.3937" style="stop-color:#3175B7"/>
		<stop  offset="0.4051" style="stop-color:#3693CE"/>
		<stop  offset="0.4165" style="stop-color:#44B5E8"/>
		<stop  offset="0.4727" style="stop-color:#FFFFFF"/>
	</linearGradient>
	<path class="st14" d="M78.85,96.81l7.04-11.54l2.45,13.03c0.27,0.03,0.51,0.04,0.68,0.04c1.32,0,6.18,0.64,7.5,0.64
		c0.41,0,2.17-0.35,4.39-0.84L95.92,71.4h-14.1l-15.9,25.94c2.79-0.55,5.18-1.11,5.18-1.11C73.14,96.23,76.3,96.52,78.85,96.81z"/>
	<linearGradient id="SVGID_15_" gradientUnits="userSpaceOnUse" x1="127.8187" y1="-16.2077" x2="128.6667" y2="226.322">
		<stop  offset="0" style="stop-color:#344395"/>
		<stop  offset="0.2083" style="stop-color:#333B8C"/>
		<stop  offset="0.3387" style="stop-color:#313685"/>
		<stop  offset="0.349" style="stop-color:#323887"/>
		<stop  offset="0.3598" style="stop-color:#323F8C"/>
		<stop  offset="0.3709" style="stop-color:#324C96"/>
		<stop  offset="0.3822" style="stop-color:#315EA4"/>
		<stop  offset="0.3937" style="stop-color:#3175B7"/>
		<stop  offset="0.4051" style="stop-color:#3693CE"/>
		<stop  offset="0.4165" style="stop-color:#44B5E8"/>
		<stop  offset="0.4727" style="stop-color:#FFFFFF"/>
	</linearGradient>
	<path class="st15" d="M127.06,98.19l0.17-0.82l0.2,0.72c2.91-0.7,5.43-2.08,7.93-2.08c3.23,0,3.14,2.48,4.79,2.9L132.8,71.4h-11.13
		l-5.4,25.35c2.15,0.77,4.96,1.6,7.37,1.74C124.86,98.56,125.99,98.43,127.06,98.19z"/>
	<linearGradient id="SVGID_16_" gradientUnits="userSpaceOnUse" x1="162.9445" y1="-16.3305" x2="163.7924" y2="226.1992">
		<stop  offset="0" style="stop-color:#344395"/>
		<stop  offset="0.2083" style="stop-color:#333B8C"/>
		<stop  offset="0.3387" style="stop-color:#313685"/>
		<stop  offset="0.349" style="stop-color:#323887"/>
		<stop  offset="0.3598" style="stop-color:#323F8C"/>
		<stop  offset="0.3709" style="stop-color:#324C96"/>
		<stop  offset="0.3822" style="stop-color:#315EA4"/>
		<stop  offset="0.3937" style="stop-color:#3175B7"/>
		<stop  offset="0.4051" style="stop-color:#3693CE"/>
		<stop  offset="0.4165" style="stop-color:#44B5E8"/>
		<stop  offset="0.4727" style="stop-color:#FFFFFF"/>
	</linearGradient>
	<path class="st16" d="M158.32,97.37c0.56,0.14,1.53,0.32,2.71,0.5l0.35-0.5l-0.11,0.54c3.48,0.54,8.63,1.13,10.82,1.11
		c0.04,0,0.08-0.01,0.12-0.01l5.88-27.61h-11.13l-18.43,26.29c0.51-0.12,0.99-0.22,1.35-0.31
		C151.95,96.89,156.11,96.82,158.32,97.37z"/>
	<linearGradient id="SVGID_17_" gradientUnits="userSpaceOnUse" x1="202.1501" y1="-16.4676" x2="202.9982" y2="226.0621">
		<stop  offset="0" style="stop-color:#344395"/>
		<stop  offset="0.2083" style="stop-color:#333B8C"/>
		<stop  offset="0.3387" style="stop-color:#313685"/>
		<stop  offset="0.349" style="stop-color:#323887"/>
		<stop  offset="0.3598" style="stop-color:#323F8C"/>
		<stop  offset="0.3709" style="stop-color:#324C96"/>
		<stop  offset="0.3822" style="stop-color:#315EA4"/>
		<stop  offset="0.3937" style="stop-color:#3175B7"/>
		<stop  offset="0.4051" style="stop-color:#3693CE"/>
		<stop  offset="0.4165" style="stop-color:#44B5E8"/>
		<stop  offset="0.4727" style="stop-color:#FFFFFF"/>
	</linearGradient>
	<path class="st17" d="M193.62,96.23c3.57-0.12,6.62,0.81,9.27,1.14c2.65,0.34,13.68,0,13.68,0l3.45,0.43l1.84-8.59h-29.69
		l1.56-7.42h29.69l2.23-10.39h-33.4c-2.03,0-3.93,0.74-5.71,2.23c-1.78,1.44-2.87,3.17-3.27,5.2l-3.92,18.32
		c1.67,0.15,3.76,1.85,5.45,1.85C186.56,98.99,190.05,96.35,193.62,96.23z"/>
	<linearGradient id="SVGID_18_" gradientUnits="userSpaceOnUse" x1="250.0943" y1="-16.6352" x2="250.9423" y2="225.8945">
		<stop  offset="0" style="stop-color:#344395"/>
		<stop  offset="0.2083" style="stop-color:#333B8C"/>
		<stop  offset="0.3387" style="stop-color:#313685"/>
		<stop  offset="0.349" style="stop-color:#323887"/>
		<stop  offset="0.3598" style="stop-color:#323F8C"/>
		<stop  offset="0.3709" style="stop-color:#324C96"/>
		<stop  offset="0.3822" style="stop-color:#315EA4"/>
		<stop  offset="0.3937" style="stop-color:#3175B7"/>
		<stop  offset="0.4051" style="stop-color:#3693CE"/>
		<stop  offset="0.4165" style="stop-color:#44B5E8"/>
		<stop  offset="0.4727" style="stop-color:#FFFFFF"/>
	</linearGradient>
	<path class="st18" d="M243.34,97.37c2.8-0.3,10.34,1.82,15.6,2.25c2.96,0.24,6.66-0.82,10.47-1.82l0.25-1.17
		c0.05-0.25,0.09-0.49,0.11-0.74c0.02-0.25,0.04-0.47,0.04-0.67c0-1.73-0.56-3.17-1.67-4.3c-1.11-1.14-2.56-1.71-4.34-1.71h-25.98
		l1.56-7.42h33.4l2.23-10.39H237.9c-2.03,0-3.93,0.74-5.71,2.23c-1.78,1.44-2.87,3.17-3.27,5.2l-2.89,13.36
		c-0.05,0.25-0.09,0.48-0.11,0.71c-0.03,0.22-0.04,0.46-0.04,0.71c0,1.68,0.56,3.11,1.67,4.27c0.43,0.45,0.93,0.79,1.47,1.07
		l3.89,0.49C232.9,99.41,240.54,97.67,243.34,97.37z"/>
	<linearGradient id="SVGID_19_" gradientUnits="userSpaceOnUse" x1="385.1956" y1="-17.1321" x2="386.0436" y2="225.3976">
		<stop  offset="0" style="stop-color:#344395"/>
		<stop  offset="0.2083" style="stop-color:#333B8C"/>
		<stop  offset="0.3387" style="stop-color:#313685"/>
		<stop  offset="0.349" style="stop-color:#323887"/>
		<stop  offset="0.3598" style="stop-color:#323F8C"/>
		<stop  offset="0.3709" style="stop-color:#324C96"/>
		<stop  offset="0.3822" style="stop-color:#315EA4"/>
		<stop  offset="0.3937" style="stop-color:#3175B7"/>
		<stop  offset="0.4051" style="stop-color:#3693CE"/>
		<stop  offset="0.4165" style="stop-color:#44B5E8"/>
		<stop  offset="0.4727" style="stop-color:#FFFFFF"/>
	</linearGradient>
	<path class="st19" d="M372.32,97.45l3.32-15.66h22.27l-3.19,15.05c8.21-0.12,9.45-0.69,11.31-0.8l3.68-17.22
		c0.05-0.25,0.09-0.49,0.11-0.74c0.02-0.25,0.04-0.47,0.04-0.67c0-1.73-0.56-3.17-1.67-4.31c-1.11-1.14-2.56-1.71-4.34-1.71h-29.69
		c-2.03,0-3.93,0.74-5.71,2.23c-1.78,1.44-2.87,3.17-3.27,5.2l-3.91,18.27c1.15,0.09,2.25,0.18,3.22,0.29
		C366.52,97.59,369.15,97.56,372.32,97.45z"/>
	<linearGradient id="SVGID_20_" gradientUnits="userSpaceOnUse" x1="436.5581" y1="-17.3117" x2="437.4061" y2="225.218">
		<stop  offset="0" style="stop-color:#344395"/>
		<stop  offset="0.2083" style="stop-color:#333B8C"/>
		<stop  offset="0.3387" style="stop-color:#313685"/>
		<stop  offset="0.349" style="stop-color:#323887"/>
		<stop  offset="0.3598" style="stop-color:#323F8C"/>
		<stop  offset="0.3709" style="stop-color:#324C96"/>
		<stop  offset="0.3822" style="stop-color:#315EA4"/>
		<stop  offset="0.3937" style="stop-color:#3175B7"/>
		<stop  offset="0.4051" style="stop-color:#3693CE"/>
		<stop  offset="0.4165" style="stop-color:#44B5E8"/>
		<stop  offset="0.4727" style="stop-color:#FFFFFF"/>
	</linearGradient>
	<path class="st20" d="M423.57,97.63l3.36-15.84h22.27l-3.05,14.41c1.02-0.26,1.94-0.43,2.65-0.4c1.85,0.09,5.03,0.47,8.4,0.82
		l3.81-17.81c0.05-0.25,0.09-0.49,0.11-0.74c0.02-0.25,0.04-0.47,0.04-0.67c0-1.73-0.56-3.17-1.67-4.31
		c-1.11-1.14-2.56-1.71-4.34-1.71h-29.69c-2.03,0-3.93,0.74-5.71,2.23c-1.78,1.44-2.87,3.17-3.27,5.2l-3.76,17.56
		c3.14,0.28,6.48,0.67,8.28,0.99C421.69,97.5,422.59,97.58,423.57,97.63z"/>
	<linearGradient id="SVGID_21_" gradientUnits="userSpaceOnUse" x1="510.8092" y1="-17.5713" x2="511.6572" y2="224.9584">
		<stop  offset="0" style="stop-color:#344395"/>
		<stop  offset="0.2083" style="stop-color:#333B8C"/>
		<stop  offset="0.3387" style="stop-color:#313685"/>
		<stop  offset="0.349" style="stop-color:#323887"/>
		<stop  offset="0.3598" style="stop-color:#323F8C"/>
		<stop  offset="0.3709" style="stop-color:#324C96"/>
		<stop  offset="0.3822" style="stop-color:#315EA4"/>
		<stop  offset="0.3937" style="stop-color:#3175B7"/>
		<stop  offset="0.4051" style="stop-color:#3693CE"/>
		<stop  offset="0.4165" style="stop-color:#44B5E8"/>
		<stop  offset="0.4727" style="stop-color:#FFFFFF"/>
	</linearGradient>
	<path class="st21" d="M507.65,99.44l1.44-2.07l-0.47,2.2c0.06,0.01,0.12,0.02,0.18,0.03c3.52,0.32,8.26-1.74,11.59-2.87l5.39-25.33
		h-11.13l-18.11,25.84C499.95,97.25,503.66,98.85,507.65,99.44z"/>
	<linearGradient id="SVGID_22_" gradientUnits="userSpaceOnUse" x1="475.3896" y1="-17.4474" x2="476.2376" y2="225.0822">
		<stop  offset="0" style="stop-color:#344395"/>
		<stop  offset="0.2083" style="stop-color:#333B8C"/>
		<stop  offset="0.3387" style="stop-color:#313685"/>
		<stop  offset="0.349" style="stop-color:#323887"/>
		<stop  offset="0.3598" style="stop-color:#323F8C"/>
		<stop  offset="0.3709" style="stop-color:#324C96"/>
		<stop  offset="0.3822" style="stop-color:#315EA4"/>
		<stop  offset="0.3937" style="stop-color:#3175B7"/>
		<stop  offset="0.4051" style="stop-color:#3693CE"/>
		<stop  offset="0.4165" style="stop-color:#44B5E8"/>
		<stop  offset="0.4727" style="stop-color:#FFFFFF"/>
	</linearGradient>
	<path class="st22" d="M474.8,98.08l0.15-0.71l0.2,0.74c2.81,0.25,5.51,0.45,7.62,0.45c1.75,0,3.38-0.12,4.93-0.29l-7.18-26.87
		h-11.13l-5.49,25.81c0.27,0.02,0.53,0.03,0.79,0.04C467.57,97.39,471.26,97.77,474.8,98.08z"/>
	<linearGradient id="SVGID_23_" gradientUnits="userSpaceOnUse" x1="342.1638" y1="-16.9816" x2="343.0119" y2="225.5481">
		<stop  offset="0" style="stop-color:#344395"/>
		<stop  offset="0.2083" style="stop-color:#333B8C"/>
		<stop  offset="0.3387" style="stop-color:#313685"/>
		<stop  offset="0.349" style="stop-color:#323887"/>
		<stop  offset="0.3598" style="stop-color:#323F8C"/>
		<stop  offset="0.3709" style="stop-color:#324C96"/>
		<stop  offset="0.3822" style="stop-color:#315EA4"/>
		<stop  offset="0.3937" style="stop-color:#3175B7"/>
		<stop  offset="0.4051" style="stop-color:#3693CE"/>
		<stop  offset="0.4165" style="stop-color:#44B5E8"/>
		<stop  offset="0.4727" style="stop-color:#FFFFFF"/>
	</linearGradient>
	<path class="st23" d="M348.16,96.44c0.76,0,2.3,0.05,4.21,0.13c-0.12-0.15-0.23-0.31-0.37-0.46c-1.11-1.14-2.56-1.71-4.34-1.71
		c2.03,0,3.91-0.72,5.64-2.15c1.78-1.48,2.89-3.24,3.34-5.27l1.78-8.16c0.05-0.25,0.09-0.49,0.11-0.74
		c0.02-0.25,0.04-0.47,0.04-0.67c0-1.73-0.56-3.17-1.67-4.31c-1.11-1.14-2.56-1.71-4.34-1.71l-24.57,0.06l-0.61,10.33h19.24
		l-1.56,7.42h-18.12l-0.46,7.78c4.78,1.01,9.31,2.21,9.31,2.21S345.95,96.44,348.16,96.44z"/>
	<linearGradient id="SVGID_24_" gradientUnits="userSpaceOnUse" x1="308.9628" y1="48.8458" x2="308.9628" y2="177.6771">
		<stop  offset="0.3014" style="stop-color:#0B001F"/>
		<stop  offset="0.3141" style="stop-color:#0D0222"/>
		<stop  offset="0.3274" style="stop-color:#100B2C"/>
		<stop  offset="0.3411" style="stop-color:#15183B"/>
		<stop  offset="0.3551" style="stop-color:#19274F"/>
		<stop  offset="0.3692" style="stop-color:#183968"/>
		<stop  offset="0.3835" style="stop-color:#084E86"/>
		<stop  offset="0.3976" style="stop-color:#0067AA"/>
		<stop  offset="0.4041" style="stop-color:#0075BD"/>
		<stop  offset="0.4145" style="stop-color:#007DC3"/>
		<stop  offset="0.4339" style="stop-color:#0096D4"/>
		<stop  offset="0.4537" style="stop-color:#44B5E8"/>
		<stop  offset="0.5734" style="stop-color:#FFFFFF"/>
	</linearGradient>
	<path class="st24" d="M317.26,95.59c-4.85,0-9.27,2.97-13.65,2.97c-4.38,0-2.24-2.33-6.65-2.33c-0.98,0-1.75,0.12-2.42,0.3
		l0.04,0.33l0.75,0.05l0.41,3.77l5.71,2.71l-2.53,19.96h22.87l1.59-26.98C320.96,95.92,318.71,95.59,317.26,95.59z"/>
	<linearGradient id="SVGID_25_" gradientUnits="userSpaceOnUse" x1="26.4116" y1="50.0936" x2="26.4116" y2="177.6696">
		<stop  offset="0.3014" style="stop-color:#0B001F"/>
		<stop  offset="0.3141" style="stop-color:#0D0222"/>
		<stop  offset="0.3274" style="stop-color:#100B2C"/>
		<stop  offset="0.3411" style="stop-color:#15183B"/>
		<stop  offset="0.3551" style="stop-color:#19274F"/>
		<stop  offset="0.3692" style="stop-color:#183968"/>
		<stop  offset="0.3835" style="stop-color:#084E86"/>
		<stop  offset="0.3976" style="stop-color:#0067AA"/>
		<stop  offset="0.4041" style="stop-color:#0075BD"/>
		<stop  offset="0.4145" style="stop-color:#007DC3"/>
		<stop  offset="0.4339" style="stop-color:#0096D4"/>
		<stop  offset="0.4537" style="stop-color:#44B5E8"/>
		<stop  offset="0.5734" style="stop-color:#FFFFFF"/>
	</linearGradient>
	<path class="st25" d="M48.36,96.02c-4.04,0.42-10.2,3.58-17.64,2.54c-3.24-0.45-4.89-0.98-6.05-1.43l-0.53,2.47h14.84l-2.82,13.36
		H13.9l3.52-16.63c-2.91,0.68-5.76,2.23-10.49,2.23c-0.37,0-0.74-0.02-1.11-0.05L2.1,115.93c-0.05,0.25-0.09,0.48-0.11,0.7
		c-0.03,0.22-0.04,0.46-0.04,0.71c0,1.68,0.56,3.11,1.67,4.27c1.11,1.16,2.56,1.74,4.34,1.74h37.11l5.8-27.21
		C50.08,95.99,49.25,95.92,48.36,96.02z"/>
	<linearGradient id="SVGID_26_" gradientUnits="userSpaceOnUse" x1="77.8055" y1="50.6545" x2="77.8055" y2="177.0616">
		<stop  offset="0.3014" style="stop-color:#0B001F"/>
		<stop  offset="0.3141" style="stop-color:#0D0222"/>
		<stop  offset="0.3274" style="stop-color:#100B2C"/>
		<stop  offset="0.3411" style="stop-color:#15183B"/>
		<stop  offset="0.3551" style="stop-color:#19274F"/>
		<stop  offset="0.3692" style="stop-color:#183968"/>
		<stop  offset="0.3835" style="stop-color:#084E86"/>
		<stop  offset="0.3976" style="stop-color:#0067AA"/>
		<stop  offset="0.4041" style="stop-color:#0075BD"/>
		<stop  offset="0.4145" style="stop-color:#007DC3"/>
		<stop  offset="0.4339" style="stop-color:#0096D4"/>
		<stop  offset="0.4537" style="stop-color:#44B5E8"/>
		<stop  offset="0.5734" style="stop-color:#FFFFFF"/>
	</linearGradient>
	<path class="st26" d="M100.92,98.15c-2.22,0.49-3.98,0.84-4.39,0.84c-1.32,0-6.18-0.64-7.5-0.64c-0.18,0-0.41-0.02-0.68-0.04
		l0.52,2.78H76.25l2.61-4.27c-2.55-0.29-5.71-0.58-7.76-0.58c0,0-2.4,0.56-5.18,1.11l-15.94,26.01h12.62l7.27-11.88h20.93
		l2.23,11.88h12.62L100.92,98.15z"/>
	<g>
		<linearGradient id="SVGID_27_" gradientUnits="userSpaceOnUse" x1="118.9231" y1="52.031" x2="118.9231" y2="175.854">
			<stop  offset="0.3014" style="stop-color:#0B001F"/>
			<stop  offset="0.3141" style="stop-color:#0D0222"/>
			<stop  offset="0.3274" style="stop-color:#100B2C"/>
			<stop  offset="0.3411" style="stop-color:#15183B"/>
			<stop  offset="0.3551" style="stop-color:#19274F"/>
			<stop  offset="0.3692" style="stop-color:#183968"/>
			<stop  offset="0.3835" style="stop-color:#084E86"/>
			<stop  offset="0.3976" style="stop-color:#0067AA"/>
			<stop  offset="0.4041" style="stop-color:#0075BD"/>
			<stop  offset="0.4145" style="stop-color:#007DC3"/>
			<stop  offset="0.4339" style="stop-color:#0096D4"/>
			<stop  offset="0.4537" style="stop-color:#44B5E8"/>
			<stop  offset="0.5734" style="stop-color:#FFFFFF"/>
		</linearGradient>
		<path class="st27" d="M123.65,98.49c-2.42-0.15-5.23-0.98-7.37-1.74l-5.66,26.61h11.13l5.49-25.98l-0.17,0.82
			C125.99,98.43,124.86,98.56,123.65,98.49z"/>
		<linearGradient id="SVGID_28_" gradientUnits="userSpaceOnUse" x1="164.0428" y1="53.7175" x2="164.0428" y2="174.6126">
			<stop  offset="0.3014" style="stop-color:#0B001F"/>
			<stop  offset="0.3141" style="stop-color:#0D0222"/>
			<stop  offset="0.3274" style="stop-color:#100B2C"/>
			<stop  offset="0.3411" style="stop-color:#15183B"/>
			<stop  offset="0.3551" style="stop-color:#19274F"/>
			<stop  offset="0.3692" style="stop-color:#183968"/>
			<stop  offset="0.3835" style="stop-color:#084E86"/>
			<stop  offset="0.3976" style="stop-color:#0067AA"/>
			<stop  offset="0.4041" style="stop-color:#0075BD"/>
			<stop  offset="0.4145" style="stop-color:#007DC3"/>
			<stop  offset="0.4339" style="stop-color:#0096D4"/>
			<stop  offset="0.4537" style="stop-color:#44B5E8"/>
			<stop  offset="0.5734" style="stop-color:#FFFFFF"/>
		</linearGradient>
		<path class="st28" d="M172.08,99.02c-2.19,0.02-7.34-0.57-10.82-1.11l0.11-0.54l-5.49,25.98h11.13l5.18-24.34
			C172.16,99.01,172.12,99.02,172.08,99.02z"/>
		<linearGradient id="SVGID_29_" gradientUnits="userSpaceOnUse" x1="144.3067" y1="50.0797" x2="144.3067" y2="177.2905">
			<stop  offset="0.3014" style="stop-color:#0B001F"/>
			<stop  offset="0.3141" style="stop-color:#0D0222"/>
			<stop  offset="0.3274" style="stop-color:#100B2C"/>
			<stop  offset="0.3411" style="stop-color:#15183B"/>
			<stop  offset="0.3551" style="stop-color:#19274F"/>
			<stop  offset="0.3692" style="stop-color:#183968"/>
			<stop  offset="0.3835" style="stop-color:#084E86"/>
			<stop  offset="0.3976" style="stop-color:#0067AA"/>
			<stop  offset="0.4041" style="stop-color:#0075BD"/>
			<stop  offset="0.4145" style="stop-color:#007DC3"/>
			<stop  offset="0.4339" style="stop-color:#0096D4"/>
			<stop  offset="0.4537" style="stop-color:#44B5E8"/>
			<stop  offset="0.5734" style="stop-color:#FFFFFF"/>
		</linearGradient>
		<path class="st29" d="M158.32,97.37c-2.21-0.55-6.37-0.48-8.45,0c-0.37,0.08-0.84,0.19-1.35,0.31l-6.29,8.97l-2.07-7.73
			c-1.65-0.42-1.56-2.9-4.79-2.9c-2.51,0-5.02,1.38-7.93,2.08l-0.2-0.72l7.13,25.98h8.91l18.11-25.98l-0.35,0.5
			C159.85,97.69,158.88,97.51,158.32,97.37z"/>
	</g>
	<linearGradient id="SVGID_30_" gradientUnits="userSpaceOnUse" x1="197.6036" y1="50.4189" x2="197.6036" y2="176.8902">
		<stop  offset="0.3014" style="stop-color:#0B001F"/>
		<stop  offset="0.3141" style="stop-color:#0D0222"/>
		<stop  offset="0.3274" style="stop-color:#100B2C"/>
		<stop  offset="0.3411" style="stop-color:#15183B"/>
		<stop  offset="0.3551" style="stop-color:#19274F"/>
		<stop  offset="0.3692" style="stop-color:#183968"/>
		<stop  offset="0.3835" style="stop-color:#084E86"/>
		<stop  offset="0.3976" style="stop-color:#0067AA"/>
		<stop  offset="0.4041" style="stop-color:#0075BD"/>
		<stop  offset="0.4145" style="stop-color:#007DC3"/>
		<stop  offset="0.4339" style="stop-color:#0096D4"/>
		<stop  offset="0.4537" style="stop-color:#44B5E8"/>
		<stop  offset="0.5734" style="stop-color:#FFFFFF"/>
	</linearGradient>
	<path class="st30" d="M219.64,99.6l0.39-1.8l-3.45-0.43c0,0-11.03,0.34-13.68,0c-2.65-0.34-5.69-1.27-9.27-1.14
		c-3.57,0.12-7.06,2.76-8.83,2.76c-1.69,0-3.78-1.7-5.45-1.85l-4.02,18.79c-0.05,0.25-0.09,0.48-0.11,0.7
		c-0.03,0.22-0.04,0.46-0.04,0.71c0,1.68,0.56,3.11,1.67,4.27c1.11,1.16,2.56,1.74,4.34,1.74h33.4l2.23-10.39h-29.69l2.82-13.36
		H219.64z"/>
	<g>
		<linearGradient id="SVGID_31_" gradientUnits="userSpaceOnUse" x1="228.6423" y1="97.7188" x2="228.6423" y2="99.8079">
			<stop  offset="0.3014" style="stop-color:#0B001F"/>
			<stop  offset="0.3141" style="stop-color:#0D0222"/>
			<stop  offset="0.3274" style="stop-color:#100B2C"/>
			<stop  offset="0.3411" style="stop-color:#15183B"/>
			<stop  offset="0.3551" style="stop-color:#19274F"/>
			<stop  offset="0.3692" style="stop-color:#183968"/>
			<stop  offset="0.3835" style="stop-color:#084E86"/>
			<stop  offset="0.3976" style="stop-color:#0067AA"/>
			<stop  offset="0.4041" style="stop-color:#0075BD"/>
			<stop  offset="0.4145" style="stop-color:#007DC3"/>
			<stop  offset="0.4339" style="stop-color:#0096D4"/>
			<stop  offset="0.4537" style="stop-color:#44B5E8"/>
			<stop  offset="0.5734" style="stop-color:#FFFFFF"/>
		</linearGradient>
		<path class="st31" d="M228.27,98.48c0.23,0.17,0.48,0.32,0.74,0.45C228.76,98.79,228.51,98.64,228.27,98.48z"/>
		<linearGradient id="SVGID_32_" gradientUnits="userSpaceOnUse" x1="244.4147" y1="53.3587" x2="244.4147" y2="174.605">
			<stop  offset="0.3014" style="stop-color:#0B001F"/>
			<stop  offset="0.3141" style="stop-color:#0D0222"/>
			<stop  offset="0.3274" style="stop-color:#100B2C"/>
			<stop  offset="0.3411" style="stop-color:#15183B"/>
			<stop  offset="0.3551" style="stop-color:#19274F"/>
			<stop  offset="0.3692" style="stop-color:#183968"/>
			<stop  offset="0.3835" style="stop-color:#084E86"/>
			<stop  offset="0.3976" style="stop-color:#0067AA"/>
			<stop  offset="0.4041" style="stop-color:#0075BD"/>
			<stop  offset="0.4145" style="stop-color:#007DC3"/>
			<stop  offset="0.4339" style="stop-color:#0096D4"/>
			<stop  offset="0.4537" style="stop-color:#44B5E8"/>
			<stop  offset="0.5734" style="stop-color:#FFFFFF"/>
		</linearGradient>
		<path class="st32" d="M258.94,99.62c-5.26-0.42-12.8-2.54-15.6-2.25c-2.8,0.3-10.44,2.04-10.44,2.04l-3.89-0.49
			c0.84,0.43,1.79,0.68,2.87,0.68h25.98l-2.82,13.36h-33.4l-2.23,10.39h37.11c1.98,0,3.88-0.72,5.72-2.15
			c1.78-1.48,2.87-3.24,3.27-5.27l3.91-18.13C265.61,98.8,261.91,99.86,258.94,99.62z"/>
	</g>
	<linearGradient id="SVGID_33_" gradientUnits="userSpaceOnUse" x1="381.5534" y1="49.5792" x2="381.5534" y2="176.9171">
		<stop  offset="0.3014" style="stop-color:#0B001F"/>
		<stop  offset="0.3141" style="stop-color:#0D0222"/>
		<stop  offset="0.3274" style="stop-color:#100B2C"/>
		<stop  offset="0.3411" style="stop-color:#15183B"/>
		<stop  offset="0.3551" style="stop-color:#19274F"/>
		<stop  offset="0.3692" style="stop-color:#183968"/>
		<stop  offset="0.3835" style="stop-color:#084E86"/>
		<stop  offset="0.3976" style="stop-color:#0067AA"/>
		<stop  offset="0.4041" style="stop-color:#0075BD"/>
		<stop  offset="0.4145" style="stop-color:#007DC3"/>
		<stop  offset="0.4339" style="stop-color:#0096D4"/>
		<stop  offset="0.4537" style="stop-color:#44B5E8"/>
		<stop  offset="0.5734" style="stop-color:#FFFFFF"/>
	</linearGradient>
	<path class="st33" d="M394.72,96.84l-3.42,16.12h-22.27l3.29-15.51c-3.17,0.11-5.81,0.14-7.83-0.07c-0.98-0.1-2.07-0.2-3.22-0.29
		l-4.03,18.84c-0.05,0.25-0.09,0.48-0.11,0.7c-0.03,0.22-0.04,0.46-0.04,0.71c0,1.68,0.56,3.11,1.67,4.27
		c1.11,1.16,2.56,1.74,4.34,1.74h29.69c1.98,0,3.88-0.72,5.72-2.15c1.78-1.48,2.87-3.24,3.27-5.27l4.26-19.89
		C404.17,96.16,402.92,96.73,394.72,96.84z"/>
	<linearGradient id="SVGID_34_" gradientUnits="userSpaceOnUse" x1="432.7769" y1="48.841" x2="432.7769" y2="177.2891">
		<stop  offset="0.3014" style="stop-color:#0B001F"/>
		<stop  offset="0.3141" style="stop-color:#0D0222"/>
		<stop  offset="0.3274" style="stop-color:#100B2C"/>
		<stop  offset="0.3411" style="stop-color:#15183B"/>
		<stop  offset="0.3551" style="stop-color:#19274F"/>
		<stop  offset="0.3692" style="stop-color:#183968"/>
		<stop  offset="0.3835" style="stop-color:#084E86"/>
		<stop  offset="0.3976" style="stop-color:#0067AA"/>
		<stop  offset="0.4041" style="stop-color:#0075BD"/>
		<stop  offset="0.4145" style="stop-color:#007DC3"/>
		<stop  offset="0.4339" style="stop-color:#0096D4"/>
		<stop  offset="0.4537" style="stop-color:#44B5E8"/>
		<stop  offset="0.5734" style="stop-color:#FFFFFF"/>
	</linearGradient>
	<path class="st34" d="M448.79,95.81c-0.71-0.03-1.62,0.13-2.65,0.4l-3.55,16.76h-22.27l3.25-15.33c-0.98-0.06-1.88-0.13-2.59-0.26
		c-1.79-0.32-5.13-0.71-8.28-0.99l-4.18,19.55c-0.05,0.25-0.09,0.48-0.11,0.7c-0.03,0.22-0.04,0.46-0.04,0.71
		c0,1.68,0.56,3.11,1.67,4.27c1.11,1.16,2.56,1.74,4.34,1.74h29.69c1.98,0,3.88-0.72,5.71-2.15c1.78-1.48,2.87-3.24,3.27-5.27
		l4.13-19.3C453.81,96.27,450.63,95.9,448.79,95.81z"/>
	<g>
		<linearGradient id="SVGID_35_" gradientUnits="userSpaceOnUse" x1="466.56" y1="52.658" x2="466.56" y2="174.3125">
			<stop  offset="0.3014" style="stop-color:#0B001F"/>
			<stop  offset="0.3141" style="stop-color:#0D0222"/>
			<stop  offset="0.3274" style="stop-color:#100B2C"/>
			<stop  offset="0.3411" style="stop-color:#15183B"/>
			<stop  offset="0.3551" style="stop-color:#19274F"/>
			<stop  offset="0.3692" style="stop-color:#183968"/>
			<stop  offset="0.3835" style="stop-color:#084E86"/>
			<stop  offset="0.3976" style="stop-color:#0067AA"/>
			<stop  offset="0.4041" style="stop-color:#0075BD"/>
			<stop  offset="0.4145" style="stop-color:#007DC3"/>
			<stop  offset="0.4339" style="stop-color:#0096D4"/>
			<stop  offset="0.4537" style="stop-color:#44B5E8"/>
			<stop  offset="0.5734" style="stop-color:#FFFFFF"/>
		</linearGradient>
		<path class="st35" d="M464.67,97.25c-0.26-0.01-0.52-0.03-0.79-0.04l-5.56,26.14h11.13l5.34-25.27
			C471.26,97.77,467.57,97.39,464.67,97.25z"/>
		<linearGradient id="SVGID_36_" gradientUnits="userSpaceOnUse" x1="511.9968" y1="51.3564" x2="511.9968" y2="175.2507">
			<stop  offset="0.3014" style="stop-color:#0B001F"/>
			<stop  offset="0.3141" style="stop-color:#0D0222"/>
			<stop  offset="0.3274" style="stop-color:#100B2C"/>
			<stop  offset="0.3411" style="stop-color:#15183B"/>
			<stop  offset="0.3551" style="stop-color:#19274F"/>
			<stop  offset="0.3692" style="stop-color:#183968"/>
			<stop  offset="0.3835" style="stop-color:#084E86"/>
			<stop  offset="0.3976" style="stop-color:#0067AA"/>
			<stop  offset="0.4041" style="stop-color:#0075BD"/>
			<stop  offset="0.4145" style="stop-color:#007DC3"/>
			<stop  offset="0.4339" style="stop-color:#0096D4"/>
			<stop  offset="0.4537" style="stop-color:#44B5E8"/>
			<stop  offset="0.5734" style="stop-color:#FFFFFF"/>
		</linearGradient>
		<path class="st36" d="M508.81,99.6c-0.06-0.01-0.12-0.02-0.18-0.03l0.47-2.2l-5.49,25.98h11.13l5.67-26.62
			C517.07,97.87,512.33,99.93,508.81,99.6z"/>
		<linearGradient id="SVGID_37_" gradientUnits="userSpaceOnUse" x1="492.0184" y1="52.7224" x2="492.0184" y2="174.266">
			<stop  offset="0.3014" style="stop-color:#0B001F"/>
			<stop  offset="0.3141" style="stop-color:#0D0222"/>
			<stop  offset="0.3274" style="stop-color:#100B2C"/>
			<stop  offset="0.3411" style="stop-color:#15183B"/>
			<stop  offset="0.3551" style="stop-color:#19274F"/>
			<stop  offset="0.3692" style="stop-color:#183968"/>
			<stop  offset="0.3835" style="stop-color:#084E86"/>
			<stop  offset="0.3976" style="stop-color:#0067AA"/>
			<stop  offset="0.4041" style="stop-color:#0075BD"/>
			<stop  offset="0.4145" style="stop-color:#007DC3"/>
			<stop  offset="0.4339" style="stop-color:#0096D4"/>
			<stop  offset="0.4537" style="stop-color:#44B5E8"/>
			<stop  offset="0.5734" style="stop-color:#FFFFFF"/>
		</linearGradient>
		<path class="st37" d="M496.54,97.24l-6.6,9.42l-2.24-8.38c-1.55,0.17-3.18,0.29-4.93,0.29c-2.11,0-4.81-0.2-7.62-0.45l-0.2-0.74
			l7.13,25.98h8.91l18.11-25.98l-1.44,2.07C503.66,98.85,499.95,97.25,496.54,97.24z"/>
	</g>
	<linearGradient id="SVGID_38_" gradientUnits="userSpaceOnUse" x1="340.0018" y1="49.783" x2="340.0018" y2="176.9079">
		<stop  offset="0.3014" style="stop-color:#0B001F"/>
		<stop  offset="0.3141" style="stop-color:#0D0222"/>
		<stop  offset="0.3274" style="stop-color:#100B2C"/>
		<stop  offset="0.3411" style="stop-color:#15183B"/>
		<stop  offset="0.3551" style="stop-color:#19274F"/>
		<stop  offset="0.3692" style="stop-color:#183968"/>
		<stop  offset="0.3835" style="stop-color:#084E86"/>
		<stop  offset="0.3976" style="stop-color:#0067AA"/>
		<stop  offset="0.4041" style="stop-color:#0075BD"/>
		<stop  offset="0.4145" style="stop-color:#007DC3"/>
		<stop  offset="0.4339" style="stop-color:#0096D4"/>
		<stop  offset="0.4537" style="stop-color:#44B5E8"/>
		<stop  offset="0.5734" style="stop-color:#FFFFFF"/>
	</linearGradient>
	<path class="st38" d="M352.37,96.57c-1.91-0.08-3.45-0.13-4.21-0.13c-2.21,0-12.36,2.76-12.36,2.76s-4.54-1.19-9.31-2.21
		l-0.15,2.61h16.5l-5.05,23.75h11.13l4.6-21.52c0.05-0.25,0.09-0.49,0.11-0.74c0.02-0.25,0.04-0.47,0.04-0.67
		c0-1.73-0.56-3.17-1.67-4.3C352.14,96.26,352.25,96.42,352.37,96.57z"/>
</g>
</svg>
