<?xml version="1.0" encoding="utf-8"?>
<!-- Generator: Adobe Illustrator 24.3.0, SVG Export Plug-In . SVG Version: 6.00 Build 0)  -->
<svg version="1.1" id="Layer_1" xmlns="http://www.w3.org/2000/svg" xmlns:xlink="http://www.w3.org/1999/xlink" x="0px" y="0px"
	 viewBox="0 0 74.3 123" style="enable-background:new 0 0 74.3 123;" xml:space="preserve">
<style type="text/css">
	.st0{fill:#FFFFFF;}
</style>
<g>
	<ellipse transform="matrix(0.3827 -0.9239 0.9239 0.3827 -8.8964 31.9834)" class="st0" cx="19.5" cy="22.6" rx="4.9" ry="4.9"/>
	<circle class="st0" cx="25.5" cy="32.8" r="4.9"/>
	<circle class="st0" cx="37" cy="32.8" r="4.9"/>
	<ellipse transform="matrix(0.7071 -0.7071 0.7071 0.7071 -8.7704 44.105)" class="st0" cx="48.9" cy="32.6" rx="4.9" ry="4.9"/>
	<circle class="st0" cx="43" cy="43" r="4.9"/>
	<ellipse transform="matrix(0.9732 -0.2298 0.2298 0.9732 -9.0424 8.3376)" class="st0" cx="31.3" cy="43" rx="4.9" ry="4.9"/>
	<ellipse transform="matrix(0.9732 -0.2298 0.2298 0.9732 -3.6821 13.1723)" class="st0" cx="54.7" cy="22.4" rx="4.9" ry="4.9"/>
	<ellipse transform="matrix(0.3827 -0.9239 0.9239 0.3827 -26.3533 67.2587)" class="st0" cx="37.2" cy="53.3" rx="4.9" ry="4.9"/>
	<ellipse transform="matrix(0.9732 -0.2298 0.2298 0.9732 -19.2471 10.8927)" class="st0" cx="37.2" cy="88.1" rx="4.9" ry="4.9"/>
	<ellipse transform="matrix(0.9732 -0.2298 0.2298 0.9732 -4.3732 7.7387)" class="st0" cx="31" cy="22.6" rx="4.9" ry="4.9"/>
	<ellipse transform="matrix(0.9871 -0.1602 0.1602 0.9871 -3.056 7.1587)" class="st0" cx="42.9" cy="22.5" rx="4.9" ry="4.9"/>
	<path class="st0" d="M67.3,0H7C3.2,0,0,3.2,0,7v108.9c0,3.9,3.2,7,7,7h60.2c3.9,0,7-3.2,7-7V7C74.3,3.2,71.1,0,67.3,0z M66.6,70.6
		c0.6,0,1.2-0.1,1.7-0.3v39.5c-0.9-0.7-2-1.2-3.2-1.2c-2.8,0-5.1,2.3-5.1,5.1c0,1.3,0.5,2.4,1.3,3.3H12.7c0.8-0.9,1.3-2.1,1.3-3.3
		c0-2.8-2.3-5.1-5.1-5.1c-1.1,0-2.1,0.3-2.9,0.9V70.4c0.5,0.1,0.9,0.2,1.4,0.2c2.8,0,5.1-2.3,5.1-5.1s-2.3-5.1-5.1-5.1
		c-0.5,0-1,0.1-1.4,0.2V12.1c0.9,0.7,1.9,1.1,3.1,1.1c2.8,0,5.1-2.3,5.1-5.1c0-0.7-0.2-1.4-0.4-2.1h46.9c-0.3,0.6-0.4,1.3-0.4,2.1
		c0,2.8,2.3,5.1,5.1,5.1c1.2,0,2.2-0.4,3.1-1.1v48.7c-0.5-0.2-1.1-0.3-1.7-0.3c-2.8,0-5.1,2.3-5.1,5.1S63.8,70.6,66.6,70.6z"/>
</g>
</svg>
