<?xml version="1.0" encoding="utf-8"?>
<!-- Generator: Adobe Illustrator 23.0.2, SVG Export Plug-In . SVG Version: 6.00 Build 0)  -->
<svg version="1.1" id="Layer_1" xmlns="http://www.w3.org/2000/svg" xmlns:xlink="http://www.w3.org/1999/xlink" x="0px" y="0px"
	 viewBox="0 0 113.8 113.8" style="enable-background:new 0 0 113.8 113.8;" xml:space="preserve">
<style type="text/css">
	.st0{fill:#FFFFFF;}
</style>
<g>
	<path class="st0" d="M56.9,113.8C25.5,113.8,0,88.3,0,56.9S25.5,0,56.9,0s56.9,25.5,56.9,56.9S88.3,113.8,56.9,113.8z M56.9,6
		C28.8,6,6,28.8,6,56.9s22.8,50.9,50.9,50.9s50.9-22.8,50.9-50.9S85,6,56.9,6z"/>
</g>
<g>
	<path class="st0" d="M56.9,103.4c-25.7,0-46.5-20.9-46.5-46.5s20.9-46.5,46.5-46.5s46.5,20.9,46.5,46.5S82.6,103.4,56.9,103.4z
		 M56.9,14.4c-23.5,0-42.5,19.1-42.5,42.5s19.1,42.5,42.5,42.5s42.5-19.1,42.5-42.5S80.4,14.4,56.9,14.4z"/>
</g>
<g>
	<path class="st0" d="M52.1,88.4c-1-0.9-1.5-2.1-1.5-3.6V39.3H36.4c-1.2,0-2.2-0.4-2.9-1.2c-0.7-0.8-1.1-1.8-1.1-2.8s0.4-2,1.1-2.8
		c0.7-0.8,1.7-1.2,2.9-1.2h38.5c1.2,0,2.2,0.4,2.9,1.2c0.7,0.8,1,1.8,1,2.8s-0.3,2-1,2.8c-0.7,0.8-1.6,1.2-2.9,1.2H60.7v45.5
		c0,1.5-0.5,2.8-1.5,3.6s-2.2,1.3-3.6,1.3C54.2,89.7,53.1,89.3,52.1,88.4z"/>
</g>
</svg>
