<?xml version="1.0" encoding="utf-8"?>
<!-- Generator: Adobe Illustrator 23.0.2, SVG Export Plug-In . SVG Version: 6.00 Build 0)  -->
<svg version="1.1" id="Layer_1" xmlns="http://www.w3.org/2000/svg" xmlns:xlink="http://www.w3.org/1999/xlink" x="0px" y="0px"
	 viewBox="0 0 528.2 125.3" style="enable-background:new 0 0 528.2 125.3;" xml:space="preserve">
<style type="text/css">
	.st0{fill:url(#SVGID_1_);}
	.st1{fill:url(#SVGID_2_);}
	.st2{fill:url(#SVGID_3_);}
	.st3{fill:url(#SVGID_4_);}
	.st4{fill:url(#SVGID_5_);}
	.st5{fill:url(#SVGID_6_);}
	.st6{fill:url(#SVGID_7_);}
	.st7{fill:url(#SVGID_8_);}
	.st8{fill:url(#SVGID_9_);}
	.st9{fill:url(#SVGID_10_);}
	.st10{fill:url(#SVGID_11_);}
	.st11{fill:url(#SVGID_12_);}
</style>
<g>
	<g>
		<linearGradient id="SVGID_1_" gradientUnits="userSpaceOnUse" x1="160.8599" y1="4.2788" x2="157.8854" y2="42.9473">
			<stop  offset="0" style="stop-color:#EB75AB"/>
			<stop  offset="1" style="stop-color:#EA4D86"/>
		</linearGradient>
		<path class="st0" d="M173.81,32.34c0.02,0.02,0.01,0.06-0.03,0.1c-0.11,0.09-0.22,0.16-0.35,0.23c-0.12,0.07-0.24,0.13-0.35,0.2
			c-0.85,0.37-1.71,0.75-2.56,1.13c-0.86,0.38-1.71,0.76-2.56,1.13c-1.27,0.53-2.54,1.04-3.81,1.53c-1.27,0.49-2.55,0.97-3.85,1.43
			c-2.06,0.77-4.14,1.49-6.23,2.17c-2.09,0.68-4.23,1.19-6.39,1.54c-0.37,0.07-0.8,0.12-1.28,0.16c-0.48,0.04-0.96,0.03-1.43-0.03
			c-0.47-0.07-0.89-0.21-1.25-0.44c-0.36-0.23-0.59-0.6-0.67-1.1c-0.11-0.53-0.02-1.06,0.26-1.59c0.28-0.54,0.56-1.02,0.82-1.46
			c0.79-1.25,1.64-2.45,2.56-3.6c0.92-1.15,1.85-2.28,2.8-3.4c1.88-2.26,3.8-4.47,5.74-6.62c1.94-2.16,3.92-4.31,5.93-6.46
			c1.95-2.1,3.91-4.16,5.88-6.18c0.81-0.83,1.62-1.66,2.43-2.48c0.81-0.82,1.64-1.62,2.5-2.38c0.02-0.02,0.1-0.09,0.25-0.21
			c0.14-0.12,0.3-0.25,0.48-0.38c0.18-0.13,0.33-0.24,0.48-0.31c0.14-0.08,0.22-0.08,0.25-0.02c0.04,0.09,0.03,0.19-0.05,0.31
			c-0.08,0.12-0.14,0.21-0.18,0.28c-0.75,1.21-1.57,2.36-2.47,3.47s-1.8,2.2-2.7,3.27c-1.84,2.26-3.7,4.47-5.57,6.64
			c-1.87,2.17-3.77,4.35-5.67,6.54c-0.99,1.14-1.96,2.27-2.93,3.39c-0.97,1.12-1.94,2.26-2.93,3.42c-0.5,0.57-0.99,1.15-1.46,1.73
			c-0.47,0.58-0.94,1.17-1.4,1.76c-0.46,0.57-0.91,1.15-1.35,1.74c-0.44,0.59-0.83,1.21-1.18,1.84c1.38,0,2.73-0.15,4.06-0.44
			c1.33-0.3,2.65-0.61,3.96-0.94c1.32-0.33,2.61-0.69,3.9-1.07c1.28-0.38,2.58-0.76,3.9-1.13c1.77-0.53,3.54-1.08,5.31-1.68
			c1.76-0.59,3.53-1.14,5.31-1.64c0.02,0,0.13-0.03,0.33-0.1c0.2-0.07,0.41-0.13,0.62-0.2c0.22-0.07,0.42-0.11,0.59-0.15
			C173.69,32.29,173.79,32.3,173.81,32.34z"/>
		<linearGradient id="SVGID_2_" gradientUnits="userSpaceOnUse" x1="161.0486" y1="1.7965" x2="157.6921" y2="45.4302">
			<stop  offset="0" style="stop-color:#EB75AB"/>
			<stop  offset="1" style="stop-color:#EA4D86"/>
		</linearGradient>
		<path class="st1" d="M145.82,44.49c-0.4,0-0.81-0.03-1.2-0.08c-0.82-0.11-1.58-0.39-2.24-0.81c-0.67-0.42-1.53-1.25-1.79-2.78
			c-0.21-1.01-0.04-2.14,0.52-3.19c0.31-0.58,0.6-1.11,0.89-1.58c0.86-1.36,1.78-2.65,2.75-3.87c0.94-1.17,1.88-2.32,2.84-3.45
			c1.88-2.26,3.83-4.51,5.79-6.68c1.94-2.16,3.95-4.35,5.97-6.5c1.94-2.09,3.94-4.19,5.92-6.22c0.81-0.83,1.62-1.66,2.44-2.49
			c0.84-0.85,1.72-1.69,2.61-2.49h0c0.07-0.06,0.17-0.15,0.3-0.26c0.17-0.15,0.37-0.31,0.59-0.47c0.27-0.21,0.53-0.37,0.79-0.51
			c1.03-0.55,1.89-0.34,2.32-0.17c0.57,0.23,1.06,0.69,1.34,1.25l0,0c0.43,0.87,0.36,1.9-0.18,2.75l-0.21,0.32
			c-0.76,1.22-1.65,2.48-2.61,3.66c-0.91,1.12-1.81,2.22-2.72,3.3c-1.82,2.23-3.71,4.49-5.6,6.67c-1.88,2.17-3.77,4.36-5.68,6.55
			l-2.92,3.38c-0.96,1.11-1.93,2.25-2.91,3.4c-0.52,0.58-0.98,1.13-1.43,1.68c-0.12,0.15-0.24,0.29-0.36,0.44
			c0.64-0.15,1.28-0.31,1.91-0.47c1.25-0.31,2.53-0.66,3.78-1.04c1.29-0.39,2.6-0.77,3.93-1.14c1.69-0.5,3.45-1.06,5.2-1.64
			c1.78-0.6,3.6-1.16,5.42-1.68c0.04-0.01,0.07-0.02,0.11-0.03l0.11-0.04c0.23-0.08,0.46-0.15,0.7-0.22c0.32-0.1,0.6-0.16,0.85-0.21
			c1.28-0.24,2.2,0.26,2.71,0.92c0.8,1.01,0.72,2.46-0.23,3.4c-0.07,0.07-0.14,0.13-0.21,0.19c-0.23,0.18-0.47,0.34-0.71,0.47
			c-0.08,0.04-0.16,0.09-0.25,0.14c-0.09,0.06-0.19,0.11-0.29,0.15c-0.85,0.37-1.69,0.74-2.54,1.12c-0.86,0.39-1.73,0.77-2.59,1.14
			c-1.33,0.55-2.62,1.07-3.91,1.57c-1.29,0.5-2.6,0.99-3.91,1.46c-2.07,0.77-4.2,1.51-6.3,2.19c-2.21,0.72-4.49,1.27-6.77,1.63
			c-0.4,0.07-0.89,0.14-1.45,0.19C146.35,44.48,146.09,44.49,145.82,44.49z"/>
	</g>
	<g>
		<linearGradient id="SVGID_3_" gradientUnits="userSpaceOnUse" x1="200.0478" y1="5.6728" x2="197.2195" y2="42.4402">
			<stop  offset="0" style="stop-color:#EB75AB"/>
			<stop  offset="1" style="stop-color:#EA4D86"/>
		</linearGradient>
		<path class="st2" d="M214.42,11.76c0.09,1.29-0.06,2.64-0.43,4.04c-0.37,1.4-0.88,2.78-1.53,4.14c-0.65,1.36-1.38,2.66-2.19,3.91
			c-0.81,1.25-1.6,2.38-2.37,3.39c-0.88,1.18-1.8,2.3-2.78,3.35c-0.97,1.05-1.99,2.07-3.04,3.06c-0.9,0.85-1.86,1.72-2.89,2.58
			c-1.03,0.86-2.11,1.66-3.24,2.38c-1.13,0.72-2.29,1.35-3.48,1.87c-1.19,0.53-2.4,0.89-3.63,1.08c-0.77,0.13-1.53,0.14-2.28,0.02
			c-0.76-0.12-1.45-0.42-2.09-0.9c-0.53-0.46-0.92-0.99-1.17-1.59c-0.25-0.6-0.41-1.24-0.48-1.92c-0.07-0.68-0.06-1.37,0.02-2.07
			c0.08-0.7,0.19-1.38,0.35-2.04c0.35-1.45,0.83-2.85,1.45-4.23c0.61-1.37,1.3-2.68,2.07-3.93c0.79-1.25,1.64-2.44,2.56-3.58
			c0.92-1.14,1.91-2.19,2.96-3.16c0.92-0.94,1.88-1.81,2.88-2.6c1-0.79,2.05-1.49,3.17-2.1c0.53-0.24,1.08-0.48,1.66-0.72
			c0.58-0.24,1.17-0.42,1.76-0.53c0.11-0.02,0.23-0.04,0.36-0.05c0.13-0.01,0.24,0.01,0.33,0.05c0.09,0.04,0.06,0.11-0.08,0.18
			c-0.14,0.08-0.22,0.14-0.25,0.18c-0.24,0.13-0.47,0.25-0.67,0.36c-0.21,0.11-0.43,0.23-0.67,0.36c-1.07,0.64-2.1,1.36-3.09,2.17
			c-0.99,0.81-1.93,1.69-2.83,2.63c-0.99,0.99-1.92,2.03-2.81,3.14c-0.89,1.11-1.72,2.26-2.48,3.47c-0.83,1.18-1.61,2.42-2.33,3.72
			c-0.72,1.29-1.36,2.66-1.91,4.11c-0.22,0.57-0.42,1.22-0.61,1.94c-0.19,0.72-0.27,1.44-0.26,2.14c0.01,0.7,0.16,1.34,0.44,1.91
			c0.28,0.57,0.79,0.96,1.51,1.18c0.7,0.24,1.42,0.28,2.15,0.13c0.73-0.15,1.43-0.37,2.09-0.66c1.16-0.5,2.25-1.12,3.27-1.86
			c1.02-0.73,2.01-1.53,2.98-2.38c1.4-1.18,2.87-2.53,4.39-4.03c1.52-1.5,3-3.11,4.44-4.82c1.44-1.71,2.75-3.5,3.95-5.38
			c1.19-1.87,2.16-3.79,2.91-5.74c0.2-0.48,0.37-1.01,0.51-1.58c0.14-0.57,0.22-1.13,0.23-1.69c0.01-0.56-0.07-1.1-0.25-1.61
			c-0.18-0.51-0.47-0.97-0.89-1.36c-0.55-0.48-1.15-0.81-1.81-0.97c-0.66-0.16-1.33-0.24-2.01-0.21c-0.68,0.04-1.35,0.14-2.02,0.3
			c-0.67,0.15-1.32,0.35-1.96,0.59c-1.25,0.37-2.46,0.83-3.63,1.38s-2.32,1.17-3.44,1.87c-1.1,0.7-2.11,1.46-3.04,2.27
			c-0.93,0.81-1.88,1.66-2.84,2.53c-0.07,0.04-0.14,0.09-0.21,0.15c-0.08,0.06-0.15,0.09-0.21,0.12c-0.09,0.02-0.1-0.02-0.05-0.13
			c0.05-0.11,0.08-0.18,0.08-0.2c0.44-0.83,0.97-1.62,1.61-2.37c0.64-0.75,1.28-1.44,1.94-2.07c0.99-0.96,2.04-1.81,3.17-2.55
			c1.13-0.73,2.32-1.36,3.57-1.89c1.25-0.5,2.54-0.87,3.88-1.1s2.66-0.25,3.98-0.05c0.64,0.11,1.27,0.27,1.91,0.49
			c0.64,0.22,1.21,0.58,1.71,1.08c0.5,0.48,0.89,1.05,1.17,1.71C214.18,10.35,214.35,11.04,214.42,11.76z"/>
		<linearGradient id="SVGID_4_" gradientUnits="userSpaceOnUse" x1="200.2385" y1="3.1894" x2="197.0281" y2="44.9237">
			<stop  offset="0" style="stop-color:#EB75AB"/>
			<stop  offset="1" style="stop-color:#EA4D86"/>
		</linearGradient>
		<path class="st3" d="M187.65,44.17c-0.49,0-0.99-0.04-1.48-0.12c-1.17-0.19-2.24-0.65-3.2-1.38c-0.05-0.04-0.09-0.07-0.13-0.11
			c-0.81-0.71-1.43-1.56-1.83-2.51c-0.35-0.82-0.57-1.71-0.66-2.64c-0.08-0.85-0.08-1.72,0.02-2.58c0.09-0.8,0.22-1.59,0.4-2.33
			c0.39-1.6,0.92-3.17,1.6-4.68c0.66-1.47,1.41-2.89,2.22-4.21c0.85-1.35,1.77-2.64,2.75-3.84c0.46-0.57,0.95-1.13,1.44-1.67
			c-0.48-0.74-0.53-1.69-0.13-2.53c0.04-0.1,0.08-0.2,0.13-0.3c0.52-0.99,1.17-1.94,1.92-2.83c0.68-0.79,1.38-1.55,2.1-2.24
			c1.09-1.07,2.29-2.03,3.55-2.85c1.25-0.81,2.58-1.52,3.96-2.1c1.44-0.58,2.92-1,4.42-1.26c1.59-0.27,3.19-0.29,4.77-0.06
			c0.82,0.14,1.59,0.34,2.35,0.6c1,0.35,1.89,0.91,2.66,1.68c0.71,0.68,1.3,1.54,1.7,2.51c0.37,0.89,0.6,1.83,0.69,2.8
			c0,0.02,0,0.04,0,0.06c0.1,1.56-0.07,3.19-0.51,4.85c-0.41,1.54-0.98,3.08-1.69,4.57c-0.69,1.45-1.48,2.86-2.35,4.2
			c-0.84,1.3-1.67,2.49-2.47,3.54c-0.91,1.23-1.9,2.43-2.94,3.54c-1,1.08-2.07,2.15-3.16,3.18c-0.93,0.88-1.94,1.78-3,2.67
			c-1.11,0.93-2.29,1.8-3.5,2.57c-1.23,0.79-2.52,1.48-3.82,2.06c-1.39,0.61-2.81,1.03-4.24,1.26
			C188.71,44.13,188.18,44.17,187.65,44.17z M187.01,37.31c0.02,0,0.03,0.01,0.06,0.02c0.36,0.12,0.63,0.14,0.92,0.08
			c0.56-0.12,1.1-0.29,1.6-0.51c0.99-0.43,1.94-0.97,2.81-1.59c0.94-0.68,1.88-1.43,2.78-2.23c1.4-1.18,2.83-2.49,4.29-3.94
			c1.46-1.44,2.9-3,4.28-4.64c1.36-1.62,2.62-3.34,3.75-5.11c1.1-1.72,2-3.5,2.68-5.29c0.17-0.43,0.31-0.84,0.42-1.29
			c0.1-0.39,0.15-0.77,0.16-1.14c0.01-0.27-0.03-0.52-0.11-0.76c-0.04-0.13-0.12-0.24-0.24-0.36c-0.18-0.16-0.43-0.29-0.7-0.36
			c-0.43-0.11-0.87-0.16-1.32-0.14c-0.46,0.03-1.01,0.11-1.54,0.23c-0.55,0.13-1.1,0.29-1.63,0.49c-0.05,0.02-0.11,0.04-0.17,0.06
			c-0.16,0.05-0.32,0.1-0.49,0.15c0.23,0.39,0.37,0.83,0.37,1.28c0.01,0.92-0.47,1.74-1.28,2.24c-0.12,0.1-0.25,0.19-0.39,0.27
			c-0.25,0.14-0.49,0.26-0.7,0.38c-0.2,0.1-0.41,0.22-0.64,0.34c-0.88,0.52-1.82,1.18-2.71,1.91c-0.9,0.74-1.78,1.56-2.61,2.42
			c-0.96,0.96-1.84,1.95-2.67,2.98c-0.82,1.03-1.61,2.12-2.33,3.25c-0.02,0.03-0.04,0.06-0.06,0.09c-0.78,1.1-1.52,2.28-2.2,3.5
			c-0.66,1.18-1.25,2.45-1.75,3.77c-0.19,0.5-0.37,1.06-0.52,1.68c-0.13,0.51-0.19,1-0.18,1.47
			C186.88,36.86,186.92,37.1,187.01,37.31z M188.48,16.43C188.48,16.43,188.48,16.43,188.48,16.43
			C188.48,16.43,188.48,16.43,188.48,16.43z M188.48,16.42C188.48,16.42,188.48,16.42,188.48,16.42
			C188.48,16.42,188.48,16.42,188.48,16.42z M188.48,16.42C188.48,16.42,188.48,16.42,188.48,16.42
			C188.48,16.42,188.48,16.42,188.48,16.42z M189.73,14.6c-0.01,0.01-0.02,0.02-0.03,0.02L189.73,14.6z M204.29,13.68L204.29,13.68
			L204.29,13.68z"/>
	</g>
	<g>
		<linearGradient id="SVGID_5_" gradientUnits="userSpaceOnUse" x1="238.5575" y1="0.5014" x2="234.8019" y2="49.324">
			<stop  offset="0" style="stop-color:#EB75AB"/>
			<stop  offset="1" style="stop-color:#EA4D86"/>
		</linearGradient>
		<path class="st4" d="M264.42,2.49c0.09,0.02,0.12,0.06,0.1,0.1c-0.02,0.04-0.06,0.09-0.11,0.13c-0.06,0.04-0.12,0.08-0.18,0.11
			c-0.07,0.03-0.11,0.06-0.13,0.08c-0.83,0.42-1.53,0.94-2.1,1.58c-0.86,0.83-1.76,1.74-2.73,2.71c-0.96,0.98-1.96,1.99-2.98,3.06
			s-2.04,2.15-3.07,3.25c-1.03,1.11-2.04,2.2-3.02,3.27c-0.99,1.07-1.95,2.12-2.88,3.14c-0.93,1.02-1.79,1.97-2.58,2.84
			c-1.12,1.25-2.21,2.5-3.29,3.75c-1.07,1.25-2.17,2.5-3.29,3.75c-0.42,0.46-0.93,1.05-1.54,1.78c-0.61,0.72-1.26,1.45-1.92,2.19
			c-0.67,0.73-1.35,1.42-2.04,2.07c-0.69,0.65-1.33,1.13-1.92,1.46c-0.18,0.11-0.35,0.14-0.53,0.08c-0.18-0.05-0.35-0.15-0.53-0.28
			c-0.33-0.39-0.53-0.99-0.59-1.78c-0.07-0.79-0.05-1.62,0.03-2.5c0.09-0.88,0.21-1.73,0.38-2.56c0.16-0.83,0.3-1.5,0.41-2.01
			c0.42-1.8,0.89-3.56,1.43-5.29c0.54-1.73,1.13-3.45,1.79-5.16l-0.03,0.03c-1.25,1.25-2.46,2.53-3.62,3.85
			c-1.16,1.31-2.32,2.65-3.48,4.01c-2.41,2.78-4.78,5.6-7.12,8.45c-2.33,2.85-4.59,5.78-6.76,8.78c-0.37,0.57-0.77,1.11-1.2,1.61
			c-0.43,0.5-0.85,1.04-1.27,1.61c-0.11,0.11-0.22,0.25-0.35,0.43c-0.12,0.18-0.25,0.27-0.38,0.3c-0.09,0-0.11-0.08-0.07-0.23
			c0.04-0.15,0.11-0.33,0.21-0.54c0.1-0.21,0.2-0.41,0.31-0.61c0.11-0.2,0.19-0.33,0.23-0.39c0.64-1.18,1.32-2.35,2.05-3.48
			c0.73-1.14,1.47-2.27,2.22-3.39c1.56-2.32,3.17-4.58,4.83-6.77c1.66-2.19,3.37-4.36,5.13-6.51c1.21-1.42,2.42-2.83,3.63-4.21
			c1.22-1.38,2.46-2.75,3.73-4.11c0.64-0.64,1.25-1.29,1.84-1.97c0.59-0.68,1.24-1.34,1.94-1.97c0.24-0.22,0.53-0.42,0.85-0.61
			c0.33-0.19,0.67-0.19,1.02-0.02c0.33,0.24,0.49,0.56,0.49,0.95c0,0.22-0.04,0.42-0.13,0.61c-0.09,0.19-0.18,0.38-0.26,0.57
			c-0.83,1.67-1.59,3.36-2.28,5.08c-0.69,1.72-1.35,3.46-1.99,5.21c-0.31,0.9-0.61,1.79-0.9,2.66s-0.56,1.76-0.81,2.66
			c-0.24,0.9-0.46,1.79-0.66,2.66c-0.2,0.88-0.35,1.76-0.46,2.66c0.88-0.59,1.67-1.27,2.38-2.02c0.71-0.76,1.43-1.53,2.15-2.32
			c1.91-2.06,3.75-4.14,5.54-6.25c1.79-2.1,3.61-4.22,5.47-6.35c0.64-0.68,1.41-1.48,2.33-2.42c0.92-0.93,1.87-1.88,2.86-2.84
			c0.99-0.96,1.95-1.9,2.89-2.81c0.94-0.91,1.75-1.67,2.43-2.29c0.68-0.64,1.36-1.24,2.05-1.82c0.69-0.58,1.4-1.16,2.12-1.73
			c0.64-0.5,1.31-0.96,2.04-1.38C262.87,2.96,263.63,2.67,264.42,2.49z"/>
		<linearGradient id="SVGID_6_" gradientUnits="userSpaceOnUse" x1="238.7458" y1="-1.9823" x2="234.6082" y2="51.8063">
			<stop  offset="0" style="stop-color:#EB75AB"/>
			<stop  offset="1" style="stop-color:#EA4D86"/>
		</linearGradient>
		<path class="st5" d="M208.93,49.82c-0.78,0-1.59-0.4-2.06-1.02c-0.29-0.39-0.74-1.22-0.4-2.39c0.08-0.29,0.2-0.59,0.36-0.93
			c0.12-0.25,0.25-0.5,0.38-0.75c0.1-0.18,0.19-0.33,0.25-0.43c0.65-1.21,1.37-2.42,2.12-3.59c0.74-1.15,1.49-2.29,2.24-3.42
			c1.59-2.37,3.24-4.69,4.92-6.9c1.66-2.18,3.4-4.4,5.18-6.58c1.24-1.47,2.47-2.89,3.69-4.28c1.22-1.39,2.5-2.79,3.78-4.16
			c0.65-0.65,1.23-1.27,1.78-1.91c0.66-0.76,1.38-1.49,2.15-2.19c0.37-0.34,0.81-0.65,1.29-0.93c1.05-0.59,2.27-0.62,3.36-0.08
			c0.13,0.06,0.25,0.14,0.36,0.22c0.97,0.72,1.51,1.77,1.51,2.96c0,0.58-0.12,1.14-0.36,1.66c-0.09,0.19-0.17,0.36-0.24,0.53
			c-0.02,0.04-0.03,0.07-0.05,0.1c-0.8,1.6-1.54,3.24-2.2,4.89c-0.68,1.7-1.34,3.43-1.96,5.13l-0.58,1.71
			c1.22-1.36,2.42-2.73,3.59-4.11c1.78-2.09,3.63-4.24,5.5-6.37c0.7-0.75,1.5-1.58,2.43-2.53c0.93-0.94,1.89-1.9,2.89-2.87
			c0.99-0.97,1.96-1.91,2.91-2.82c0.96-0.93,1.8-1.71,2.49-2.34c0.67-0.62,1.39-1.27,2.12-1.88c0.71-0.6,1.44-1.19,2.18-1.78
			c0.72-0.57,1.51-1.11,2.33-1.58c0.94-0.54,1.94-0.93,2.97-1.16c0.38-0.09,0.78-0.08,1.17,0.02c0.79,0.2,1.42,0.73,1.74,1.44
			c0.31,0.68,0.29,1.51-0.04,2.19c-0.18,0.37-0.45,0.69-0.78,0.96c-0.17,0.13-0.33,0.24-0.5,0.34c-0.08,0.05-0.17,0.1-0.25,0.15
			c-0.56,0.28-1,0.61-1.37,1.01c-0.04,0.04-0.08,0.08-0.12,0.12c-0.84,0.82-1.74,1.72-2.7,2.68c-0.95,0.97-1.94,1.98-2.95,3.03
			c-1.01,1.05-2.03,2.13-3.05,3.23c-1.03,1.1-2.03,2.19-3.01,3.26c-0.99,1.07-1.94,2.12-2.87,3.13c-0.93,1.02-1.78,1.96-2.57,2.83
			c-1.1,1.23-2.19,2.47-3.25,3.7c-1.09,1.26-2.19,2.52-3.32,3.79c-0.41,0.46-0.91,1.03-1.5,1.73c-0.63,0.75-1.29,1.5-1.98,2.25
			c-0.71,0.78-1.44,1.52-2.18,2.21c-0.84,0.78-1.62,1.37-2.38,1.8c-0.78,0.46-1.67,0.57-2.52,0.3c-0.45-0.14-0.88-0.36-1.28-0.66
			c-0.15-0.12-0.29-0.25-0.42-0.4c-0.66-0.79-1.05-1.86-1.16-3.16c-0.08-0.94-0.07-1.93,0.04-2.95c0.09-0.95,0.23-1.89,0.41-2.8
			c0.16-0.81,0.29-1.46,0.4-1.97c-2.24,2.59-4.47,5.25-6.65,7.91c-2.28,2.78-4.51,5.67-6.63,8.61c-0.41,0.63-0.87,1.24-1.35,1.81
			c-0.39,0.46-0.78,0.95-1.15,1.47c-0.08,0.1-0.16,0.2-0.25,0.29c-0.01,0.01-0.03,0.04-0.06,0.08c-0.5,0.73-1.22,1.21-2.03,1.34
			C209.19,49.81,209.06,49.82,208.93,49.82z M207.25,45.62C207.25,45.63,207.25,45.63,207.25,45.62
			C207.25,45.63,207.25,45.63,207.25,45.62z M265.36,5.05C265.36,5.05,265.35,5.06,265.36,5.05C265.35,5.06,265.36,5.05,265.36,5.05
			z M265.85,4.68L265.85,4.68L265.85,4.68z M265.85,4.68C265.85,4.68,265.85,4.68,265.85,4.68C265.85,4.68,265.85,4.68,265.85,4.68z
			"/>
	</g>
	<g>
		<linearGradient id="SVGID_7_" gradientUnits="userSpaceOnUse" x1="278.1607" y1="6.5655" x2="275.3062" y2="43.6747">
			<stop  offset="0" style="stop-color:#EB75AB"/>
			<stop  offset="1" style="stop-color:#EA4D86"/>
		</linearGradient>
		<path class="st6" d="M296.87,8.8c1.18,0.59,2.12,1.39,2.79,2.4s0.92,2.24,0.72,3.68c-0.18,0.96-0.53,1.96-1.07,2.99
			c-0.54,1.03-1.17,2.04-1.91,3.02c-0.73,0.99-1.52,1.93-2.37,2.84c-0.84,0.91-1.64,1.74-2.38,2.48c-2.81,2.65-5.86,4.98-9.17,6.97
			c-3.31,1.99-6.78,3.68-10.42,5.06c-2.21,0.81-4.39,1.47-6.53,1.97c-2.14,0.5-4.09,0.89-5.87,1.15c-1.78,0.26-3.29,0.44-4.54,0.53
			c-1.25,0.09-2.08,0.12-2.5,0.1c-0.02,0-0.09-0.01-0.2-0.03s-0.23-0.05-0.36-0.08c-0.13-0.03-0.25-0.07-0.35-0.1
			c-0.1-0.03-0.15-0.07-0.15-0.11c-0.02-0.02,0.13-0.06,0.44-0.11c0.32-0.06,0.67-0.11,1.05-0.18c0.38-0.07,0.75-0.12,1.1-0.16
			c0.35-0.04,0.55-0.07,0.59-0.07c2.52-0.46,5.19-1.09,8-1.89s5.62-1.77,8.42-2.93c2.8-1.15,5.49-2.47,8.09-3.95
			c2.6-1.48,4.95-3.13,7.05-4.95c1.23-1.03,2.43-2.08,3.62-3.16c1.18-1.07,2.28-2.13,3.29-3.17c1.01-1.04,1.91-2.05,2.7-3.02
			c0.79-0.97,1.39-1.89,1.81-2.74c0.42-0.86,0.62-1.64,0.62-2.35c0-0.71-0.27-1.32-0.82-1.83c-0.66-0.55-1.58-0.95-2.76-1.2
			c-1.18-0.25-2.5-0.41-3.96-0.46c-1.46-0.05-3-0.02-4.62,0.1c-1.62,0.12-3.19,0.27-4.7,0.44c-1.51,0.18-2.91,0.37-4.19,0.58
			c-1.28,0.21-2.33,0.38-3.14,0.51c-1.82,0.31-3.56,0.64-5.23,1s-3.4,0.7-5.19,1c-0.04,0-0.09,0-0.15,0c-0.05,0-0.07-0.02-0.05-0.07
			c0.02-0.04,0.11-0.11,0.26-0.2c1.62-0.64,3.14-1.2,4.55-1.71c1.41-0.5,2.93-0.97,4.55-1.41c5.04-1.42,10.16-2.17,15.35-2.24
			c1.25,0,2.53,0.07,3.85,0.21C294.44,7.88,295.68,8.23,296.87,8.8z M264.06,33.76c-0.07-0.04-0.07-0.14-0.02-0.28
			c0.05-0.14,0.1-0.26,0.15-0.35c0.35-0.59,0.66-1.1,0.94-1.53c0.27-0.43,0.54-0.84,0.81-1.23c0.26-0.39,0.53-0.79,0.81-1.18
			c0.27-0.39,0.6-0.85,0.97-1.38c1.58-2.08,3.16-4.15,4.75-6.21c1.59-2.06,3.26-4.06,5.01-6.02c0.61-0.7,1.23-1.38,1.84-2.04
			s1.29-1.28,2.04-1.87c0.07-0.04,0.15-0.11,0.26-0.2c0.11-0.09,0.22-0.17,0.34-0.25c0.12-0.08,0.24-0.13,0.36-0.16
			s0.24-0.03,0.35,0.02c0.09,0.09,0.13,0.19,0.11,0.31c-0.01,0.12-0.04,0.25-0.1,0.38c-0.06,0.13-0.11,0.26-0.18,0.38
			c-0.07,0.12-0.11,0.21-0.13,0.28c-0.44,0.79-0.92,1.55-1.45,2.29s-1.11,1.52-1.74,2.35c-1.64,2.04-3.34,4.03-5.08,5.97
			s-3.47,3.9-5.18,5.87c-0.75,0.77-1.46,1.53-2.14,2.3c-0.68,0.77-1.4,1.54-2.17,2.3c-0.09,0.09-0.19,0.16-0.3,0.23
			C264.21,33.79,264.12,33.8,264.06,33.76z"/>
		<linearGradient id="SVGID_8_" gradientUnits="userSpaceOnUse" x1="278.3521" y1="4.0824" x2="275.1155" y2="46.1573">
			<stop  offset="0" style="stop-color:#EB75AB"/>
			<stop  offset="1" style="stop-color:#EA4D86"/>
		</linearGradient>
		<path class="st7" d="M253.93,44.5c-0.18,0-0.32,0-0.42-0.01v0c-0.12-0.01-0.3-0.03-0.55-0.07c-0.15-0.03-0.32-0.07-0.49-0.11
			c-0.2-0.05-0.37-0.1-0.52-0.15c-1.03-0.34-1.74-1.19-1.84-2.22c-0.04-0.35,0-0.71,0.11-1.05c0.48-1.46,1.87-1.69,2.39-1.78
			l1.05-0.18c0.42-0.07,0.83-0.13,1.22-0.18c0.21-0.03,0.39-0.05,0.53-0.06c2.4-0.44,4.99-1.05,7.7-1.82
			c2.72-0.77,5.46-1.72,8.15-2.83c2.69-1.11,5.31-2.39,7.8-3.81c2.45-1.39,4.69-2.96,6.66-4.67c1.21-1.02,2.4-2.06,3.57-3.12
			c1.13-1.02,2.19-2.05,3.17-3.06c0.95-0.99,1.81-1.95,2.55-2.86c0.67-0.82,1.17-1.59,1.51-2.27c0.29-0.61,0.37-1,0.37-1.23
			c-0.26-0.19-0.74-0.43-1.61-0.62c-1.04-0.22-2.23-0.36-3.54-0.41c-1.36-0.05-2.83-0.02-4.34,0.09c-0.76,0.06-1.51,0.12-2.25,0.19
			c-0.04,0.15-0.09,0.29-0.15,0.43c-0.09,0.22-0.19,0.43-0.3,0.62c0.02-0.04,0.04-0.1,0.05-0.14c-0.05,0.15-0.11,0.29-0.19,0.43
			c-0.48,0.87-1.02,1.72-1.6,2.53c-0.54,0.75-1.14,1.56-1.79,2.41c-1.71,2.12-3.44,4.16-5.21,6.12c-1.74,1.94-3.47,3.9-5.15,5.83
			c-0.03,0.04-0.06,0.07-0.1,0.1c-0.73,0.75-1.42,1.49-2.06,2.22c-0.71,0.8-1.47,1.61-2.27,2.41c-0.23,0.24-0.5,0.44-0.79,0.61
			c-0.93,0.56-2.07,0.54-2.94-0.06c-0.86-0.59-1.48-1.81-0.93-3.23c0.09-0.23,0.18-0.43,0.25-0.58c0.02-0.05,0.05-0.09,0.07-0.14
			c0.37-0.62,0.7-1.16,0.98-1.61c0.28-0.44,0.56-0.86,0.83-1.27c0.27-0.41,0.55-0.81,0.83-1.22c0.28-0.4,0.61-0.87,0.98-1.4
			c1.63-2.15,3.22-4.23,4.81-6.29c1.62-2.1,3.35-4.17,5.13-6.16c0.11-0.13,0.22-0.25,0.33-0.38l-0.38,0.06
			c-1.77,0.3-3.49,0.63-5.1,0.98c-1.68,0.36-3.46,0.71-5.3,1.02c-0.14,0.02-0.28,0.04-0.42,0.04h-0.15c-0.87,0-1.73-0.47-2.18-1.21
			s-0.48-1.71-0.09-2.48c0.3-0.62,0.82-0.98,1.24-1.22c0.11-0.06,0.22-0.12,0.33-0.16c1.62-0.63,3.17-1.22,4.62-1.74
			c1.47-0.52,3.06-1.02,4.74-1.47c5.2-1.47,10.58-2.25,15.97-2.32c0,0,0,0,0.01,0c1.36,0,2.74,0.08,4.14,0.23
			c1.59,0.17,3.13,0.61,4.56,1.3c0.01,0.01,0.02,0.01,0.03,0.02c1.57,0.78,2.83,1.87,3.75,3.24c1.03,1.53,1.41,3.35,1.13,5.41
			c0,0.04-0.01,0.07-0.02,0.11c-0.22,1.2-0.66,2.45-1.31,3.69c-0.6,1.15-1.31,2.27-2.12,3.36c-0.79,1.06-1.64,2.08-2.54,3.05
			c-0.87,0.93-1.68,1.78-2.45,2.55c-2.97,2.81-6.2,5.27-9.65,7.34c-3.42,2.06-7.06,3.83-10.82,5.26c-2.33,0.85-4.62,1.54-6.84,2.07
			c-2.2,0.52-4.25,0.92-6.08,1.19c-1.83,0.27-3.42,0.45-4.72,0.55C255.05,44.48,254.36,44.5,253.93,44.5z M253.51,39.43
			C253.51,39.43,253.51,39.43,253.51,39.43C253.51,39.43,253.51,39.43,253.51,39.43z M265.47,31.7
			C265.47,31.7,265.47,31.7,265.47,31.7C265.47,31.7,265.47,31.7,265.47,31.7z"/>
	</g>
	<g>
		<linearGradient id="SVGID_9_" gradientUnits="userSpaceOnUse" x1="318.5989" y1="5.6728" x2="315.7707" y2="42.4402">
			<stop  offset="0" style="stop-color:#EB75AB"/>
			<stop  offset="1" style="stop-color:#EA4D86"/>
		</linearGradient>
		<path class="st8" d="M332.97,11.76c0.09,1.29-0.06,2.64-0.43,4.04c-0.37,1.4-0.88,2.78-1.53,4.14c-0.65,1.36-1.38,2.66-2.19,3.91
			c-0.81,1.25-1.6,2.38-2.37,3.39c-0.88,1.18-1.8,2.3-2.78,3.35c-0.97,1.05-1.99,2.07-3.04,3.06c-0.9,0.85-1.86,1.72-2.89,2.58
			c-1.03,0.86-2.11,1.66-3.24,2.38c-1.13,0.72-2.29,1.35-3.48,1.87c-1.19,0.53-2.4,0.89-3.63,1.08c-0.77,0.13-1.53,0.14-2.28,0.02
			c-0.76-0.12-1.45-0.42-2.09-0.9c-0.53-0.46-0.92-0.99-1.17-1.59c-0.25-0.6-0.41-1.24-0.48-1.92c-0.07-0.68-0.06-1.37,0.02-2.07
			c0.08-0.7,0.19-1.38,0.35-2.04c0.35-1.45,0.83-2.85,1.45-4.23c0.61-1.37,1.3-2.68,2.07-3.93c0.79-1.25,1.64-2.44,2.56-3.58
			c0.92-1.14,1.91-2.19,2.96-3.16c0.92-0.94,1.88-1.81,2.88-2.6c1-0.79,2.05-1.49,3.17-2.1c0.53-0.24,1.08-0.48,1.66-0.72
			c0.58-0.24,1.17-0.42,1.76-0.53c0.11-0.02,0.23-0.04,0.36-0.05c0.13-0.01,0.24,0.01,0.33,0.05c0.09,0.04,0.06,0.11-0.08,0.18
			c-0.14,0.08-0.22,0.14-0.25,0.18c-0.24,0.13-0.47,0.25-0.67,0.36c-0.21,0.11-0.43,0.23-0.67,0.36c-1.07,0.64-2.1,1.36-3.09,2.17
			c-0.99,0.81-1.93,1.69-2.83,2.63c-0.99,0.99-1.92,2.03-2.81,3.14c-0.89,1.11-1.72,2.26-2.48,3.47c-0.83,1.18-1.61,2.42-2.33,3.72
			c-0.72,1.29-1.36,2.66-1.91,4.11c-0.22,0.57-0.42,1.22-0.61,1.94c-0.19,0.72-0.27,1.44-0.26,2.14c0.01,0.7,0.16,1.34,0.44,1.91
			c0.28,0.57,0.79,0.96,1.51,1.18c0.7,0.24,1.42,0.28,2.15,0.13c0.73-0.15,1.43-0.37,2.09-0.66c1.16-0.5,2.25-1.12,3.27-1.86
			c1.02-0.73,2.01-1.53,2.98-2.38c1.4-1.18,2.87-2.53,4.39-4.03c1.52-1.5,3-3.11,4.44-4.82c1.43-1.71,2.75-3.5,3.95-5.38
			c1.19-1.87,2.16-3.79,2.91-5.74c0.2-0.48,0.37-1.01,0.51-1.58c0.14-0.57,0.22-1.13,0.23-1.69c0.01-0.56-0.07-1.1-0.25-1.61
			c-0.18-0.51-0.47-0.97-0.89-1.36c-0.55-0.48-1.15-0.81-1.81-0.97c-0.66-0.16-1.33-0.24-2.01-0.21c-0.68,0.04-1.35,0.14-2.02,0.3
			c-0.67,0.15-1.32,0.35-1.96,0.59c-1.25,0.37-2.46,0.83-3.63,1.38s-2.32,1.17-3.44,1.87c-1.1,0.7-2.11,1.46-3.04,2.27
			c-0.93,0.81-1.88,1.66-2.84,2.53c-0.07,0.04-0.14,0.09-0.21,0.15c-0.08,0.06-0.15,0.09-0.21,0.12c-0.09,0.02-0.1-0.02-0.05-0.13
			s0.08-0.18,0.08-0.2c0.44-0.83,0.97-1.62,1.61-2.37c0.64-0.75,1.28-1.44,1.94-2.07c0.99-0.96,2.04-1.81,3.17-2.55
			c1.13-0.73,2.32-1.36,3.57-1.89c1.25-0.5,2.54-0.87,3.88-1.1c1.34-0.23,2.66-0.25,3.98-0.05c0.64,0.11,1.27,0.27,1.91,0.49
			c0.64,0.22,1.21,0.58,1.71,1.08c0.5,0.48,0.89,1.05,1.17,1.71C332.73,10.35,332.9,11.04,332.97,11.76z"/>
		<linearGradient id="SVGID_10_" gradientUnits="userSpaceOnUse" x1="318.7896" y1="3.1894" x2="315.5793" y2="44.9237">
			<stop  offset="0" style="stop-color:#EB75AB"/>
			<stop  offset="1" style="stop-color:#EA4D86"/>
		</linearGradient>
		<path class="st9" d="M306.2,44.17c-0.49,0-0.99-0.04-1.48-0.12c-1.17-0.19-2.24-0.65-3.2-1.38c-0.05-0.04-0.09-0.07-0.13-0.11
			c-0.81-0.71-1.43-1.56-1.83-2.51c-0.35-0.82-0.57-1.71-0.66-2.64c-0.08-0.85-0.08-1.72,0.02-2.58c0.09-0.8,0.22-1.59,0.4-2.33
			c0.39-1.6,0.92-3.17,1.6-4.68c0.66-1.47,1.41-2.89,2.22-4.21c0.85-1.35,1.77-2.64,2.75-3.84c0.46-0.57,0.95-1.13,1.44-1.67
			c-0.48-0.74-0.53-1.69-0.13-2.53c0.04-0.1,0.08-0.2,0.13-0.3c0.52-0.99,1.17-1.94,1.92-2.83c0.68-0.79,1.38-1.55,2.1-2.24
			c1.09-1.07,2.29-2.03,3.55-2.85c1.25-0.81,2.58-1.52,3.96-2.1c1.44-0.58,2.92-1,4.42-1.26c1.59-0.27,3.19-0.29,4.77-0.06
			c0.82,0.14,1.59,0.34,2.35,0.6c1,0.35,1.89,0.91,2.66,1.68c0.71,0.68,1.3,1.54,1.7,2.51c0.37,0.89,0.6,1.83,0.69,2.8
			c0,0.02,0,0.04,0,0.06c0.1,1.56-0.07,3.19-0.51,4.85c-0.41,1.54-0.98,3.08-1.69,4.57c-0.69,1.45-1.48,2.86-2.35,4.2
			c-0.84,1.3-1.67,2.49-2.47,3.54c-0.91,1.23-1.9,2.43-2.94,3.54c-1,1.08-2.07,2.15-3.16,3.18c-0.93,0.88-1.94,1.78-3,2.67
			c-1.11,0.93-2.29,1.8-3.5,2.57c-1.23,0.79-2.52,1.48-3.82,2.06c-1.39,0.61-2.81,1.03-4.24,1.26
			C307.26,44.13,306.73,44.17,306.2,44.17z M305.56,37.31c0.02,0,0.03,0.01,0.06,0.02c0.36,0.12,0.63,0.14,0.92,0.08
			c0.56-0.12,1.1-0.29,1.6-0.51c0.99-0.43,1.94-0.97,2.81-1.59c0.94-0.68,1.88-1.43,2.78-2.23c1.4-1.18,2.83-2.49,4.29-3.94
			c1.46-1.44,2.9-3,4.28-4.64c1.36-1.62,2.62-3.34,3.75-5.11c1.1-1.72,2-3.5,2.68-5.29c0.17-0.43,0.31-0.84,0.42-1.29
			c0.1-0.39,0.15-0.77,0.16-1.14c0.01-0.27-0.03-0.52-0.11-0.76c-0.04-0.13-0.12-0.24-0.24-0.36c-0.18-0.16-0.43-0.29-0.7-0.36
			c-0.43-0.11-0.87-0.16-1.32-0.14c-0.46,0.03-1.01,0.11-1.54,0.23c-0.55,0.13-1.1,0.29-1.63,0.49c-0.05,0.02-0.11,0.04-0.17,0.06
			c-0.16,0.05-0.32,0.1-0.49,0.15c0.23,0.39,0.37,0.83,0.37,1.28c0.01,0.92-0.47,1.74-1.28,2.24c-0.12,0.1-0.25,0.19-0.39,0.27
			c-0.25,0.14-0.49,0.26-0.7,0.38c-0.2,0.1-0.41,0.22-0.64,0.34c-0.88,0.52-1.82,1.18-2.71,1.91c-0.9,0.74-1.78,1.56-2.61,2.42
			c-0.96,0.96-1.84,1.95-2.67,2.98c-0.82,1.03-1.61,2.12-2.33,3.25c-0.02,0.03-0.04,0.06-0.06,0.09c-0.78,1.1-1.52,2.28-2.2,3.5
			c-0.66,1.18-1.25,2.45-1.75,3.77c-0.19,0.5-0.37,1.06-0.52,1.68c-0.13,0.51-0.19,1-0.18,1.47
			C305.43,36.86,305.47,37.1,305.56,37.31z M307.04,16.43C307.04,16.43,307.04,16.43,307.04,16.43
			C307.04,16.43,307.04,16.43,307.04,16.43z M307.04,16.42C307.04,16.42,307.04,16.42,307.04,16.42
			C307.04,16.42,307.04,16.42,307.04,16.42z M307.04,16.42C307.04,16.42,307.04,16.42,307.04,16.42
			C307.04,16.42,307.04,16.42,307.04,16.42z M308.28,14.6c-0.01,0.01-0.02,0.02-0.03,0.02L308.28,14.6z M322.84,13.68L322.84,13.68
			L322.84,13.68z"/>
	</g>
	<g>
		<linearGradient id="SVGID_11_" gradientUnits="userSpaceOnUse" x1="357.1077" y1="0.5014" x2="353.3521" y2="49.324">
			<stop  offset="0" style="stop-color:#EB75AB"/>
			<stop  offset="1" style="stop-color:#EA4D86"/>
		</linearGradient>
		<path class="st10" d="M382.97,2.49c0.09,0.02,0.12,0.06,0.1,0.1c-0.02,0.04-0.06,0.09-0.11,0.13c-0.06,0.04-0.12,0.08-0.18,0.11
			c-0.07,0.03-0.11,0.06-0.13,0.08c-0.83,0.42-1.53,0.94-2.1,1.58c-0.86,0.83-1.76,1.74-2.73,2.71c-0.96,0.98-1.96,1.99-2.98,3.06
			c-1.02,1.06-2.04,2.15-3.07,3.25c-1.03,1.11-2.04,2.2-3.02,3.27c-0.99,1.07-1.95,2.12-2.88,3.14c-0.93,1.02-1.79,1.97-2.58,2.84
			c-1.12,1.25-2.21,2.5-3.29,3.75c-1.07,1.25-2.17,2.5-3.29,3.75c-0.42,0.46-0.93,1.05-1.54,1.78c-0.61,0.72-1.26,1.45-1.92,2.19
			c-0.67,0.73-1.35,1.42-2.04,2.07c-0.69,0.65-1.33,1.13-1.92,1.46c-0.18,0.11-0.35,0.14-0.53,0.08c-0.18-0.05-0.35-0.15-0.53-0.28
			c-0.33-0.39-0.53-0.99-0.59-1.78c-0.07-0.79-0.05-1.62,0.03-2.5s0.21-1.73,0.38-2.56c0.16-0.83,0.3-1.5,0.41-2.01
			c0.42-1.8,0.89-3.56,1.43-5.29c0.54-1.73,1.13-3.45,1.79-5.16l-0.03,0.03c-1.25,1.25-2.46,2.53-3.62,3.85
			c-1.16,1.31-2.32,2.65-3.48,4.01c-2.41,2.78-4.78,5.6-7.12,8.45c-2.33,2.85-4.59,5.78-6.76,8.78c-0.37,0.57-0.77,1.11-1.2,1.61
			c-0.43,0.5-0.85,1.04-1.27,1.61c-0.11,0.11-0.22,0.25-0.35,0.43c-0.12,0.18-0.25,0.27-0.38,0.3c-0.09,0-0.11-0.08-0.07-0.23
			c0.04-0.15,0.11-0.33,0.21-0.54c0.1-0.21,0.2-0.41,0.31-0.61c0.11-0.2,0.19-0.33,0.23-0.39c0.64-1.18,1.32-2.35,2.05-3.48
			c0.73-1.14,1.47-2.27,2.22-3.39c1.56-2.32,3.17-4.58,4.83-6.77c1.66-2.19,3.37-4.36,5.13-6.51c1.21-1.42,2.42-2.83,3.63-4.21
			c1.22-1.38,2.46-2.75,3.73-4.11c0.64-0.64,1.25-1.29,1.84-1.97c0.59-0.68,1.24-1.34,1.94-1.97c0.24-0.22,0.53-0.42,0.85-0.61
			c0.33-0.19,0.67-0.19,1.02-0.02c0.33,0.24,0.49,0.56,0.49,0.95c0,0.22-0.04,0.42-0.13,0.61c-0.09,0.19-0.18,0.38-0.26,0.57
			c-0.83,1.67-1.59,3.36-2.28,5.08c-0.69,1.72-1.35,3.46-1.99,5.21c-0.31,0.9-0.61,1.79-0.9,2.66c-0.3,0.88-0.56,1.76-0.81,2.66
			c-0.24,0.9-0.46,1.79-0.66,2.66c-0.2,0.88-0.35,1.76-0.46,2.66c0.88-0.59,1.67-1.27,2.38-2.02c0.71-0.76,1.43-1.53,2.15-2.32
			c1.91-2.06,3.75-4.14,5.54-6.25c1.79-2.1,3.61-4.22,5.47-6.35c0.64-0.68,1.41-1.48,2.33-2.42c0.92-0.93,1.87-1.88,2.86-2.84
			c0.99-0.96,1.95-1.9,2.89-2.81c0.94-0.91,1.75-1.67,2.43-2.29c0.68-0.64,1.36-1.24,2.05-1.82c0.69-0.58,1.4-1.16,2.12-1.73
			c0.64-0.5,1.31-0.96,2.04-1.38C381.42,2.96,382.18,2.67,382.97,2.49z"/>
		<linearGradient id="SVGID_12_" gradientUnits="userSpaceOnUse" x1="357.296" y1="-1.9823" x2="353.1584" y2="51.8063">
			<stop  offset="0" style="stop-color:#EB75AB"/>
			<stop  offset="1" style="stop-color:#EA4D86"/>
		</linearGradient>
		<path class="st11" d="M327.48,49.82c-0.78,0-1.59-0.4-2.06-1.02c-0.29-0.39-0.74-1.22-0.4-2.39c0.08-0.29,0.2-0.59,0.36-0.93
			c0.12-0.25,0.25-0.5,0.38-0.75c0.1-0.18,0.19-0.33,0.25-0.43c0.65-1.21,1.37-2.42,2.12-3.59c0.74-1.15,1.49-2.29,2.24-3.42
			c1.59-2.37,3.24-4.69,4.92-6.9c1.66-2.18,3.4-4.4,5.18-6.58c1.24-1.47,2.47-2.89,3.69-4.28c1.22-1.39,2.5-2.79,3.78-4.16
			c0.65-0.65,1.23-1.27,1.78-1.91c0.66-0.76,1.38-1.49,2.15-2.19c0.37-0.34,0.81-0.65,1.29-0.93c1.05-0.59,2.27-0.62,3.36-0.08
			c0.13,0.06,0.25,0.14,0.36,0.22c0.97,0.72,1.51,1.77,1.51,2.96c0,0.58-0.12,1.14-0.36,1.66c-0.09,0.19-0.17,0.36-0.24,0.53
			c-0.02,0.04-0.03,0.07-0.05,0.1c-0.8,1.6-1.54,3.24-2.2,4.89c-0.68,1.7-1.34,3.43-1.96,5.13l-0.58,1.71
			c1.22-1.36,2.42-2.73,3.59-4.11c1.78-2.09,3.63-4.24,5.5-6.37c0.7-0.75,1.5-1.58,2.43-2.53c0.93-0.94,1.89-1.9,2.89-2.87
			c0.99-0.97,1.96-1.91,2.91-2.82c0.96-0.93,1.8-1.71,2.49-2.34c0.67-0.62,1.39-1.27,2.12-1.88c0.71-0.6,1.44-1.19,2.18-1.78
			c0.72-0.57,1.51-1.11,2.33-1.58c0.94-0.54,1.94-0.93,2.97-1.16c0.38-0.09,0.78-0.08,1.17,0.02c0.79,0.2,1.42,0.73,1.74,1.44
			c0.31,0.68,0.29,1.51-0.04,2.19c-0.18,0.37-0.45,0.69-0.78,0.96c-0.17,0.13-0.33,0.24-0.5,0.34c-0.08,0.05-0.17,0.1-0.25,0.15
			c-0.56,0.28-1,0.61-1.37,1.01c-0.04,0.04-0.08,0.08-0.12,0.12c-0.84,0.82-1.74,1.72-2.7,2.68c-0.95,0.97-1.94,1.98-2.95,3.03
			c-1.01,1.05-2.03,2.13-3.05,3.23c-1.03,1.1-2.03,2.19-3.01,3.26c-0.99,1.07-1.94,2.12-2.87,3.13c-0.93,1.02-1.78,1.96-2.57,2.83
			c-1.1,1.23-2.19,2.47-3.25,3.7c-1.09,1.26-2.19,2.52-3.32,3.79c-0.41,0.46-0.91,1.03-1.5,1.73c-0.63,0.75-1.29,1.5-1.98,2.25
			c-0.71,0.78-1.44,1.52-2.18,2.21c-0.84,0.78-1.62,1.37-2.38,1.8c-0.78,0.46-1.67,0.57-2.52,0.3c-0.45-0.14-0.88-0.36-1.28-0.66
			c-0.15-0.12-0.29-0.25-0.42-0.4c-0.66-0.79-1.05-1.86-1.16-3.16c-0.08-0.94-0.07-1.93,0.04-2.95c0.09-0.95,0.23-1.89,0.41-2.8
			c0.16-0.81,0.29-1.46,0.4-1.97c-2.24,2.59-4.47,5.25-6.65,7.91c-2.28,2.78-4.51,5.67-6.63,8.61c-0.41,0.63-0.87,1.24-1.35,1.81
			c-0.39,0.46-0.78,0.95-1.15,1.47c-0.08,0.1-0.16,0.2-0.25,0.29c-0.01,0.01-0.03,0.04-0.06,0.08c-0.5,0.73-1.22,1.21-2.03,1.34
			C327.74,49.81,327.61,49.82,327.48,49.82z M325.8,45.62C325.8,45.63,325.8,45.63,325.8,45.62C325.8,45.63,325.8,45.63,325.8,45.62
			z M383.91,5.05C383.91,5.05,383.9,5.06,383.91,5.05C383.9,5.06,383.91,5.05,383.91,5.05z M384.4,4.68L384.4,4.68L384.4,4.68z
			 M384.4,4.68C384.4,4.68,384.4,4.68,384.4,4.68C384.4,4.68,384.4,4.68,384.4,4.68z"/>
	</g>
</g>
</svg>
