<?xml version="1.0" encoding="utf-8"?>
<!-- Generator: Adobe Illustrator 24.3.0, SVG Export Plug-In . SVG Version: 6.00 Build 0)  -->
<svg version="1.1" id="Layer_1" xmlns="http://www.w3.org/2000/svg" xmlns:xlink="http://www.w3.org/1999/xlink" x="0px" y="0px"
	 viewBox="0 0 89.6 116.3" style="enable-background:new 0 0 89.6 116.3;" xml:space="preserve">
<style type="text/css">
	.st0{fill:#FFFFFF;}
</style>
<g>
	<path class="st0" d="M83.8,51.3l-6.7-0.2c-3.2-0.1-5.8,2.3-6,5.5l-0.3,4.5c-0.2,3.9,2.4,7.3,6.2,8l0,17.2c0,2.9-0.9,5.8-2.5,8.2
		l-9.9,14.7c-1,0.8-2.3,1.2-3.6,1c-1.4-0.2-2.7-0.9-3.5-2.1l-3.9-5.9l6.9-6.6c1.5-1.4,1.8-3.6,0.8-5.4l-9.7-17.7
		c3.6-2.9,10.6-9.3,10.6-15.3c0-4.9-2.8-9.5-4.8-12.2l24.2-22.9c3.5-3.3,3.7-8.9,0.3-12.4l-5-5.2c-5.5-5.8-14.7-6.1-20.5-0.6
		C32.9,26.2,4.2,53.3,2.1,55.7c-3.3,3.8-2,9-0.8,11.5L10,80.3c1,1.5,2.6,2.5,4.4,2.7c1.8,0.2,3.6-0.4,4.9-1.6l1.2-1.1l16.4,29.3
		c0.8,1.4,2.1,2.3,3.6,2.5c0.2,0,0.5,0.1,0.8,0.1c1.3,0,2.5-0.5,3.5-1.4l4.4-4.2l3.4,5c1.8,2.6,4.6,4.4,7.7,4.8
		c0.4,0,0.9,0.1,1.3,0.1c2.7,0,5.3-1,7.3-2.8l0.3-0.2l10.3-15.4c2.3-3.4,3.5-7.4,3.5-11.6l0-17l0.1,0c3.7-0.4,6.5-3.5,6.5-7.3l0-4.7
		C89.7,54,87.1,51.4,83.8,51.3z M48.8,67.3l-5-9.1c0,0,0-0.1,0-0.1l1.7-1.6l2.7,3.6c0.6,0.8,1.5,1.2,2.4,1.2c0.6,0,1.2-0.2,1.8-0.6
		c1.3-1,1.6-2.9,0.6-4.2l-3.1-4.2l3.2-3.1c1.5,2.2,3.1,5.2,3.2,8.1C56.3,59.9,52.4,64.2,48.8,67.3z M41.5,105.5L23.9,74.2
		c-0.5-0.8-1.3-1.4-2.2-1.6c-1-0.2-2,0.1-2.7,0.8L15.1,77L15,77L6.6,64.4c-0.3-0.6-1.3-3.2,0-4.7c1.5-1.7,21.7-20.9,54.1-51.3
		c3.4-3.2,8.8-3,12,0.3l5,5.2c1,1.1,1,2.8-0.1,3.9L51.4,42.6l-2.2,2.1l-9.5,9.1c-2,1.9-2.5,4.9-1.2,7.3l6.9,12.5l10.2,18.6
		L41.5,105.5z M83.6,62c0,0.7-0.5,1.3-1.2,1.3l-2.3,0.3l-1.9-0.4c-0.8-0.2-1.4-0.9-1.4-1.8l0.3-4.4l6.6,0.2L83.6,62z"/>
</g>
</svg>
