<?xml version="1.0" encoding="utf-8"?>
<!-- Generator: Adobe Illustrator 23.0.2, SVG Export Plug-In . SVG Version: 6.00 Build 0)  -->
<svg version="1.1" id="Layer_1" xmlns="http://www.w3.org/2000/svg" xmlns:xlink="http://www.w3.org/1999/xlink" x="0px" y="0px"
	 viewBox="0 0 528.2 125.3" style="enable-background:new 0 0 528.2 125.3;" xml:space="preserve">
<style type="text/css">
	.st0{fill:url(#SVGID_1_);}
	.st1{fill:url(#SVGID_2_);}
	.st2{fill:url(#SVGID_3_);}
	.st3{fill:url(#SVGID_4_);}
	.st4{fill:url(#SVGID_5_);}
	.st5{fill:url(#SVGID_6_);}
	.st6{fill:url(#SVGID_7_);}
	.st7{fill:url(#SVGID_8_);}
	.st8{fill:url(#SVGID_9_);}
	.st9{fill:url(#SVGID_10_);}
	.st10{fill:url(#SVGID_11_);}
	.st11{fill:url(#SVGID_12_);}
	.st12{fill:url(#SVGID_13_);}
	.st13{fill:url(#SVGID_14_);}
	.st14{fill:url(#SVGID_15_);}
	.st15{fill:url(#SVGID_16_);}
	.st16{fill:url(#SVGID_17_);}
	.st17{fill:url(#SVGID_18_);}
	.st18{fill:url(#SVGID_19_);}
	.st19{fill:url(#SVGID_20_);}
	.st20{fill:url(#SVGID_21_);}
	.st21{fill:url(#SVGID_22_);}
	.st22{fill:none;}
	.st23{fill:url(#SVGID_23_);}
	.st24{fill:url(#SVGID_24_);}
	.st25{fill:url(#SVGID_25_);}
	.st26{fill:url(#SVGID_26_);}
	.st27{fill:url(#SVGID_27_);}
	.st28{fill:url(#SVGID_28_);}
	.st29{fill:url(#SVGID_29_);}
	.st30{fill:url(#SVGID_30_);}
	.st31{fill:url(#SVGID_31_);}
	.st32{fill:url(#SVGID_32_);}
	.st33{fill:url(#SVGID_33_);}
	.st34{fill:url(#SVGID_34_);}
	.st35{fill:url(#SVGID_35_);}
	.st36{fill:url(#SVGID_36_);}
	.st37{fill:url(#SVGID_37_);}
	.st38{fill:url(#SVGID_38_);}
	.st39{fill:url(#SVGID_39_);}
	.st40{fill:url(#SVGID_40_);}
	.st41{fill:url(#SVGID_41_);}
	.st42{fill:url(#SVGID_42_);}
	.st43{fill:url(#SVGID_43_);}
	.st44{fill:url(#SVGID_44_);}
	.st45{fill:url(#SVGID_45_);}
	.st46{fill:url(#SVGID_46_);}
	.st47{fill:url(#SVGID_47_);}
	.st48{fill:url(#SVGID_48_);}
	.st49{fill:url(#SVGID_49_);}
	.st50{fill:url(#SVGID_50_);}
</style>
<g>
	<g>
		<linearGradient id="SVGID_1_" gradientUnits="userSpaceOnUse" x1="160.8599" y1="4.2788" x2="157.8854" y2="42.9473">
			<stop  offset="0" style="stop-color:#EB75AB"/>
			<stop  offset="1" style="stop-color:#EA4D86"/>
		</linearGradient>
		<path class="st0" d="M173.81,32.34c0.02,0.02,0.01,0.06-0.03,0.1c-0.11,0.09-0.22,0.16-0.35,0.23c-0.12,0.07-0.24,0.13-0.35,0.2
			c-0.85,0.37-1.71,0.75-2.56,1.13c-0.86,0.38-1.71,0.76-2.56,1.13c-1.27,0.53-2.54,1.04-3.81,1.53c-1.27,0.49-2.55,0.97-3.85,1.43
			c-2.06,0.77-4.14,1.49-6.23,2.17c-2.09,0.68-4.23,1.19-6.39,1.54c-0.37,0.07-0.8,0.12-1.28,0.16c-0.48,0.04-0.96,0.03-1.43-0.03
			c-0.47-0.07-0.89-0.21-1.25-0.44c-0.36-0.23-0.59-0.6-0.67-1.1c-0.11-0.53-0.02-1.06,0.26-1.59c0.28-0.54,0.56-1.02,0.82-1.46
			c0.79-1.25,1.64-2.45,2.56-3.6c0.92-1.15,1.85-2.28,2.8-3.4c1.88-2.26,3.8-4.47,5.74-6.62c1.94-2.16,3.92-4.31,5.93-6.46
			c1.95-2.1,3.91-4.16,5.88-6.18c0.81-0.83,1.62-1.66,2.43-2.48c0.81-0.82,1.64-1.62,2.5-2.38c0.02-0.02,0.1-0.09,0.25-0.21
			c0.14-0.12,0.3-0.25,0.48-0.38c0.18-0.13,0.33-0.24,0.48-0.31c0.14-0.08,0.22-0.08,0.25-0.02c0.04,0.09,0.03,0.19-0.05,0.31
			c-0.08,0.12-0.14,0.21-0.18,0.28c-0.75,1.21-1.57,2.36-2.47,3.47s-1.8,2.2-2.7,3.27c-1.84,2.26-3.7,4.47-5.57,6.64
			c-1.87,2.17-3.77,4.35-5.67,6.54c-0.99,1.14-1.96,2.27-2.93,3.39c-0.97,1.12-1.94,2.26-2.93,3.42c-0.5,0.57-0.99,1.15-1.46,1.73
			c-0.47,0.58-0.94,1.17-1.4,1.76c-0.46,0.57-0.91,1.15-1.35,1.74c-0.44,0.59-0.83,1.21-1.18,1.84c1.38,0,2.73-0.15,4.06-0.44
			c1.33-0.3,2.65-0.61,3.96-0.94c1.32-0.33,2.61-0.69,3.9-1.07c1.28-0.38,2.58-0.76,3.9-1.13c1.77-0.53,3.54-1.08,5.31-1.68
			c1.76-0.59,3.53-1.14,5.31-1.64c0.02,0,0.13-0.03,0.33-0.1c0.2-0.07,0.41-0.13,0.62-0.2c0.22-0.07,0.42-0.11,0.59-0.15
			C173.69,32.29,173.79,32.3,173.81,32.34z"/>
		<linearGradient id="SVGID_2_" gradientUnits="userSpaceOnUse" x1="161.0486" y1="1.7965" x2="157.6921" y2="45.4302">
			<stop  offset="0" style="stop-color:#EB75AB"/>
			<stop  offset="1" style="stop-color:#EA4D86"/>
		</linearGradient>
		<path class="st1" d="M145.82,44.49c-0.4,0-0.81-0.03-1.2-0.08c-0.82-0.11-1.58-0.39-2.24-0.81c-0.67-0.42-1.53-1.25-1.79-2.78
			c-0.21-1.01-0.04-2.14,0.52-3.19c0.31-0.58,0.6-1.11,0.89-1.58c0.86-1.36,1.78-2.65,2.75-3.87c0.94-1.17,1.88-2.32,2.84-3.45
			c1.88-2.26,3.83-4.51,5.79-6.68c1.94-2.16,3.95-4.35,5.97-6.5c1.94-2.09,3.94-4.19,5.92-6.22c0.81-0.83,1.62-1.66,2.44-2.49
			c0.84-0.85,1.72-1.69,2.61-2.49h0c0.07-0.06,0.17-0.15,0.3-0.26c0.17-0.15,0.37-0.31,0.59-0.47c0.27-0.21,0.53-0.37,0.79-0.51
			c1.03-0.55,1.89-0.34,2.32-0.17c0.57,0.23,1.06,0.69,1.34,1.25l0,0c0.43,0.87,0.36,1.9-0.18,2.75l-0.21,0.32
			c-0.76,1.22-1.65,2.48-2.61,3.66c-0.91,1.12-1.81,2.22-2.72,3.3c-1.82,2.23-3.71,4.49-5.6,6.67c-1.88,2.17-3.77,4.36-5.68,6.55
			l-2.92,3.38c-0.96,1.11-1.93,2.25-2.91,3.4c-0.52,0.58-0.98,1.13-1.43,1.68c-0.12,0.15-0.24,0.29-0.36,0.44
			c0.64-0.15,1.28-0.31,1.91-0.47c1.25-0.31,2.53-0.66,3.78-1.04c1.29-0.39,2.6-0.77,3.93-1.14c1.69-0.5,3.45-1.06,5.2-1.64
			c1.78-0.6,3.6-1.16,5.42-1.68c0.04-0.01,0.07-0.02,0.11-0.03l0.11-0.04c0.23-0.08,0.46-0.15,0.7-0.22c0.32-0.1,0.6-0.16,0.85-0.21
			c1.28-0.24,2.2,0.26,2.71,0.92c0.8,1.01,0.72,2.46-0.23,3.4c-0.07,0.07-0.14,0.13-0.21,0.19c-0.23,0.18-0.47,0.34-0.71,0.47
			c-0.08,0.04-0.16,0.09-0.25,0.14c-0.09,0.06-0.19,0.11-0.29,0.15c-0.85,0.37-1.69,0.74-2.54,1.12c-0.86,0.39-1.73,0.77-2.59,1.14
			c-1.33,0.55-2.62,1.07-3.91,1.57c-1.29,0.5-2.6,0.99-3.91,1.46c-2.07,0.77-4.2,1.51-6.3,2.19c-2.21,0.72-4.49,1.27-6.77,1.63
			c-0.4,0.07-0.89,0.14-1.45,0.19C146.35,44.48,146.09,44.49,145.82,44.49z"/>
	</g>
	<g>
		<linearGradient id="SVGID_3_" gradientUnits="userSpaceOnUse" x1="200.0478" y1="5.6728" x2="197.2195" y2="42.4402">
			<stop  offset="0" style="stop-color:#EB75AB"/>
			<stop  offset="1" style="stop-color:#EA4D86"/>
		</linearGradient>
		<path class="st2" d="M214.42,11.76c0.09,1.29-0.06,2.64-0.43,4.04c-0.37,1.4-0.88,2.78-1.53,4.14c-0.65,1.36-1.38,2.66-2.19,3.91
			c-0.81,1.25-1.6,2.38-2.37,3.39c-0.88,1.18-1.8,2.3-2.78,3.35c-0.97,1.05-1.99,2.07-3.04,3.06c-0.9,0.85-1.86,1.72-2.89,2.58
			c-1.03,0.86-2.11,1.66-3.24,2.38c-1.13,0.72-2.29,1.35-3.48,1.87c-1.19,0.53-2.4,0.89-3.63,1.08c-0.77,0.13-1.53,0.14-2.28,0.02
			c-0.76-0.12-1.45-0.42-2.09-0.9c-0.53-0.46-0.92-0.99-1.17-1.59c-0.25-0.6-0.41-1.24-0.48-1.92c-0.07-0.68-0.06-1.37,0.02-2.07
			c0.08-0.7,0.19-1.38,0.35-2.04c0.35-1.45,0.83-2.85,1.45-4.23c0.61-1.37,1.3-2.68,2.07-3.93c0.79-1.25,1.64-2.44,2.56-3.58
			c0.92-1.14,1.91-2.19,2.96-3.16c0.92-0.94,1.88-1.81,2.88-2.6c1-0.79,2.05-1.49,3.17-2.1c0.53-0.24,1.08-0.48,1.66-0.72
			c0.58-0.24,1.17-0.42,1.76-0.53c0.11-0.02,0.23-0.04,0.36-0.05c0.13-0.01,0.24,0.01,0.33,0.05c0.09,0.04,0.06,0.11-0.08,0.18
			c-0.14,0.08-0.22,0.14-0.25,0.18c-0.24,0.13-0.47,0.25-0.67,0.36c-0.21,0.11-0.43,0.23-0.67,0.36c-1.07,0.64-2.1,1.36-3.09,2.17
			c-0.99,0.81-1.93,1.69-2.83,2.63c-0.99,0.99-1.92,2.03-2.81,3.14c-0.89,1.11-1.72,2.26-2.48,3.47c-0.83,1.18-1.61,2.42-2.33,3.72
			c-0.72,1.29-1.36,2.66-1.91,4.11c-0.22,0.57-0.42,1.22-0.61,1.94c-0.19,0.72-0.27,1.44-0.26,2.14c0.01,0.7,0.16,1.34,0.44,1.91
			c0.28,0.57,0.79,0.96,1.51,1.18c0.7,0.24,1.42,0.28,2.15,0.13c0.73-0.15,1.43-0.37,2.09-0.66c1.16-0.5,2.25-1.12,3.27-1.86
			c1.02-0.73,2.01-1.53,2.98-2.38c1.4-1.18,2.87-2.53,4.39-4.03c1.52-1.5,3-3.11,4.44-4.82c1.44-1.71,2.75-3.5,3.95-5.38
			c1.19-1.87,2.16-3.79,2.91-5.74c0.2-0.48,0.37-1.01,0.51-1.58c0.14-0.57,0.22-1.13,0.23-1.69c0.01-0.56-0.07-1.1-0.25-1.61
			c-0.18-0.51-0.47-0.97-0.89-1.36c-0.55-0.48-1.15-0.81-1.81-0.97c-0.66-0.16-1.33-0.24-2.01-0.21c-0.68,0.04-1.35,0.14-2.02,0.3
			c-0.67,0.15-1.32,0.35-1.96,0.59c-1.25,0.37-2.46,0.83-3.63,1.38s-2.32,1.17-3.44,1.87c-1.1,0.7-2.11,1.46-3.04,2.27
			c-0.93,0.81-1.88,1.66-2.84,2.53c-0.07,0.04-0.14,0.09-0.21,0.15c-0.08,0.06-0.15,0.09-0.21,0.12c-0.09,0.02-0.1-0.02-0.05-0.13
			c0.05-0.11,0.08-0.18,0.08-0.2c0.44-0.83,0.97-1.62,1.61-2.37c0.64-0.75,1.28-1.44,1.94-2.07c0.99-0.96,2.04-1.81,3.17-2.55
			c1.13-0.73,2.32-1.36,3.57-1.89c1.25-0.5,2.54-0.87,3.88-1.1s2.66-0.25,3.98-0.05c0.64,0.11,1.27,0.27,1.91,0.49
			c0.64,0.22,1.21,0.58,1.71,1.08c0.5,0.48,0.89,1.05,1.17,1.71C214.18,10.35,214.35,11.04,214.42,11.76z"/>
		<linearGradient id="SVGID_4_" gradientUnits="userSpaceOnUse" x1="200.2385" y1="3.1894" x2="197.0281" y2="44.9237">
			<stop  offset="0" style="stop-color:#EB75AB"/>
			<stop  offset="1" style="stop-color:#EA4D86"/>
		</linearGradient>
		<path class="st3" d="M187.65,44.17c-0.49,0-0.99-0.04-1.48-0.12c-1.17-0.19-2.24-0.65-3.2-1.38c-0.05-0.04-0.09-0.07-0.13-0.11
			c-0.81-0.71-1.43-1.56-1.83-2.51c-0.35-0.82-0.57-1.71-0.66-2.64c-0.08-0.85-0.08-1.72,0.02-2.58c0.09-0.8,0.22-1.59,0.4-2.33
			c0.39-1.6,0.92-3.17,1.6-4.68c0.66-1.47,1.41-2.89,2.22-4.21c0.85-1.35,1.77-2.64,2.75-3.84c0.46-0.57,0.95-1.13,1.44-1.67
			c-0.48-0.74-0.53-1.69-0.13-2.53c0.04-0.1,0.08-0.2,0.13-0.3c0.52-0.99,1.17-1.94,1.92-2.83c0.68-0.79,1.38-1.55,2.1-2.24
			c1.09-1.07,2.29-2.03,3.55-2.85c1.25-0.81,2.58-1.52,3.96-2.1c1.44-0.58,2.92-1,4.42-1.26c1.59-0.27,3.19-0.29,4.77-0.06
			c0.82,0.14,1.59,0.34,2.35,0.6c1,0.35,1.89,0.91,2.66,1.68c0.71,0.68,1.3,1.54,1.7,2.51c0.37,0.89,0.6,1.83,0.69,2.8
			c0,0.02,0,0.04,0,0.06c0.1,1.56-0.07,3.19-0.51,4.85c-0.41,1.54-0.98,3.08-1.69,4.57c-0.69,1.45-1.48,2.86-2.35,4.2
			c-0.84,1.3-1.67,2.49-2.47,3.54c-0.91,1.23-1.9,2.43-2.94,3.54c-1,1.08-2.07,2.15-3.16,3.18c-0.93,0.88-1.94,1.78-3,2.67
			c-1.11,0.93-2.29,1.8-3.5,2.57c-1.23,0.79-2.52,1.48-3.82,2.06c-1.39,0.61-2.81,1.03-4.24,1.26
			C188.71,44.13,188.18,44.17,187.65,44.17z M187.01,37.31c0.02,0,0.03,0.01,0.06,0.02c0.36,0.12,0.63,0.14,0.92,0.08
			c0.56-0.12,1.1-0.29,1.6-0.51c0.99-0.43,1.94-0.97,2.81-1.59c0.94-0.68,1.88-1.43,2.78-2.23c1.4-1.18,2.83-2.49,4.29-3.94
			c1.46-1.44,2.9-3,4.28-4.64c1.36-1.62,2.62-3.34,3.75-5.11c1.1-1.72,2-3.5,2.68-5.29c0.17-0.43,0.31-0.84,0.42-1.29
			c0.1-0.39,0.15-0.77,0.16-1.14c0.01-0.27-0.03-0.52-0.11-0.76c-0.04-0.13-0.12-0.24-0.24-0.36c-0.18-0.16-0.43-0.29-0.7-0.36
			c-0.43-0.11-0.87-0.16-1.32-0.14c-0.46,0.03-1.01,0.11-1.54,0.23c-0.55,0.13-1.1,0.29-1.63,0.49c-0.05,0.02-0.11,0.04-0.17,0.06
			c-0.16,0.05-0.32,0.1-0.49,0.15c0.23,0.39,0.37,0.83,0.37,1.28c0.01,0.92-0.47,1.74-1.28,2.24c-0.12,0.1-0.25,0.19-0.39,0.27
			c-0.25,0.14-0.49,0.26-0.7,0.38c-0.2,0.1-0.41,0.22-0.64,0.34c-0.88,0.52-1.82,1.18-2.71,1.91c-0.9,0.74-1.78,1.56-2.61,2.42
			c-0.96,0.96-1.84,1.95-2.67,2.98c-0.82,1.03-1.61,2.12-2.33,3.25c-0.02,0.03-0.04,0.06-0.06,0.09c-0.78,1.1-1.52,2.28-2.2,3.5
			c-0.66,1.18-1.25,2.45-1.75,3.77c-0.19,0.5-0.37,1.06-0.52,1.68c-0.13,0.51-0.19,1-0.18,1.47
			C186.88,36.86,186.92,37.1,187.01,37.31z M188.48,16.43C188.48,16.43,188.48,16.43,188.48,16.43
			C188.48,16.43,188.48,16.43,188.48,16.43z M188.48,16.42C188.48,16.42,188.48,16.42,188.48,16.42
			C188.48,16.42,188.48,16.42,188.48,16.42z M188.48,16.42C188.48,16.42,188.48,16.42,188.48,16.42
			C188.48,16.42,188.48,16.42,188.48,16.42z M189.73,14.6c-0.01,0.01-0.02,0.02-0.03,0.02L189.73,14.6z M204.29,13.68L204.29,13.68
			L204.29,13.68z"/>
	</g>
	<g>
		<linearGradient id="SVGID_5_" gradientUnits="userSpaceOnUse" x1="238.5575" y1="0.5014" x2="234.8019" y2="49.324">
			<stop  offset="0" style="stop-color:#EB75AB"/>
			<stop  offset="1" style="stop-color:#EA4D86"/>
		</linearGradient>
		<path class="st4" d="M264.42,2.49c0.09,0.02,0.12,0.06,0.1,0.1c-0.02,0.04-0.06,0.09-0.11,0.13c-0.06,0.04-0.12,0.08-0.18,0.11
			c-0.07,0.03-0.11,0.06-0.13,0.08c-0.83,0.42-1.53,0.94-2.1,1.58c-0.86,0.83-1.76,1.74-2.73,2.71c-0.96,0.98-1.96,1.99-2.98,3.06
			s-2.04,2.15-3.07,3.25c-1.03,1.11-2.04,2.2-3.02,3.27c-0.99,1.07-1.95,2.12-2.88,3.14c-0.93,1.02-1.79,1.97-2.58,2.84
			c-1.12,1.25-2.21,2.5-3.29,3.75c-1.07,1.25-2.17,2.5-3.29,3.75c-0.42,0.46-0.93,1.05-1.54,1.78c-0.61,0.72-1.26,1.45-1.92,2.19
			c-0.67,0.73-1.35,1.42-2.04,2.07c-0.69,0.65-1.33,1.13-1.92,1.46c-0.18,0.11-0.35,0.14-0.53,0.08c-0.18-0.05-0.35-0.15-0.53-0.28
			c-0.33-0.39-0.53-0.99-0.59-1.78c-0.07-0.79-0.05-1.62,0.03-2.5c0.09-0.88,0.21-1.73,0.38-2.56c0.16-0.83,0.3-1.5,0.41-2.01
			c0.42-1.8,0.89-3.56,1.43-5.29c0.54-1.73,1.13-3.45,1.79-5.16l-0.03,0.03c-1.25,1.25-2.46,2.53-3.62,3.85
			c-1.16,1.31-2.32,2.65-3.48,4.01c-2.41,2.78-4.78,5.6-7.12,8.45c-2.33,2.85-4.59,5.78-6.76,8.78c-0.37,0.57-0.77,1.11-1.2,1.61
			c-0.43,0.5-0.85,1.04-1.27,1.61c-0.11,0.11-0.22,0.25-0.35,0.43c-0.12,0.18-0.25,0.27-0.38,0.3c-0.09,0-0.11-0.08-0.07-0.23
			c0.04-0.15,0.11-0.33,0.21-0.54c0.1-0.21,0.2-0.41,0.31-0.61c0.11-0.2,0.19-0.33,0.23-0.39c0.64-1.18,1.32-2.35,2.05-3.48
			c0.73-1.14,1.47-2.27,2.22-3.39c1.56-2.32,3.17-4.58,4.83-6.77c1.66-2.19,3.37-4.36,5.13-6.51c1.21-1.42,2.42-2.83,3.63-4.21
			c1.22-1.38,2.46-2.75,3.73-4.11c0.64-0.64,1.25-1.29,1.84-1.97c0.59-0.68,1.24-1.34,1.94-1.97c0.24-0.22,0.53-0.42,0.85-0.61
			c0.33-0.19,0.67-0.19,1.02-0.02c0.33,0.24,0.49,0.56,0.49,0.95c0,0.22-0.04,0.42-0.13,0.61c-0.09,0.19-0.18,0.38-0.26,0.57
			c-0.83,1.67-1.59,3.36-2.28,5.08c-0.69,1.72-1.35,3.46-1.99,5.21c-0.31,0.9-0.61,1.79-0.9,2.66s-0.56,1.76-0.81,2.66
			c-0.24,0.9-0.46,1.79-0.66,2.66c-0.2,0.88-0.35,1.76-0.46,2.66c0.88-0.59,1.67-1.27,2.38-2.02c0.71-0.76,1.43-1.53,2.15-2.32
			c1.91-2.06,3.75-4.14,5.54-6.25c1.79-2.1,3.61-4.22,5.47-6.35c0.64-0.68,1.41-1.48,2.33-2.42c0.92-0.93,1.87-1.88,2.86-2.84
			c0.99-0.96,1.95-1.9,2.89-2.81c0.94-0.91,1.75-1.67,2.43-2.29c0.68-0.64,1.36-1.24,2.05-1.82c0.69-0.58,1.4-1.16,2.12-1.73
			c0.64-0.5,1.31-0.96,2.04-1.38C262.87,2.96,263.63,2.67,264.42,2.49z"/>
		<linearGradient id="SVGID_6_" gradientUnits="userSpaceOnUse" x1="238.7458" y1="-1.9823" x2="234.6082" y2="51.8063">
			<stop  offset="0" style="stop-color:#EB75AB"/>
			<stop  offset="1" style="stop-color:#EA4D86"/>
		</linearGradient>
		<path class="st5" d="M208.93,49.82c-0.78,0-1.59-0.4-2.06-1.02c-0.29-0.39-0.74-1.22-0.4-2.39c0.08-0.29,0.2-0.59,0.36-0.93
			c0.12-0.25,0.25-0.5,0.38-0.75c0.1-0.18,0.19-0.33,0.25-0.43c0.65-1.21,1.37-2.42,2.12-3.59c0.74-1.15,1.49-2.29,2.24-3.42
			c1.59-2.37,3.24-4.69,4.92-6.9c1.66-2.18,3.4-4.4,5.18-6.58c1.24-1.47,2.47-2.89,3.69-4.28c1.22-1.39,2.5-2.79,3.78-4.16
			c0.65-0.65,1.23-1.27,1.78-1.91c0.66-0.76,1.38-1.49,2.15-2.19c0.37-0.34,0.81-0.65,1.29-0.93c1.05-0.59,2.27-0.62,3.36-0.08
			c0.13,0.06,0.25,0.14,0.36,0.22c0.97,0.72,1.51,1.77,1.51,2.96c0,0.58-0.12,1.14-0.36,1.66c-0.09,0.19-0.17,0.36-0.24,0.53
			c-0.02,0.04-0.03,0.07-0.05,0.1c-0.8,1.6-1.54,3.24-2.2,4.89c-0.68,1.7-1.34,3.43-1.96,5.13l-0.58,1.71
			c1.22-1.36,2.42-2.73,3.59-4.11c1.78-2.09,3.63-4.24,5.5-6.37c0.7-0.75,1.5-1.58,2.43-2.53c0.93-0.94,1.89-1.9,2.89-2.87
			c0.99-0.97,1.96-1.91,2.91-2.82c0.96-0.93,1.8-1.71,2.49-2.34c0.67-0.62,1.39-1.27,2.12-1.88c0.71-0.6,1.44-1.19,2.18-1.78
			c0.72-0.57,1.51-1.11,2.33-1.58c0.94-0.54,1.94-0.93,2.97-1.16c0.38-0.09,0.78-0.08,1.17,0.02c0.79,0.2,1.42,0.73,1.74,1.44
			c0.31,0.68,0.29,1.51-0.04,2.19c-0.18,0.37-0.45,0.69-0.78,0.96c-0.17,0.13-0.33,0.24-0.5,0.34c-0.08,0.05-0.17,0.1-0.25,0.15
			c-0.56,0.28-1,0.61-1.37,1.01c-0.04,0.04-0.08,0.08-0.12,0.12c-0.84,0.82-1.74,1.72-2.7,2.68c-0.95,0.97-1.94,1.98-2.95,3.03
			c-1.01,1.05-2.03,2.13-3.05,3.23c-1.03,1.1-2.03,2.19-3.01,3.26c-0.99,1.07-1.94,2.12-2.87,3.13c-0.93,1.02-1.78,1.96-2.57,2.83
			c-1.1,1.23-2.19,2.47-3.25,3.7c-1.09,1.26-2.19,2.52-3.32,3.79c-0.41,0.46-0.91,1.03-1.5,1.73c-0.63,0.75-1.29,1.5-1.98,2.25
			c-0.71,0.78-1.44,1.52-2.18,2.21c-0.84,0.78-1.62,1.37-2.38,1.8c-0.78,0.46-1.67,0.57-2.52,0.3c-0.45-0.14-0.88-0.36-1.28-0.66
			c-0.15-0.12-0.29-0.25-0.42-0.4c-0.66-0.79-1.05-1.86-1.16-3.16c-0.08-0.94-0.07-1.93,0.04-2.95c0.09-0.95,0.23-1.89,0.41-2.8
			c0.16-0.81,0.29-1.46,0.4-1.97c-2.24,2.59-4.47,5.25-6.65,7.91c-2.28,2.78-4.51,5.67-6.63,8.61c-0.41,0.63-0.87,1.24-1.35,1.81
			c-0.39,0.46-0.78,0.95-1.15,1.47c-0.08,0.1-0.16,0.2-0.25,0.29c-0.01,0.01-0.03,0.04-0.06,0.08c-0.5,0.73-1.22,1.21-2.03,1.34
			C209.19,49.81,209.06,49.82,208.93,49.82z M207.25,45.62C207.25,45.63,207.25,45.63,207.25,45.62
			C207.25,45.63,207.25,45.63,207.25,45.62z M265.36,5.05C265.36,5.05,265.35,5.06,265.36,5.05C265.35,5.06,265.36,5.05,265.36,5.05
			z M265.85,4.68L265.85,4.68L265.85,4.68z M265.85,4.68C265.85,4.68,265.85,4.68,265.85,4.68C265.85,4.68,265.85,4.68,265.85,4.68z
			"/>
	</g>
	<g>
		<linearGradient id="SVGID_7_" gradientUnits="userSpaceOnUse" x1="278.1607" y1="6.5655" x2="275.3062" y2="43.6747">
			<stop  offset="0" style="stop-color:#EB75AB"/>
			<stop  offset="1" style="stop-color:#EA4D86"/>
		</linearGradient>
		<path class="st6" d="M296.87,8.8c1.18,0.59,2.12,1.39,2.79,2.4s0.92,2.24,0.72,3.68c-0.18,0.96-0.53,1.96-1.07,2.99
			c-0.54,1.03-1.17,2.04-1.91,3.02c-0.73,0.99-1.52,1.93-2.37,2.84c-0.84,0.91-1.64,1.74-2.38,2.48c-2.81,2.65-5.86,4.98-9.17,6.97
			c-3.31,1.99-6.78,3.68-10.42,5.06c-2.21,0.81-4.39,1.47-6.53,1.97c-2.14,0.5-4.09,0.89-5.87,1.15c-1.78,0.26-3.29,0.44-4.54,0.53
			c-1.25,0.09-2.08,0.12-2.5,0.1c-0.02,0-0.09-0.01-0.2-0.03s-0.23-0.05-0.36-0.08c-0.13-0.03-0.25-0.07-0.35-0.1
			c-0.1-0.03-0.15-0.07-0.15-0.11c-0.02-0.02,0.13-0.06,0.44-0.11c0.32-0.06,0.67-0.11,1.05-0.18c0.38-0.07,0.75-0.12,1.1-0.16
			c0.35-0.04,0.55-0.07,0.59-0.07c2.52-0.46,5.19-1.09,8-1.89s5.62-1.77,8.42-2.93c2.8-1.15,5.49-2.47,8.09-3.95
			c2.6-1.48,4.95-3.13,7.05-4.95c1.23-1.03,2.43-2.08,3.62-3.16c1.18-1.07,2.28-2.13,3.29-3.17c1.01-1.04,1.91-2.05,2.7-3.02
			c0.79-0.97,1.39-1.89,1.81-2.74c0.42-0.86,0.62-1.64,0.62-2.35c0-0.71-0.27-1.32-0.82-1.83c-0.66-0.55-1.58-0.95-2.76-1.2
			c-1.18-0.25-2.5-0.41-3.96-0.46c-1.46-0.05-3-0.02-4.62,0.1c-1.62,0.12-3.19,0.27-4.7,0.44c-1.51,0.18-2.91,0.37-4.19,0.58
			c-1.28,0.21-2.33,0.38-3.14,0.51c-1.82,0.31-3.56,0.64-5.23,1s-3.4,0.7-5.19,1c-0.04,0-0.09,0-0.15,0c-0.05,0-0.07-0.02-0.05-0.07
			c0.02-0.04,0.11-0.11,0.26-0.2c1.62-0.64,3.14-1.2,4.55-1.71c1.41-0.5,2.93-0.97,4.55-1.41c5.04-1.42,10.16-2.17,15.35-2.24
			c1.25,0,2.53,0.07,3.85,0.21C294.44,7.88,295.68,8.23,296.87,8.8z M264.06,33.76c-0.07-0.04-0.07-0.14-0.02-0.28
			c0.05-0.14,0.1-0.26,0.15-0.35c0.35-0.59,0.66-1.1,0.94-1.53c0.27-0.43,0.54-0.84,0.81-1.23c0.26-0.39,0.53-0.79,0.81-1.18
			c0.27-0.39,0.6-0.85,0.97-1.38c1.58-2.08,3.16-4.15,4.75-6.21c1.59-2.06,3.26-4.06,5.01-6.02c0.61-0.7,1.23-1.38,1.84-2.04
			s1.29-1.28,2.04-1.87c0.07-0.04,0.15-0.11,0.26-0.2c0.11-0.09,0.22-0.17,0.34-0.25c0.12-0.08,0.24-0.13,0.36-0.16
			s0.24-0.03,0.35,0.02c0.09,0.09,0.13,0.19,0.11,0.31c-0.01,0.12-0.04,0.25-0.1,0.38c-0.06,0.13-0.11,0.26-0.18,0.38
			c-0.07,0.12-0.11,0.21-0.13,0.28c-0.44,0.79-0.92,1.55-1.45,2.29s-1.11,1.52-1.74,2.35c-1.64,2.04-3.34,4.03-5.08,5.97
			s-3.47,3.9-5.18,5.87c-0.75,0.77-1.46,1.53-2.14,2.3c-0.68,0.77-1.4,1.54-2.17,2.3c-0.09,0.09-0.19,0.16-0.3,0.23
			C264.21,33.79,264.12,33.8,264.06,33.76z"/>
		<linearGradient id="SVGID_8_" gradientUnits="userSpaceOnUse" x1="278.3521" y1="4.0824" x2="275.1155" y2="46.1573">
			<stop  offset="0" style="stop-color:#EB75AB"/>
			<stop  offset="1" style="stop-color:#EA4D86"/>
		</linearGradient>
		<path class="st7" d="M253.93,44.5c-0.18,0-0.32,0-0.42-0.01v0c-0.12-0.01-0.3-0.03-0.55-0.07c-0.15-0.03-0.32-0.07-0.49-0.11
			c-0.2-0.05-0.37-0.1-0.52-0.15c-1.03-0.34-1.74-1.19-1.84-2.22c-0.04-0.35,0-0.71,0.11-1.05c0.48-1.46,1.87-1.69,2.39-1.78
			l1.05-0.18c0.42-0.07,0.83-0.13,1.22-0.18c0.21-0.03,0.39-0.05,0.53-0.06c2.4-0.44,4.99-1.05,7.7-1.82
			c2.72-0.77,5.46-1.72,8.15-2.83c2.69-1.11,5.31-2.39,7.8-3.81c2.45-1.39,4.69-2.96,6.66-4.67c1.21-1.02,2.4-2.06,3.57-3.12
			c1.13-1.02,2.19-2.05,3.17-3.06c0.95-0.99,1.81-1.95,2.55-2.86c0.67-0.82,1.17-1.59,1.51-2.27c0.29-0.61,0.37-1,0.37-1.23
			c-0.26-0.19-0.74-0.43-1.61-0.62c-1.04-0.22-2.23-0.36-3.54-0.41c-1.36-0.05-2.83-0.02-4.34,0.09c-0.76,0.06-1.51,0.12-2.25,0.19
			c-0.04,0.15-0.09,0.29-0.15,0.43c-0.09,0.22-0.19,0.43-0.3,0.62c0.02-0.04,0.04-0.1,0.05-0.14c-0.05,0.15-0.11,0.29-0.19,0.43
			c-0.48,0.87-1.02,1.72-1.6,2.53c-0.54,0.75-1.14,1.56-1.79,2.41c-1.71,2.12-3.44,4.16-5.21,6.12c-1.74,1.94-3.47,3.9-5.15,5.83
			c-0.03,0.04-0.06,0.07-0.1,0.1c-0.73,0.75-1.42,1.49-2.06,2.22c-0.71,0.8-1.47,1.61-2.27,2.41c-0.23,0.24-0.5,0.44-0.79,0.61
			c-0.93,0.56-2.07,0.54-2.94-0.06c-0.86-0.59-1.48-1.81-0.93-3.23c0.09-0.23,0.18-0.43,0.25-0.58c0.02-0.05,0.05-0.09,0.07-0.14
			c0.37-0.62,0.7-1.16,0.98-1.61c0.28-0.44,0.56-0.86,0.83-1.27c0.27-0.41,0.55-0.81,0.83-1.22c0.28-0.4,0.61-0.87,0.98-1.4
			c1.63-2.15,3.22-4.23,4.81-6.29c1.62-2.1,3.35-4.17,5.13-6.16c0.11-0.13,0.22-0.25,0.33-0.38l-0.38,0.06
			c-1.77,0.3-3.49,0.63-5.1,0.98c-1.68,0.36-3.46,0.71-5.3,1.02c-0.14,0.02-0.28,0.04-0.42,0.04h-0.15c-0.87,0-1.73-0.47-2.18-1.21
			s-0.48-1.71-0.09-2.48c0.3-0.62,0.82-0.98,1.24-1.22c0.11-0.06,0.22-0.12,0.33-0.16c1.62-0.63,3.17-1.22,4.62-1.74
			c1.47-0.52,3.06-1.02,4.74-1.47c5.2-1.47,10.58-2.25,15.97-2.32c0,0,0,0,0.01,0c1.36,0,2.74,0.08,4.14,0.23
			c1.59,0.17,3.13,0.61,4.56,1.3c0.01,0.01,0.02,0.01,0.03,0.02c1.57,0.78,2.83,1.87,3.75,3.24c1.03,1.53,1.41,3.35,1.13,5.41
			c0,0.04-0.01,0.07-0.02,0.11c-0.22,1.2-0.66,2.45-1.31,3.69c-0.6,1.15-1.31,2.27-2.12,3.36c-0.79,1.06-1.64,2.08-2.54,3.05
			c-0.87,0.93-1.68,1.78-2.45,2.55c-2.97,2.81-6.2,5.27-9.65,7.34c-3.42,2.06-7.06,3.83-10.82,5.26c-2.33,0.85-4.62,1.54-6.84,2.07
			c-2.2,0.52-4.25,0.92-6.08,1.19c-1.83,0.27-3.42,0.45-4.72,0.55C255.05,44.48,254.36,44.5,253.93,44.5z M253.51,39.43
			C253.51,39.43,253.51,39.43,253.51,39.43C253.51,39.43,253.51,39.43,253.51,39.43z M265.47,31.7
			C265.47,31.7,265.47,31.7,265.47,31.7C265.47,31.7,265.47,31.7,265.47,31.7z"/>
	</g>
	<g>
		<linearGradient id="SVGID_9_" gradientUnits="userSpaceOnUse" x1="318.5989" y1="5.6728" x2="315.7707" y2="42.4402">
			<stop  offset="0" style="stop-color:#EB75AB"/>
			<stop  offset="1" style="stop-color:#EA4D86"/>
		</linearGradient>
		<path class="st8" d="M332.97,11.76c0.09,1.29-0.06,2.64-0.43,4.04c-0.37,1.4-0.88,2.78-1.53,4.14c-0.65,1.36-1.38,2.66-2.19,3.91
			c-0.81,1.25-1.6,2.38-2.37,3.39c-0.88,1.18-1.8,2.3-2.78,3.35c-0.97,1.05-1.99,2.07-3.04,3.06c-0.9,0.85-1.86,1.72-2.89,2.58
			c-1.03,0.86-2.11,1.66-3.24,2.38c-1.13,0.72-2.29,1.35-3.48,1.87c-1.19,0.53-2.4,0.89-3.63,1.08c-0.77,0.13-1.53,0.14-2.28,0.02
			c-0.76-0.12-1.45-0.42-2.09-0.9c-0.53-0.46-0.92-0.99-1.17-1.59c-0.25-0.6-0.41-1.24-0.48-1.92c-0.07-0.68-0.06-1.37,0.02-2.07
			c0.08-0.7,0.19-1.38,0.35-2.04c0.35-1.45,0.83-2.85,1.45-4.23c0.61-1.37,1.3-2.68,2.07-3.93c0.79-1.25,1.64-2.44,2.56-3.58
			c0.92-1.14,1.91-2.19,2.96-3.16c0.92-0.94,1.88-1.81,2.88-2.6c1-0.79,2.05-1.49,3.17-2.1c0.53-0.24,1.08-0.48,1.66-0.72
			c0.58-0.24,1.17-0.42,1.76-0.53c0.11-0.02,0.23-0.04,0.36-0.05c0.13-0.01,0.24,0.01,0.33,0.05c0.09,0.04,0.06,0.11-0.08,0.18
			c-0.14,0.08-0.22,0.14-0.25,0.18c-0.24,0.13-0.47,0.25-0.67,0.36c-0.21,0.11-0.43,0.23-0.67,0.36c-1.07,0.64-2.1,1.36-3.09,2.17
			c-0.99,0.81-1.93,1.69-2.83,2.63c-0.99,0.99-1.92,2.03-2.81,3.14c-0.89,1.11-1.72,2.26-2.48,3.47c-0.83,1.18-1.61,2.42-2.33,3.72
			c-0.72,1.29-1.36,2.66-1.91,4.11c-0.22,0.57-0.42,1.22-0.61,1.94c-0.19,0.72-0.27,1.44-0.26,2.14c0.01,0.7,0.16,1.34,0.44,1.91
			c0.28,0.57,0.79,0.96,1.51,1.18c0.7,0.24,1.42,0.28,2.15,0.13c0.73-0.15,1.43-0.37,2.09-0.66c1.16-0.5,2.25-1.12,3.27-1.86
			c1.02-0.73,2.01-1.53,2.98-2.38c1.4-1.18,2.87-2.53,4.39-4.03c1.52-1.5,3-3.11,4.44-4.82c1.43-1.71,2.75-3.5,3.95-5.38
			c1.19-1.87,2.16-3.79,2.91-5.74c0.2-0.48,0.37-1.01,0.51-1.58c0.14-0.57,0.22-1.13,0.23-1.69c0.01-0.56-0.07-1.1-0.25-1.61
			c-0.18-0.51-0.47-0.97-0.89-1.36c-0.55-0.48-1.15-0.81-1.81-0.97c-0.66-0.16-1.33-0.24-2.01-0.21c-0.68,0.04-1.35,0.14-2.02,0.3
			c-0.67,0.15-1.32,0.35-1.96,0.59c-1.25,0.37-2.46,0.83-3.63,1.38s-2.32,1.17-3.44,1.87c-1.1,0.7-2.11,1.46-3.04,2.27
			c-0.93,0.81-1.88,1.66-2.84,2.53c-0.07,0.04-0.14,0.09-0.21,0.15c-0.08,0.06-0.15,0.09-0.21,0.12c-0.09,0.02-0.1-0.02-0.05-0.13
			s0.08-0.18,0.08-0.2c0.44-0.83,0.97-1.62,1.61-2.37c0.64-0.75,1.28-1.44,1.94-2.07c0.99-0.96,2.04-1.81,3.17-2.55
			c1.13-0.73,2.32-1.36,3.57-1.89c1.25-0.5,2.54-0.87,3.88-1.1c1.34-0.23,2.66-0.25,3.98-0.05c0.64,0.11,1.27,0.27,1.91,0.49
			c0.64,0.22,1.21,0.58,1.71,1.08c0.5,0.48,0.89,1.05,1.17,1.71C332.73,10.35,332.9,11.04,332.97,11.76z"/>
		<linearGradient id="SVGID_10_" gradientUnits="userSpaceOnUse" x1="318.7896" y1="3.1894" x2="315.5793" y2="44.9237">
			<stop  offset="0" style="stop-color:#EB75AB"/>
			<stop  offset="1" style="stop-color:#EA4D86"/>
		</linearGradient>
		<path class="st9" d="M306.2,44.17c-0.49,0-0.99-0.04-1.48-0.12c-1.17-0.19-2.24-0.65-3.2-1.38c-0.05-0.04-0.09-0.07-0.13-0.11
			c-0.81-0.71-1.43-1.56-1.83-2.51c-0.35-0.82-0.57-1.71-0.66-2.64c-0.08-0.85-0.08-1.72,0.02-2.58c0.09-0.8,0.22-1.59,0.4-2.33
			c0.39-1.6,0.92-3.17,1.6-4.68c0.66-1.47,1.41-2.89,2.22-4.21c0.85-1.35,1.77-2.64,2.75-3.84c0.46-0.57,0.95-1.13,1.44-1.67
			c-0.48-0.74-0.53-1.69-0.13-2.53c0.04-0.1,0.08-0.2,0.13-0.3c0.52-0.99,1.17-1.94,1.92-2.83c0.68-0.79,1.38-1.55,2.1-2.24
			c1.09-1.07,2.29-2.03,3.55-2.85c1.25-0.81,2.58-1.52,3.96-2.1c1.44-0.58,2.92-1,4.42-1.26c1.59-0.27,3.19-0.29,4.77-0.06
			c0.82,0.14,1.59,0.34,2.35,0.6c1,0.35,1.89,0.91,2.66,1.68c0.71,0.68,1.3,1.54,1.7,2.51c0.37,0.89,0.6,1.83,0.69,2.8
			c0,0.02,0,0.04,0,0.06c0.1,1.56-0.07,3.19-0.51,4.85c-0.41,1.54-0.98,3.08-1.69,4.57c-0.69,1.45-1.48,2.86-2.35,4.2
			c-0.84,1.3-1.67,2.49-2.47,3.54c-0.91,1.23-1.9,2.43-2.94,3.54c-1,1.08-2.07,2.15-3.16,3.18c-0.93,0.88-1.94,1.78-3,2.67
			c-1.11,0.93-2.29,1.8-3.5,2.57c-1.23,0.79-2.52,1.48-3.82,2.06c-1.39,0.61-2.81,1.03-4.24,1.26
			C307.26,44.13,306.73,44.17,306.2,44.17z M305.56,37.31c0.02,0,0.03,0.01,0.06,0.02c0.36,0.12,0.63,0.14,0.92,0.08
			c0.56-0.12,1.1-0.29,1.6-0.51c0.99-0.43,1.94-0.97,2.81-1.59c0.94-0.68,1.88-1.43,2.78-2.23c1.4-1.18,2.83-2.49,4.29-3.94
			c1.46-1.44,2.9-3,4.28-4.64c1.36-1.62,2.62-3.34,3.75-5.11c1.1-1.72,2-3.5,2.68-5.29c0.17-0.43,0.31-0.84,0.42-1.29
			c0.1-0.39,0.15-0.77,0.16-1.14c0.01-0.27-0.03-0.52-0.11-0.76c-0.04-0.13-0.12-0.24-0.24-0.36c-0.18-0.16-0.43-0.29-0.7-0.36
			c-0.43-0.11-0.87-0.16-1.32-0.14c-0.46,0.03-1.01,0.11-1.54,0.23c-0.55,0.13-1.1,0.29-1.63,0.49c-0.05,0.02-0.11,0.04-0.17,0.06
			c-0.16,0.05-0.32,0.1-0.49,0.15c0.23,0.39,0.37,0.83,0.37,1.28c0.01,0.92-0.47,1.74-1.28,2.24c-0.12,0.1-0.25,0.19-0.39,0.27
			c-0.25,0.14-0.49,0.26-0.7,0.38c-0.2,0.1-0.41,0.22-0.64,0.34c-0.88,0.52-1.82,1.18-2.71,1.91c-0.9,0.74-1.78,1.56-2.61,2.42
			c-0.96,0.96-1.84,1.95-2.67,2.98c-0.82,1.03-1.61,2.12-2.33,3.25c-0.02,0.03-0.04,0.06-0.06,0.09c-0.78,1.1-1.52,2.28-2.2,3.5
			c-0.66,1.18-1.25,2.45-1.75,3.77c-0.19,0.5-0.37,1.06-0.52,1.68c-0.13,0.51-0.19,1-0.18,1.47
			C305.43,36.86,305.47,37.1,305.56,37.31z M307.04,16.43C307.04,16.43,307.04,16.43,307.04,16.43
			C307.04,16.43,307.04,16.43,307.04,16.43z M307.04,16.42C307.04,16.42,307.04,16.42,307.04,16.42
			C307.04,16.42,307.04,16.42,307.04,16.42z M307.04,16.42C307.04,16.42,307.04,16.42,307.04,16.42
			C307.04,16.42,307.04,16.42,307.04,16.42z M308.28,14.6c-0.01,0.01-0.02,0.02-0.03,0.02L308.28,14.6z M322.84,13.68L322.84,13.68
			L322.84,13.68z"/>
	</g>
	<g>
		<linearGradient id="SVGID_11_" gradientUnits="userSpaceOnUse" x1="357.1077" y1="0.5014" x2="353.3521" y2="49.324">
			<stop  offset="0" style="stop-color:#EB75AB"/>
			<stop  offset="1" style="stop-color:#EA4D86"/>
		</linearGradient>
		<path class="st10" d="M382.97,2.49c0.09,0.02,0.12,0.06,0.1,0.1c-0.02,0.04-0.06,0.09-0.11,0.13c-0.06,0.04-0.12,0.08-0.18,0.11
			c-0.07,0.03-0.11,0.06-0.13,0.08c-0.83,0.42-1.53,0.94-2.1,1.58c-0.86,0.83-1.76,1.74-2.73,2.71c-0.96,0.98-1.96,1.99-2.98,3.06
			c-1.02,1.06-2.04,2.15-3.07,3.25c-1.03,1.11-2.04,2.2-3.02,3.27c-0.99,1.07-1.95,2.12-2.88,3.14c-0.93,1.02-1.79,1.97-2.58,2.84
			c-1.12,1.25-2.21,2.5-3.29,3.75c-1.07,1.25-2.17,2.5-3.29,3.75c-0.42,0.46-0.93,1.05-1.54,1.78c-0.61,0.72-1.26,1.45-1.92,2.19
			c-0.67,0.73-1.35,1.42-2.04,2.07c-0.69,0.65-1.33,1.13-1.92,1.46c-0.18,0.11-0.35,0.14-0.53,0.08c-0.18-0.05-0.35-0.15-0.53-0.28
			c-0.33-0.39-0.53-0.99-0.59-1.78c-0.07-0.79-0.05-1.62,0.03-2.5s0.21-1.73,0.38-2.56c0.16-0.83,0.3-1.5,0.41-2.01
			c0.42-1.8,0.89-3.56,1.43-5.29c0.54-1.73,1.13-3.45,1.79-5.16l-0.03,0.03c-1.25,1.25-2.46,2.53-3.62,3.85
			c-1.16,1.31-2.32,2.65-3.48,4.01c-2.41,2.78-4.78,5.6-7.12,8.45c-2.33,2.85-4.59,5.78-6.76,8.78c-0.37,0.57-0.77,1.11-1.2,1.61
			c-0.43,0.5-0.85,1.04-1.27,1.61c-0.11,0.11-0.22,0.25-0.35,0.43c-0.12,0.18-0.25,0.27-0.38,0.3c-0.09,0-0.11-0.08-0.07-0.23
			c0.04-0.15,0.11-0.33,0.21-0.54c0.1-0.21,0.2-0.41,0.31-0.61c0.11-0.2,0.19-0.33,0.23-0.39c0.64-1.18,1.32-2.35,2.05-3.48
			c0.73-1.14,1.47-2.27,2.22-3.39c1.56-2.32,3.17-4.58,4.83-6.77c1.66-2.19,3.37-4.36,5.13-6.51c1.21-1.42,2.42-2.83,3.63-4.21
			c1.22-1.38,2.46-2.75,3.73-4.11c0.64-0.64,1.25-1.29,1.84-1.97c0.59-0.68,1.24-1.34,1.94-1.97c0.24-0.22,0.53-0.42,0.85-0.61
			c0.33-0.19,0.67-0.19,1.02-0.02c0.33,0.24,0.49,0.56,0.49,0.95c0,0.22-0.04,0.42-0.13,0.61c-0.09,0.19-0.18,0.38-0.26,0.57
			c-0.83,1.67-1.59,3.36-2.28,5.08c-0.69,1.72-1.35,3.46-1.99,5.21c-0.31,0.9-0.61,1.79-0.9,2.66c-0.3,0.88-0.56,1.76-0.81,2.66
			c-0.24,0.9-0.46,1.79-0.66,2.66c-0.2,0.88-0.35,1.76-0.46,2.66c0.88-0.59,1.67-1.27,2.38-2.02c0.71-0.76,1.43-1.53,2.15-2.32
			c1.91-2.06,3.75-4.14,5.54-6.25c1.79-2.1,3.61-4.22,5.47-6.35c0.64-0.68,1.41-1.48,2.33-2.42c0.92-0.93,1.87-1.88,2.86-2.84
			c0.99-0.96,1.95-1.9,2.89-2.81c0.94-0.91,1.75-1.67,2.43-2.29c0.68-0.64,1.36-1.24,2.05-1.82c0.69-0.58,1.4-1.16,2.12-1.73
			c0.64-0.5,1.31-0.96,2.04-1.38C381.42,2.96,382.18,2.67,382.97,2.49z"/>
		<linearGradient id="SVGID_12_" gradientUnits="userSpaceOnUse" x1="357.296" y1="-1.9823" x2="353.1584" y2="51.8063">
			<stop  offset="0" style="stop-color:#EB75AB"/>
			<stop  offset="1" style="stop-color:#EA4D86"/>
		</linearGradient>
		<path class="st11" d="M327.48,49.82c-0.78,0-1.59-0.4-2.06-1.02c-0.29-0.39-0.74-1.22-0.4-2.39c0.08-0.29,0.2-0.59,0.36-0.93
			c0.12-0.25,0.25-0.5,0.38-0.75c0.1-0.18,0.19-0.33,0.25-0.43c0.65-1.21,1.37-2.42,2.12-3.59c0.74-1.15,1.49-2.29,2.24-3.42
			c1.59-2.37,3.24-4.69,4.92-6.9c1.66-2.18,3.4-4.4,5.18-6.58c1.24-1.47,2.47-2.89,3.69-4.28c1.22-1.39,2.5-2.79,3.78-4.16
			c0.65-0.65,1.23-1.27,1.78-1.91c0.66-0.76,1.38-1.49,2.15-2.19c0.37-0.34,0.81-0.65,1.29-0.93c1.05-0.59,2.27-0.62,3.36-0.08
			c0.13,0.06,0.25,0.14,0.36,0.22c0.97,0.72,1.51,1.77,1.51,2.96c0,0.58-0.12,1.14-0.36,1.66c-0.09,0.19-0.17,0.36-0.24,0.53
			c-0.02,0.04-0.03,0.07-0.05,0.1c-0.8,1.6-1.54,3.24-2.2,4.89c-0.68,1.7-1.34,3.43-1.96,5.13l-0.58,1.71
			c1.22-1.36,2.42-2.73,3.59-4.11c1.78-2.09,3.63-4.24,5.5-6.37c0.7-0.75,1.5-1.58,2.43-2.53c0.93-0.94,1.89-1.9,2.89-2.87
			c0.99-0.97,1.96-1.91,2.91-2.82c0.96-0.93,1.8-1.71,2.49-2.34c0.67-0.62,1.39-1.27,2.12-1.88c0.71-0.6,1.44-1.19,2.18-1.78
			c0.72-0.57,1.51-1.11,2.33-1.58c0.94-0.54,1.94-0.93,2.97-1.16c0.38-0.09,0.78-0.08,1.17,0.02c0.79,0.2,1.42,0.73,1.74,1.44
			c0.31,0.68,0.29,1.51-0.04,2.19c-0.18,0.37-0.45,0.69-0.78,0.96c-0.17,0.13-0.33,0.24-0.5,0.34c-0.08,0.05-0.17,0.1-0.25,0.15
			c-0.56,0.28-1,0.61-1.37,1.01c-0.04,0.04-0.08,0.08-0.12,0.12c-0.84,0.82-1.74,1.72-2.7,2.68c-0.95,0.97-1.94,1.98-2.95,3.03
			c-1.01,1.05-2.03,2.13-3.05,3.23c-1.03,1.1-2.03,2.19-3.01,3.26c-0.99,1.07-1.94,2.12-2.87,3.13c-0.93,1.02-1.78,1.96-2.57,2.83
			c-1.1,1.23-2.19,2.47-3.25,3.7c-1.09,1.26-2.19,2.52-3.32,3.79c-0.41,0.46-0.91,1.03-1.5,1.73c-0.63,0.75-1.29,1.5-1.98,2.25
			c-0.71,0.78-1.44,1.52-2.18,2.21c-0.84,0.78-1.62,1.37-2.38,1.8c-0.78,0.46-1.67,0.57-2.52,0.3c-0.45-0.14-0.88-0.36-1.28-0.66
			c-0.15-0.12-0.29-0.25-0.42-0.4c-0.66-0.79-1.05-1.86-1.16-3.16c-0.08-0.94-0.07-1.93,0.04-2.95c0.09-0.95,0.23-1.89,0.41-2.8
			c0.16-0.81,0.29-1.46,0.4-1.97c-2.24,2.59-4.47,5.25-6.65,7.91c-2.28,2.78-4.51,5.67-6.63,8.61c-0.41,0.63-0.87,1.24-1.35,1.81
			c-0.39,0.46-0.78,0.95-1.15,1.47c-0.08,0.1-0.16,0.2-0.25,0.29c-0.01,0.01-0.03,0.04-0.06,0.08c-0.5,0.73-1.22,1.21-2.03,1.34
			C327.74,49.81,327.61,49.82,327.48,49.82z M325.8,45.62C325.8,45.63,325.8,45.63,325.8,45.62C325.8,45.63,325.8,45.63,325.8,45.62
			z M383.91,5.05C383.91,5.05,383.9,5.06,383.91,5.05C383.9,5.06,383.91,5.05,383.91,5.05z M384.4,4.68L384.4,4.68L384.4,4.68z
			 M384.4,4.68C384.4,4.68,384.4,4.68,384.4,4.68C384.4,4.68,384.4,4.68,384.4,4.68z"/>
	</g>
</g>
<g>
	<linearGradient id="SVGID_13_" gradientUnits="userSpaceOnUse" x1="309.5683" y1="69.173" x2="309.5683" y2="125.3043">
		<stop  offset="0" style="stop-color:#84CEE2"/>
		<stop  offset="1" style="stop-color:#2D67B0"/>
	</linearGradient>
	<path class="st12" d="M304.15,71.16l13.98,0.24h6.72l-3.06,51.95h-22.87l2.53-19.96l-5.71-2.71l-0.41-3.77l-0.75-0.05l-0.19-1.62
		l6.36-0.26v-1.72c-0.56-0.22-0.94-0.67-0.94-1.2c0-0.74,0.74-1.34,1.66-1.34c0.92,0,1.66,0.6,1.66,1.34c0,0.52-0.37,0.96-0.9,1.18
		v1.68l4.62-0.23l3.38-14.31c0,0-5.56-1.06-6.08-2.72C303.92,76.95,304.15,71.16,304.15,71.16 M302.27,69.17l-0.07,1.91
		c-0.24,6.13,0,6.89,0.09,7.17c0.57,1.81,3.06,2.93,5.59,3.6l-2.59,10.96l-0.3,0.01c0.07-0.25,0.1-0.51,0.1-0.77
		c0-1.81-1.62-3.29-3.61-3.29c-1.99,0-3.61,1.48-3.61,3.29c0,0.37,0.07,0.74,0.2,1.08l-3.74,0.15l-2.1,0.08l0.24,2.09l0.19,1.62
		l0.19,1.62l0.74,0.05l0.23,2.13l0.12,1.08l0.98,0.47l4.43,2.11l-2.35,18.56l-0.28,2.2h2.21h22.87h1.84l0.11-1.84l3.06-51.95
		l0.12-2.07h-2.07h-6.72l-13.95-0.24L302.27,69.17L302.27,69.17z"/>
	<linearGradient id="SVGID_14_" gradientUnits="userSpaceOnUse" x1="29.2742" y1="69.445" x2="29.2742" y2="125.3043">
		<stop  offset="0" style="stop-color:#84CEE2"/>
		<stop  offset="1" style="stop-color:#2D67B0"/>
	</linearGradient>
	<path class="st13" d="M56.13,71.4l-2.23,10.39h-33.4l-6.61,31.17h22.27l2.82-13.36H24.14l2.23-10.39h25.98l-7.27,34.14H7.96
		c-1.78,0-3.23-0.58-4.34-1.74c-1.11-1.16-1.67-2.58-1.67-4.27c0-0.25,0.01-0.48,0.04-0.71c0.02-0.22,0.06-0.46,0.11-0.7l7.94-37.11
		c0.4-2.03,1.48-3.76,3.27-5.2c1.78-1.48,3.69-2.23,5.72-2.23H56.13 M58.55,69.44h-2.41H19.02c-2.49,0-4.83,0.9-6.97,2.68
		c-2.12,1.71-3.45,3.84-3.93,6.32l-7.93,37.08c-0.07,0.33-0.11,0.62-0.14,0.9C0.02,116.7,0,117.01,0,117.34
		c0,2.2,0.74,4.09,2.21,5.62c1.49,1.56,3.43,2.35,5.75,2.35h37.11h1.58l0.33-1.55l7.27-34.14l0.5-2.36h-2.41H26.37h-1.58l-0.33,1.54
		l-2.23,10.39l-0.51,2.36h2.41h12.44l-2,9.45H16.31l5.78-27.27h31.82h1.58l0.33-1.54l2.23-10.39L58.55,69.44L58.55,69.44z"/>
	<linearGradient id="SVGID_15_" gradientUnits="userSpaceOnUse" x1="77.2382" y1="69.445" x2="77.2382" y2="125.3043">
		<stop  offset="0" style="stop-color:#84CEE2"/>
		<stop  offset="1" style="stop-color:#2D67B0"/>
	</linearGradient>
	<path class="st14" d="M95.92,71.4l9.72,51.95H93.02l-2.23-11.88H69.86l-7.27,11.88H49.97L81.81,71.4H95.92 M76.25,101.09h12.62
		L85.9,85.28L76.25,101.09 M97.54,69.44h-1.62h-14.1h-1.09l-0.57,0.93l-31.84,51.95l-1.82,2.97h3.49h12.62h1.09l0.57-0.93l6.7-10.94
		h18.22l1.93,10.28l0.3,1.59h1.62h12.62h2.35l-0.43-2.31l-9.72-51.95L97.54,69.44L97.54,69.44z M79.73,99.13l5.19-8.5l1.6,8.5H79.73
		L79.73,99.13z"/>
	<linearGradient id="SVGID_16_" gradientUnits="userSpaceOnUse" x1="144.3439" y1="69.445" x2="144.3439" y2="125.3043">
		<stop  offset="0" style="stop-color:#84CEE2"/>
		<stop  offset="1" style="stop-color:#2D67B0"/>
	</linearGradient>
	<path class="st15" d="M178.08,71.4l-11.06,51.95h-11.13l5.49-25.98l-18.11,25.98h-8.91l-7.13-25.98l-5.49,25.98h-11.13l11.06-51.95
		h11.13l9.43,35.26l24.72-35.26H178.08 M180.49,69.44h-2.41h-11.13h-1.02l-0.58,0.83l-22.31,31.83l-8.34-31.21l-0.39-1.45h-1.5
		h-11.13h-1.58l-0.33,1.55l-11.06,51.95l-0.5,2.36h2.41h11.13h1.58l0.33-1.55l3.83-18.11l5,18.22l0.39,1.44h1.49h8.91h1.02
		l0.58-0.84l12.61-18.09l-3.5,16.57l-0.5,2.36h2.41h11.13h1.58l0.33-1.55l11.06-51.95L180.49,69.44L180.49,69.44z"/>
	<linearGradient id="SVGID_17_" gradientUnits="userSpaceOnUse" x1="200.6484" y1="69.445" x2="200.6484" y2="125.3043">
		<stop  offset="0" style="stop-color:#84CEE2"/>
		<stop  offset="1" style="stop-color:#2D67B0"/>
	</linearGradient>
	<path class="st16" d="M225.65,71.4l-2.23,10.39h-29.69l-1.56,7.42h29.69l-2.23,10.39h-29.69l-2.82,13.36h29.69l-2.23,10.39h-33.4
		c-1.78,0-3.23-0.58-4.34-1.74c-1.11-1.16-1.67-2.58-1.67-4.27c0-0.25,0.01-0.48,0.04-0.71c0.02-0.22,0.06-0.46,0.11-0.7l7.94-37.11
		c0.4-2.03,1.48-3.76,3.27-5.2c1.78-1.48,3.69-2.23,5.71-2.23H225.65 M228.07,69.44h-2.41h-33.4c-2.49,0-4.83,0.9-6.96,2.68
		c-2.12,1.71-3.45,3.84-3.93,6.32l-7.93,37.08c-0.07,0.33-0.11,0.62-0.14,0.9c-0.03,0.28-0.05,0.59-0.05,0.92
		c0,2.2,0.74,4.09,2.21,5.62c1.49,1.56,3.42,2.35,5.75,2.35h33.4h1.58l0.33-1.54l2.23-10.39l0.51-2.36h-2.41h-27.28l2-9.45h28.11
		h1.58l0.33-1.54l2.23-10.39l0.51-2.36h-2.41h-27.28l0.74-3.52h28.1H225l0.33-1.54l2.23-10.39L228.07,69.44L228.07,69.44z"/>
	<linearGradient id="SVGID_18_" gradientUnits="userSpaceOnUse" x1="247.2121" y1="69.445" x2="247.2121" y2="125.3043">
		<stop  offset="0" style="stop-color:#84CEE2"/>
		<stop  offset="1" style="stop-color:#2D67B0"/>
	</linearGradient>
	<path class="st17" d="M275.01,71.4l-2.23,10.39h-33.4l-1.56,7.42h25.98c1.78,0,3.23,0.57,4.34,1.71c1.11,1.14,1.67,2.57,1.67,4.3
		c0,0.2-0.01,0.42-0.04,0.67c-0.03,0.25-0.06,0.5-0.11,0.74l-4.16,19.3c-0.4,2.03-1.48,3.79-3.27,5.27
		c-1.83,1.44-3.74,2.15-5.72,2.15h-37.11l2.23-10.39h33.4l2.82-13.36h-25.98c-1.78,0-3.23-0.58-4.34-1.74
		c-1.11-1.16-1.67-2.58-1.67-4.27c0-0.25,0.01-0.48,0.04-0.71c0.02-0.22,0.06-0.46,0.11-0.71l2.89-13.36
		c0.4-2.03,1.48-3.76,3.27-5.2c1.78-1.48,3.69-2.23,5.71-2.23H275.01 M277.42,69.44h-2.41H237.9c-2.49,0-4.83,0.9-6.96,2.68
		c-2.12,1.71-3.45,3.84-3.93,6.32l-2.89,13.32c-0.07,0.34-0.11,0.63-0.14,0.91c-0.03,0.28-0.05,0.59-0.05,0.91
		c0,2.2,0.74,4.09,2.21,5.62c1.49,1.56,3.42,2.35,5.75,2.35h23.57l-2,9.45h-31.82h-1.58l-0.33,1.54l-2.23,10.39L217,125.3h2.41
		h37.11c2.42,0,4.75-0.86,6.92-2.57c2.17-1.81,3.49-3.96,3.98-6.43l4.15-19.26c0.07-0.34,0.11-0.65,0.14-0.95
		c0.03-0.33,0.05-0.61,0.05-0.87c0-2.25-0.75-4.16-2.23-5.67c-1.49-1.52-3.42-2.29-5.74-2.29h-23.57l0.74-3.52h31.81h1.58l0.33-1.54
		l2.23-10.39L277.42,69.44L277.42,69.44z"/>
	<linearGradient id="SVGID_19_" gradientUnits="userSpaceOnUse" x1="383.4702" y1="69.445" x2="383.4702" y2="125.3043">
		<stop  offset="0" style="stop-color:#84CEE2"/>
		<stop  offset="1" style="stop-color:#2D67B0"/>
	</linearGradient>
	<path class="st18" d="M403.84,71.4c1.78,0,3.23,0.57,4.34,1.71c1.11,1.14,1.67,2.57,1.67,4.31c0,0.2-0.01,0.42-0.04,0.67
		c-0.02,0.25-0.06,0.5-0.11,0.74l-7.94,37.11c-0.4,2.03-1.48,3.79-3.27,5.27c-1.83,1.44-3.74,2.15-5.72,2.15H363.1
		c-1.78,0-3.23-0.58-4.34-1.74c-1.11-1.16-1.67-2.58-1.67-4.27c0-0.25,0.01-0.48,0.04-0.71c0.02-0.22,0.06-0.46,0.11-0.7l7.94-37.11
		c0.4-2.03,1.48-3.76,3.27-5.2c1.78-1.48,3.69-2.23,5.71-2.23H403.84 M369.03,112.96h22.27l6.61-31.17h-22.27L369.03,112.96
		 M403.84,69.44h-29.69c-2.49,0-4.83,0.9-6.96,2.68c-2.12,1.71-3.45,3.84-3.93,6.32l-7.93,37.08c-0.07,0.33-0.11,0.62-0.14,0.9
		c-0.03,0.28-0.05,0.59-0.05,0.92c0,2.2,0.74,4.09,2.21,5.62c1.49,1.56,3.42,2.35,5.75,2.35h29.69c2.42,0,4.75-0.86,6.92-2.57
		c2.17-1.81,3.49-3.96,3.98-6.43l7.93-37.08c0.07-0.34,0.11-0.65,0.14-0.96c0.03-0.32,0.05-0.61,0.05-0.86
		c0-2.25-0.75-4.16-2.23-5.67C408.09,70.22,406.16,69.44,403.84,69.44L403.84,69.44z M377.22,83.74h18.28l-5.78,27.27h-18.28
		L377.22,83.74L377.22,83.74z"/>
	<linearGradient id="SVGID_20_" gradientUnits="userSpaceOnUse" x1="434.7566" y1="69.445" x2="434.7566" y2="125.3043">
		<stop  offset="0" style="stop-color:#84CEE2"/>
		<stop  offset="1" style="stop-color:#2D67B0"/>
	</linearGradient>
	<path class="st19" d="M455.13,71.4c1.78,0,3.23,0.57,4.34,1.71c1.11,1.14,1.67,2.57,1.67,4.31c0,0.2-0.01,0.42-0.04,0.67
		c-0.03,0.25-0.06,0.5-0.11,0.74l-7.94,37.11c-0.4,2.03-1.48,3.79-3.27,5.27c-1.83,1.44-3.74,2.15-5.71,2.15h-29.69
		c-1.78,0-3.23-0.58-4.34-1.74c-1.11-1.16-1.67-2.58-1.67-4.27c0-0.25,0.01-0.48,0.04-0.71c0.02-0.22,0.06-0.46,0.11-0.7l7.94-37.11
		c0.4-2.03,1.48-3.76,3.27-5.2c1.78-1.48,3.69-2.23,5.71-2.23H455.13 M420.32,112.96h22.27l6.6-31.17h-22.27L420.32,112.96
		 M455.13,69.44h-29.69c-2.49,0-4.83,0.9-6.96,2.68c-2.12,1.71-3.45,3.84-3.93,6.32l-7.93,37.08c-0.07,0.33-0.11,0.62-0.14,0.9
		c-0.03,0.28-0.05,0.59-0.05,0.92c0,2.2,0.74,4.09,2.21,5.62c1.49,1.56,3.42,2.35,5.75,2.35h29.69c2.42,0,4.75-0.86,6.92-2.57
		c2.17-1.81,3.49-3.96,3.98-6.43l7.93-37.08c0.07-0.33,0.11-0.64,0.14-0.95c0.03-0.33,0.05-0.61,0.05-0.87
		c0-2.25-0.75-4.16-2.23-5.67C459.38,70.22,457.45,69.44,455.13,69.44L455.13,69.44z M428.51,83.74h18.28l-5.78,27.27h-18.28
		L428.51,83.74L428.51,83.74z"/>
	<linearGradient id="SVGID_21_" gradientUnits="userSpaceOnUse" x1="492.0555" y1="69.445" x2="492.0555" y2="125.3043">
		<stop  offset="0" style="stop-color:#84CEE2"/>
		<stop  offset="1" style="stop-color:#2D67B0"/>
	</linearGradient>
	<path class="st20" d="M525.79,71.4l-11.06,51.95H503.6l5.49-25.98l-18.11,25.98h-8.91l-7.13-25.98l-5.49,25.98h-11.13l11.06-51.95
		h11.13l9.43,35.26l24.72-35.26H525.79 M528.2,69.44h-2.41h-11.13h-1.02l-0.58,0.83l-22.31,31.83l-8.34-31.21l-0.39-1.45h-1.5
		h-11.13h-1.58l-0.33,1.55l-11.06,51.95l-0.5,2.36h2.41h11.13h1.58l0.33-1.55l3.83-18.11l5,18.22l0.39,1.44h1.49h8.91H492l0.58-0.84
		l12.61-18.09l-3.5,16.57l-0.5,2.36h2.41h11.13h1.58l0.33-1.55L527.7,71.8L528.2,69.44L528.2,69.44z"/>
	<linearGradient id="SVGID_22_" gradientUnits="userSpaceOnUse" x1="342.3919" y1="69.445" x2="342.3919" y2="125.3043">
		<stop  offset="0" style="stop-color:#84CEE2"/>
		<stop  offset="1" style="stop-color:#2D67B0"/>
	</linearGradient>
	<path class="st21" d="M352.56,71.4c1.78,0,3.23,0.57,4.34,1.71c1.11,1.14,1.67,2.57,1.67,4.31c0,0.2-0.01,0.42-0.04,0.67
		c-0.03,0.25-0.06,0.5-0.11,0.74l-1.78,8.16c-0.45,2.03-1.56,3.79-3.34,5.27c-1.73,1.44-3.61,2.15-5.64,2.15
		c1.78,0,3.23,0.57,4.34,1.71c1.11,1.14,1.67,2.57,1.67,4.3c0,0.2-0.01,0.42-0.04,0.67c-0.03,0.25-0.06,0.5-0.11,0.74l-4.6,21.52
		h-11.13l5.05-23.75h-16.5l0.61-10.39h18.12l1.56-7.42h-19.24l0.61-10.33L352.56,71.4 M352.56,69.44L352.56,69.44L352.56,69.44
		l-24.57,0.06l-1.84,0l-0.11,1.83l-0.61,10.33l-0.12,2.07h2.07h16.83l-0.74,3.52h-16.53h-1.84L325,89.1l-0.61,10.39l-0.12,2.07h2.07
		h14.09l-4.55,21.39l-0.5,2.36h2.41h11.13h1.58l0.33-1.54l4.6-21.52c0.07-0.34,0.11-0.64,0.14-0.95c0.03-0.32,0.05-0.61,0.05-0.87
		c0-2.25-0.75-4.16-2.23-5.67c-0.03-0.03-0.06-0.06-0.09-0.09c0.42-0.27,0.83-0.57,1.23-0.91c2.12-1.77,3.46-3.9,4-6.35l1.78-8.17
		c0.07-0.35,0.11-0.65,0.15-0.96c0.03-0.33,0.05-0.61,0.05-0.87c0-2.25-0.75-4.16-2.23-5.67C356.81,70.22,354.88,69.44,352.56,69.44
		L352.56,69.44z"/>
	<path class="st22" d="M161.03,97.88c0.08,0.01,0.16,0.02,0.24,0.04l0.11-0.54L161.03,97.88z"/>
	<path class="st22" d="M127.06,98.19c0.13-0.03,0.25-0.07,0.37-0.1l-0.2-0.72L127.06,98.19z"/>
	<path class="st22" d="M474.8,98.08c0.12,0.01,0.23,0.02,0.35,0.03l-0.2-0.74L474.8,98.08z"/>
	<path class="st22" d="M507.65,99.44c0.32,0.05,0.65,0.1,0.98,0.13l0.47-2.2L507.65,99.44z"/>
	<linearGradient id="SVGID_23_" gradientUnits="userSpaceOnUse" x1="309.2737" y1="-16.8665" x2="310.1217" y2="225.663">
		<stop  offset="0" style="stop-color:#344395"/>
		<stop  offset="0.2083" style="stop-color:#333B8C"/>
		<stop  offset="0.3387" style="stop-color:#313685"/>
		<stop  offset="0.349" style="stop-color:#323887"/>
		<stop  offset="0.3598" style="stop-color:#323F8C"/>
		<stop  offset="0.3709" style="stop-color:#324C96"/>
		<stop  offset="0.3822" style="stop-color:#315EA4"/>
		<stop  offset="0.3937" style="stop-color:#3175B7"/>
		<stop  offset="0.4051" style="stop-color:#3693CE"/>
		<stop  offset="0.4165" style="stop-color:#44B5E8"/>
		<stop  offset="0.4727" style="stop-color:#FFFFFF"/>
	</linearGradient>
	<path class="st23" d="M303.61,98.56c4.38,0,8.8-2.97,13.65-2.97c1.45,0,3.69,0.32,6.12,0.77l1.47-24.97h-6.72l-13.98-0.24
		c0,0-0.22,5.8,0,6.52c0.52,1.66,6.08,2.72,6.08,2.72l-3.38,14.31l-4.62,0.23v-1.68c0.53-0.22,0.9-0.67,0.9-1.18
		c0-0.74-0.74-1.34-1.66-1.34c-0.92,0-1.66,0.6-1.66,1.34c0,0.53,0.39,0.99,0.94,1.2v1.72l-6.36,0.26l0.15,1.29
		c0.67-0.18,1.44-0.3,2.42-0.3C301.38,96.23,299.23,98.56,303.61,98.56z"/>
	<linearGradient id="SVGID_24_" gradientUnits="userSpaceOnUse" x1="38.1294" y1="-15.8941" x2="38.9774" y2="226.6356">
		<stop  offset="0" style="stop-color:#344395"/>
		<stop  offset="0.2083" style="stop-color:#333B8C"/>
		<stop  offset="0.3387" style="stop-color:#313685"/>
		<stop  offset="0.349" style="stop-color:#323887"/>
		<stop  offset="0.3598" style="stop-color:#323F8C"/>
		<stop  offset="0.3709" style="stop-color:#324C96"/>
		<stop  offset="0.3822" style="stop-color:#315EA4"/>
		<stop  offset="0.3937" style="stop-color:#3175B7"/>
		<stop  offset="0.4051" style="stop-color:#3693CE"/>
		<stop  offset="0.4165" style="stop-color:#44B5E8"/>
		<stop  offset="0.4727" style="stop-color:#FFFFFF"/>
	</linearGradient>
	<path class="st24" d="M48.36,96.02c0.89-0.09,1.72-0.03,2.52,0.13l1.48-6.93H26.37l-1.7,7.92c1.16,0.45,2.8,0.98,6.05,1.43
		C38.16,99.6,44.32,96.44,48.36,96.02z"/>
	<linearGradient id="SVGID_25_" gradientUnits="userSpaceOnUse" x1="30.6278" y1="-15.8679" x2="31.4758" y2="226.6618">
		<stop  offset="0" style="stop-color:#344395"/>
		<stop  offset="0.2083" style="stop-color:#333B8C"/>
		<stop  offset="0.3387" style="stop-color:#313685"/>
		<stop  offset="0.349" style="stop-color:#323887"/>
		<stop  offset="0.3598" style="stop-color:#323F8C"/>
		<stop  offset="0.3709" style="stop-color:#324C96"/>
		<stop  offset="0.3822" style="stop-color:#315EA4"/>
		<stop  offset="0.3937" style="stop-color:#3175B7"/>
		<stop  offset="0.4051" style="stop-color:#3693CE"/>
		<stop  offset="0.4165" style="stop-color:#44B5E8"/>
		<stop  offset="0.4727" style="stop-color:#FFFFFF"/>
	</linearGradient>
	<path class="st25" d="M17.42,96.33l3.08-14.55h33.4l2.23-10.39H19.02c-2.03,0-3.93,0.74-5.72,2.23c-1.78,1.44-2.87,3.17-3.27,5.2
		l-4.21,19.7c0.37,0.03,0.74,0.05,1.11,0.05C11.66,98.56,14.51,97.02,17.42,96.33z"/>
	<linearGradient id="SVGID_26_" gradientUnits="userSpaceOnUse" x1="83.0199" y1="-16.051" x2="83.8679" y2="226.4786">
		<stop  offset="0" style="stop-color:#344395"/>
		<stop  offset="0.2083" style="stop-color:#333B8C"/>
		<stop  offset="0.3387" style="stop-color:#313685"/>
		<stop  offset="0.349" style="stop-color:#323887"/>
		<stop  offset="0.3598" style="stop-color:#323F8C"/>
		<stop  offset="0.3709" style="stop-color:#324C96"/>
		<stop  offset="0.3822" style="stop-color:#315EA4"/>
		<stop  offset="0.3937" style="stop-color:#3175B7"/>
		<stop  offset="0.4051" style="stop-color:#3693CE"/>
		<stop  offset="0.4165" style="stop-color:#44B5E8"/>
		<stop  offset="0.4727" style="stop-color:#FFFFFF"/>
	</linearGradient>
	<path class="st26" d="M78.85,96.81l7.04-11.54l2.45,13.03c0.27,0.03,0.51,0.04,0.68,0.04c1.32,0,6.18,0.64,7.5,0.64
		c0.41,0,2.17-0.35,4.39-0.84L95.92,71.4h-14.1l-15.9,25.94c2.79-0.55,5.18-1.11,5.18-1.11C73.14,96.23,76.3,96.52,78.85,96.81z"/>
	<linearGradient id="SVGID_27_" gradientUnits="userSpaceOnUse" x1="127.8187" y1="-16.2077" x2="128.6667" y2="226.322">
		<stop  offset="0" style="stop-color:#344395"/>
		<stop  offset="0.2083" style="stop-color:#333B8C"/>
		<stop  offset="0.3387" style="stop-color:#313685"/>
		<stop  offset="0.349" style="stop-color:#323887"/>
		<stop  offset="0.3598" style="stop-color:#323F8C"/>
		<stop  offset="0.3709" style="stop-color:#324C96"/>
		<stop  offset="0.3822" style="stop-color:#315EA4"/>
		<stop  offset="0.3937" style="stop-color:#3175B7"/>
		<stop  offset="0.4051" style="stop-color:#3693CE"/>
		<stop  offset="0.4165" style="stop-color:#44B5E8"/>
		<stop  offset="0.4727" style="stop-color:#FFFFFF"/>
	</linearGradient>
	<path class="st27" d="M127.06,98.19l0.17-0.82l0.2,0.72c2.91-0.7,5.43-2.08,7.93-2.08c3.23,0,3.14,2.48,4.79,2.9L132.8,71.4h-11.13
		l-5.4,25.35c2.15,0.77,4.96,1.6,7.37,1.74C124.86,98.56,125.99,98.43,127.06,98.19z"/>
	<linearGradient id="SVGID_28_" gradientUnits="userSpaceOnUse" x1="162.9445" y1="-16.3305" x2="163.7924" y2="226.1992">
		<stop  offset="0" style="stop-color:#344395"/>
		<stop  offset="0.2083" style="stop-color:#333B8C"/>
		<stop  offset="0.3387" style="stop-color:#313685"/>
		<stop  offset="0.349" style="stop-color:#323887"/>
		<stop  offset="0.3598" style="stop-color:#323F8C"/>
		<stop  offset="0.3709" style="stop-color:#324C96"/>
		<stop  offset="0.3822" style="stop-color:#315EA4"/>
		<stop  offset="0.3937" style="stop-color:#3175B7"/>
		<stop  offset="0.4051" style="stop-color:#3693CE"/>
		<stop  offset="0.4165" style="stop-color:#44B5E8"/>
		<stop  offset="0.4727" style="stop-color:#FFFFFF"/>
	</linearGradient>
	<path class="st28" d="M158.32,97.37c0.56,0.14,1.53,0.32,2.71,0.5l0.35-0.5l-0.11,0.54c3.48,0.54,8.63,1.13,10.82,1.11
		c0.04,0,0.08-0.01,0.12-0.01l5.88-27.61h-11.13l-18.43,26.29c0.51-0.12,0.99-0.22,1.35-0.31
		C151.95,96.89,156.11,96.82,158.32,97.37z"/>
	<linearGradient id="SVGID_29_" gradientUnits="userSpaceOnUse" x1="202.1501" y1="-16.4676" x2="202.9982" y2="226.0621">
		<stop  offset="0" style="stop-color:#344395"/>
		<stop  offset="0.2083" style="stop-color:#333B8C"/>
		<stop  offset="0.3387" style="stop-color:#313685"/>
		<stop  offset="0.349" style="stop-color:#323887"/>
		<stop  offset="0.3598" style="stop-color:#323F8C"/>
		<stop  offset="0.3709" style="stop-color:#324C96"/>
		<stop  offset="0.3822" style="stop-color:#315EA4"/>
		<stop  offset="0.3937" style="stop-color:#3175B7"/>
		<stop  offset="0.4051" style="stop-color:#3693CE"/>
		<stop  offset="0.4165" style="stop-color:#44B5E8"/>
		<stop  offset="0.4727" style="stop-color:#FFFFFF"/>
	</linearGradient>
	<path class="st29" d="M193.62,96.23c3.57-0.12,6.62,0.81,9.27,1.14c2.65,0.34,13.68,0,13.68,0l3.45,0.43l1.84-8.59h-29.69
		l1.56-7.42h29.69l2.23-10.39h-33.4c-2.03,0-3.93,0.74-5.71,2.23c-1.78,1.44-2.87,3.17-3.27,5.2l-3.92,18.32
		c1.67,0.15,3.76,1.85,5.45,1.85C186.56,98.99,190.05,96.35,193.62,96.23z"/>
	<linearGradient id="SVGID_30_" gradientUnits="userSpaceOnUse" x1="250.0943" y1="-16.6352" x2="250.9423" y2="225.8945">
		<stop  offset="0" style="stop-color:#344395"/>
		<stop  offset="0.2083" style="stop-color:#333B8C"/>
		<stop  offset="0.3387" style="stop-color:#313685"/>
		<stop  offset="0.349" style="stop-color:#323887"/>
		<stop  offset="0.3598" style="stop-color:#323F8C"/>
		<stop  offset="0.3709" style="stop-color:#324C96"/>
		<stop  offset="0.3822" style="stop-color:#315EA4"/>
		<stop  offset="0.3937" style="stop-color:#3175B7"/>
		<stop  offset="0.4051" style="stop-color:#3693CE"/>
		<stop  offset="0.4165" style="stop-color:#44B5E8"/>
		<stop  offset="0.4727" style="stop-color:#FFFFFF"/>
	</linearGradient>
	<path class="st30" d="M243.34,97.37c2.8-0.3,10.34,1.82,15.6,2.25c2.96,0.24,6.66-0.82,10.47-1.82l0.25-1.17
		c0.05-0.25,0.09-0.49,0.11-0.74c0.02-0.25,0.04-0.47,0.04-0.67c0-1.73-0.56-3.17-1.67-4.3c-1.11-1.14-2.56-1.71-4.34-1.71h-25.98
		l1.56-7.42h33.4l2.23-10.39H237.9c-2.03,0-3.93,0.74-5.71,2.23c-1.78,1.44-2.87,3.17-3.27,5.2l-2.89,13.36
		c-0.05,0.25-0.09,0.48-0.11,0.71c-0.03,0.22-0.04,0.46-0.04,0.71c0,1.68,0.56,3.11,1.67,4.27c0.43,0.45,0.93,0.79,1.47,1.07
		l3.89,0.49C232.9,99.41,240.54,97.67,243.34,97.37z"/>
	<linearGradient id="SVGID_31_" gradientUnits="userSpaceOnUse" x1="385.1956" y1="-17.1321" x2="386.0436" y2="225.3976">
		<stop  offset="0" style="stop-color:#344395"/>
		<stop  offset="0.2083" style="stop-color:#333B8C"/>
		<stop  offset="0.3387" style="stop-color:#313685"/>
		<stop  offset="0.349" style="stop-color:#323887"/>
		<stop  offset="0.3598" style="stop-color:#323F8C"/>
		<stop  offset="0.3709" style="stop-color:#324C96"/>
		<stop  offset="0.3822" style="stop-color:#315EA4"/>
		<stop  offset="0.3937" style="stop-color:#3175B7"/>
		<stop  offset="0.4051" style="stop-color:#3693CE"/>
		<stop  offset="0.4165" style="stop-color:#44B5E8"/>
		<stop  offset="0.4727" style="stop-color:#FFFFFF"/>
	</linearGradient>
	<path class="st31" d="M372.32,97.45l3.32-15.66h22.27l-3.19,15.05c8.21-0.12,9.45-0.69,11.31-0.8l3.68-17.22
		c0.05-0.25,0.09-0.49,0.11-0.74c0.02-0.25,0.04-0.47,0.04-0.67c0-1.73-0.56-3.17-1.67-4.31c-1.11-1.14-2.56-1.71-4.34-1.71h-29.69
		c-2.03,0-3.93,0.74-5.71,2.23c-1.78,1.44-2.87,3.17-3.27,5.2l-3.91,18.27c1.15,0.09,2.25,0.18,3.22,0.29
		C366.52,97.59,369.15,97.56,372.32,97.45z"/>
	<linearGradient id="SVGID_32_" gradientUnits="userSpaceOnUse" x1="436.5581" y1="-17.3117" x2="437.4061" y2="225.218">
		<stop  offset="0" style="stop-color:#344395"/>
		<stop  offset="0.2083" style="stop-color:#333B8C"/>
		<stop  offset="0.3387" style="stop-color:#313685"/>
		<stop  offset="0.349" style="stop-color:#323887"/>
		<stop  offset="0.3598" style="stop-color:#323F8C"/>
		<stop  offset="0.3709" style="stop-color:#324C96"/>
		<stop  offset="0.3822" style="stop-color:#315EA4"/>
		<stop  offset="0.3937" style="stop-color:#3175B7"/>
		<stop  offset="0.4051" style="stop-color:#3693CE"/>
		<stop  offset="0.4165" style="stop-color:#44B5E8"/>
		<stop  offset="0.4727" style="stop-color:#FFFFFF"/>
	</linearGradient>
	<path class="st32" d="M423.57,97.63l3.36-15.84h22.27l-3.05,14.41c1.02-0.26,1.94-0.43,2.65-0.4c1.85,0.09,5.03,0.47,8.4,0.82
		l3.81-17.81c0.05-0.25,0.09-0.49,0.11-0.74c0.02-0.25,0.04-0.47,0.04-0.67c0-1.73-0.56-3.17-1.67-4.31
		c-1.11-1.14-2.56-1.71-4.34-1.71h-29.69c-2.03,0-3.93,0.74-5.71,2.23c-1.78,1.44-2.87,3.17-3.27,5.2l-3.76,17.56
		c3.14,0.28,6.48,0.67,8.28,0.99C421.69,97.5,422.59,97.58,423.57,97.63z"/>
	<linearGradient id="SVGID_33_" gradientUnits="userSpaceOnUse" x1="510.8092" y1="-17.5713" x2="511.6572" y2="224.9584">
		<stop  offset="0" style="stop-color:#344395"/>
		<stop  offset="0.2083" style="stop-color:#333B8C"/>
		<stop  offset="0.3387" style="stop-color:#313685"/>
		<stop  offset="0.349" style="stop-color:#323887"/>
		<stop  offset="0.3598" style="stop-color:#323F8C"/>
		<stop  offset="0.3709" style="stop-color:#324C96"/>
		<stop  offset="0.3822" style="stop-color:#315EA4"/>
		<stop  offset="0.3937" style="stop-color:#3175B7"/>
		<stop  offset="0.4051" style="stop-color:#3693CE"/>
		<stop  offset="0.4165" style="stop-color:#44B5E8"/>
		<stop  offset="0.4727" style="stop-color:#FFFFFF"/>
	</linearGradient>
	<path class="st33" d="M507.65,99.44l1.44-2.07l-0.47,2.2c0.06,0.01,0.12,0.02,0.18,0.03c3.52,0.32,8.26-1.74,11.59-2.87l5.39-25.33
		h-11.13l-18.11,25.84C499.95,97.25,503.66,98.85,507.65,99.44z"/>
	<linearGradient id="SVGID_34_" gradientUnits="userSpaceOnUse" x1="475.3896" y1="-17.4474" x2="476.2376" y2="225.0822">
		<stop  offset="0" style="stop-color:#344395"/>
		<stop  offset="0.2083" style="stop-color:#333B8C"/>
		<stop  offset="0.3387" style="stop-color:#313685"/>
		<stop  offset="0.349" style="stop-color:#323887"/>
		<stop  offset="0.3598" style="stop-color:#323F8C"/>
		<stop  offset="0.3709" style="stop-color:#324C96"/>
		<stop  offset="0.3822" style="stop-color:#315EA4"/>
		<stop  offset="0.3937" style="stop-color:#3175B7"/>
		<stop  offset="0.4051" style="stop-color:#3693CE"/>
		<stop  offset="0.4165" style="stop-color:#44B5E8"/>
		<stop  offset="0.4727" style="stop-color:#FFFFFF"/>
	</linearGradient>
	<path class="st34" d="M474.8,98.08l0.15-0.71l0.2,0.74c2.81,0.25,5.51,0.45,7.62,0.45c1.75,0,3.38-0.12,4.93-0.29l-7.18-26.87
		h-11.13l-5.49,25.81c0.27,0.02,0.53,0.03,0.79,0.04C467.57,97.39,471.26,97.77,474.8,98.08z"/>
	<linearGradient id="SVGID_35_" gradientUnits="userSpaceOnUse" x1="342.1638" y1="-16.9816" x2="343.0119" y2="225.5481">
		<stop  offset="0" style="stop-color:#344395"/>
		<stop  offset="0.2083" style="stop-color:#333B8C"/>
		<stop  offset="0.3387" style="stop-color:#313685"/>
		<stop  offset="0.349" style="stop-color:#323887"/>
		<stop  offset="0.3598" style="stop-color:#323F8C"/>
		<stop  offset="0.3709" style="stop-color:#324C96"/>
		<stop  offset="0.3822" style="stop-color:#315EA4"/>
		<stop  offset="0.3937" style="stop-color:#3175B7"/>
		<stop  offset="0.4051" style="stop-color:#3693CE"/>
		<stop  offset="0.4165" style="stop-color:#44B5E8"/>
		<stop  offset="0.4727" style="stop-color:#FFFFFF"/>
	</linearGradient>
	<path class="st35" d="M348.16,96.44c0.76,0,2.3,0.05,4.21,0.13c-0.12-0.15-0.23-0.31-0.37-0.46c-1.11-1.14-2.56-1.71-4.34-1.71
		c2.03,0,3.91-0.72,5.64-2.15c1.78-1.48,2.89-3.24,3.34-5.27l1.78-8.16c0.05-0.25,0.09-0.49,0.11-0.74
		c0.02-0.25,0.04-0.47,0.04-0.67c0-1.73-0.56-3.17-1.67-4.31c-1.11-1.14-2.56-1.71-4.34-1.71l-24.57,0.06l-0.61,10.33h19.24
		l-1.56,7.42h-18.12l-0.46,7.78c4.78,1.01,9.31,2.21,9.31,2.21S345.95,96.44,348.16,96.44z"/>
	<linearGradient id="SVGID_36_" gradientUnits="userSpaceOnUse" x1="308.9628" y1="48.8458" x2="308.9628" y2="177.6771">
		<stop  offset="0.3014" style="stop-color:#0B001F"/>
		<stop  offset="0.3141" style="stop-color:#0D0222"/>
		<stop  offset="0.3274" style="stop-color:#100B2C"/>
		<stop  offset="0.3411" style="stop-color:#15183B"/>
		<stop  offset="0.3551" style="stop-color:#19274F"/>
		<stop  offset="0.3692" style="stop-color:#183968"/>
		<stop  offset="0.3835" style="stop-color:#084E86"/>
		<stop  offset="0.3976" style="stop-color:#0067AA"/>
		<stop  offset="0.4041" style="stop-color:#0075BD"/>
		<stop  offset="0.4145" style="stop-color:#007DC3"/>
		<stop  offset="0.4339" style="stop-color:#0096D4"/>
		<stop  offset="0.4537" style="stop-color:#44B5E8"/>
		<stop  offset="0.5734" style="stop-color:#FFFFFF"/>
	</linearGradient>
	<path class="st36" d="M317.26,95.59c-4.85,0-9.27,2.97-13.65,2.97c-4.38,0-2.24-2.33-6.65-2.33c-0.98,0-1.75,0.12-2.42,0.3
		l0.04,0.33l0.75,0.05l0.41,3.77l5.71,2.71l-2.53,19.96h22.87l1.59-26.98C320.96,95.92,318.71,95.59,317.26,95.59z"/>
	<linearGradient id="SVGID_37_" gradientUnits="userSpaceOnUse" x1="26.4116" y1="50.0936" x2="26.4116" y2="177.6696">
		<stop  offset="0.3014" style="stop-color:#0B001F"/>
		<stop  offset="0.3141" style="stop-color:#0D0222"/>
		<stop  offset="0.3274" style="stop-color:#100B2C"/>
		<stop  offset="0.3411" style="stop-color:#15183B"/>
		<stop  offset="0.3551" style="stop-color:#19274F"/>
		<stop  offset="0.3692" style="stop-color:#183968"/>
		<stop  offset="0.3835" style="stop-color:#084E86"/>
		<stop  offset="0.3976" style="stop-color:#0067AA"/>
		<stop  offset="0.4041" style="stop-color:#0075BD"/>
		<stop  offset="0.4145" style="stop-color:#007DC3"/>
		<stop  offset="0.4339" style="stop-color:#0096D4"/>
		<stop  offset="0.4537" style="stop-color:#44B5E8"/>
		<stop  offset="0.5734" style="stop-color:#FFFFFF"/>
	</linearGradient>
	<path class="st37" d="M48.36,96.02c-4.04,0.42-10.2,3.58-17.64,2.54c-3.24-0.45-4.89-0.98-6.05-1.43l-0.53,2.47h14.84l-2.82,13.36
		H13.9l3.52-16.63c-2.91,0.68-5.76,2.23-10.49,2.23c-0.37,0-0.74-0.02-1.11-0.05L2.1,115.93c-0.05,0.25-0.09,0.48-0.11,0.7
		c-0.03,0.22-0.04,0.46-0.04,0.71c0,1.68,0.56,3.11,1.67,4.27c1.11,1.16,2.56,1.74,4.34,1.74h37.11l5.8-27.21
		C50.08,95.99,49.25,95.92,48.36,96.02z"/>
	<linearGradient id="SVGID_38_" gradientUnits="userSpaceOnUse" x1="77.8055" y1="50.6545" x2="77.8055" y2="177.0616">
		<stop  offset="0.3014" style="stop-color:#0B001F"/>
		<stop  offset="0.3141" style="stop-color:#0D0222"/>
		<stop  offset="0.3274" style="stop-color:#100B2C"/>
		<stop  offset="0.3411" style="stop-color:#15183B"/>
		<stop  offset="0.3551" style="stop-color:#19274F"/>
		<stop  offset="0.3692" style="stop-color:#183968"/>
		<stop  offset="0.3835" style="stop-color:#084E86"/>
		<stop  offset="0.3976" style="stop-color:#0067AA"/>
		<stop  offset="0.4041" style="stop-color:#0075BD"/>
		<stop  offset="0.4145" style="stop-color:#007DC3"/>
		<stop  offset="0.4339" style="stop-color:#0096D4"/>
		<stop  offset="0.4537" style="stop-color:#44B5E8"/>
		<stop  offset="0.5734" style="stop-color:#FFFFFF"/>
	</linearGradient>
	<path class="st38" d="M100.92,98.15c-2.22,0.49-3.98,0.84-4.39,0.84c-1.32,0-6.18-0.64-7.5-0.64c-0.18,0-0.41-0.02-0.68-0.04
		l0.52,2.78H76.25l2.61-4.27c-2.55-0.29-5.71-0.58-7.76-0.58c0,0-2.4,0.56-5.18,1.11l-15.94,26.01h12.62l7.27-11.88h20.93
		l2.23,11.88h12.62L100.92,98.15z"/>
	<g>
		<linearGradient id="SVGID_39_" gradientUnits="userSpaceOnUse" x1="118.9231" y1="52.031" x2="118.9231" y2="175.854">
			<stop  offset="0.3014" style="stop-color:#0B001F"/>
			<stop  offset="0.3141" style="stop-color:#0D0222"/>
			<stop  offset="0.3274" style="stop-color:#100B2C"/>
			<stop  offset="0.3411" style="stop-color:#15183B"/>
			<stop  offset="0.3551" style="stop-color:#19274F"/>
			<stop  offset="0.3692" style="stop-color:#183968"/>
			<stop  offset="0.3835" style="stop-color:#084E86"/>
			<stop  offset="0.3976" style="stop-color:#0067AA"/>
			<stop  offset="0.4041" style="stop-color:#0075BD"/>
			<stop  offset="0.4145" style="stop-color:#007DC3"/>
			<stop  offset="0.4339" style="stop-color:#0096D4"/>
			<stop  offset="0.4537" style="stop-color:#44B5E8"/>
			<stop  offset="0.5734" style="stop-color:#FFFFFF"/>
		</linearGradient>
		<path class="st39" d="M123.65,98.49c-2.42-0.15-5.23-0.98-7.37-1.74l-5.66,26.61h11.13l5.49-25.98l-0.17,0.82
			C125.99,98.43,124.86,98.56,123.65,98.49z"/>
		<linearGradient id="SVGID_40_" gradientUnits="userSpaceOnUse" x1="164.0428" y1="53.7175" x2="164.0428" y2="174.6126">
			<stop  offset="0.3014" style="stop-color:#0B001F"/>
			<stop  offset="0.3141" style="stop-color:#0D0222"/>
			<stop  offset="0.3274" style="stop-color:#100B2C"/>
			<stop  offset="0.3411" style="stop-color:#15183B"/>
			<stop  offset="0.3551" style="stop-color:#19274F"/>
			<stop  offset="0.3692" style="stop-color:#183968"/>
			<stop  offset="0.3835" style="stop-color:#084E86"/>
			<stop  offset="0.3976" style="stop-color:#0067AA"/>
			<stop  offset="0.4041" style="stop-color:#0075BD"/>
			<stop  offset="0.4145" style="stop-color:#007DC3"/>
			<stop  offset="0.4339" style="stop-color:#0096D4"/>
			<stop  offset="0.4537" style="stop-color:#44B5E8"/>
			<stop  offset="0.5734" style="stop-color:#FFFFFF"/>
		</linearGradient>
		<path class="st40" d="M172.08,99.02c-2.19,0.02-7.34-0.57-10.82-1.11l0.11-0.54l-5.49,25.98h11.13l5.18-24.34
			C172.16,99.01,172.12,99.02,172.08,99.02z"/>
		<linearGradient id="SVGID_41_" gradientUnits="userSpaceOnUse" x1="144.3067" y1="50.0797" x2="144.3067" y2="177.2905">
			<stop  offset="0.3014" style="stop-color:#0B001F"/>
			<stop  offset="0.3141" style="stop-color:#0D0222"/>
			<stop  offset="0.3274" style="stop-color:#100B2C"/>
			<stop  offset="0.3411" style="stop-color:#15183B"/>
			<stop  offset="0.3551" style="stop-color:#19274F"/>
			<stop  offset="0.3692" style="stop-color:#183968"/>
			<stop  offset="0.3835" style="stop-color:#084E86"/>
			<stop  offset="0.3976" style="stop-color:#0067AA"/>
			<stop  offset="0.4041" style="stop-color:#0075BD"/>
			<stop  offset="0.4145" style="stop-color:#007DC3"/>
			<stop  offset="0.4339" style="stop-color:#0096D4"/>
			<stop  offset="0.4537" style="stop-color:#44B5E8"/>
			<stop  offset="0.5734" style="stop-color:#FFFFFF"/>
		</linearGradient>
		<path class="st41" d="M158.32,97.37c-2.21-0.55-6.37-0.48-8.45,0c-0.37,0.08-0.84,0.19-1.35,0.31l-6.29,8.97l-2.07-7.73
			c-1.65-0.42-1.56-2.9-4.79-2.9c-2.51,0-5.02,1.38-7.93,2.08l-0.2-0.72l7.13,25.98h8.91l18.11-25.98l-0.35,0.5
			C159.85,97.69,158.88,97.51,158.32,97.37z"/>
	</g>
	<linearGradient id="SVGID_42_" gradientUnits="userSpaceOnUse" x1="197.6036" y1="50.4189" x2="197.6036" y2="176.8902">
		<stop  offset="0.3014" style="stop-color:#0B001F"/>
		<stop  offset="0.3141" style="stop-color:#0D0222"/>
		<stop  offset="0.3274" style="stop-color:#100B2C"/>
		<stop  offset="0.3411" style="stop-color:#15183B"/>
		<stop  offset="0.3551" style="stop-color:#19274F"/>
		<stop  offset="0.3692" style="stop-color:#183968"/>
		<stop  offset="0.3835" style="stop-color:#084E86"/>
		<stop  offset="0.3976" style="stop-color:#0067AA"/>
		<stop  offset="0.4041" style="stop-color:#0075BD"/>
		<stop  offset="0.4145" style="stop-color:#007DC3"/>
		<stop  offset="0.4339" style="stop-color:#0096D4"/>
		<stop  offset="0.4537" style="stop-color:#44B5E8"/>
		<stop  offset="0.5734" style="stop-color:#FFFFFF"/>
	</linearGradient>
	<path class="st42" d="M219.64,99.6l0.39-1.8l-3.45-0.43c0,0-11.03,0.34-13.68,0c-2.65-0.34-5.69-1.27-9.27-1.14
		c-3.57,0.12-7.06,2.76-8.83,2.76c-1.69,0-3.78-1.7-5.45-1.85l-4.02,18.79c-0.05,0.25-0.09,0.48-0.11,0.7
		c-0.03,0.22-0.04,0.46-0.04,0.71c0,1.68,0.56,3.11,1.67,4.27c1.11,1.16,2.56,1.74,4.34,1.74h33.4l2.23-10.39h-29.69l2.82-13.36
		H219.64z"/>
	<g>
		<linearGradient id="SVGID_43_" gradientUnits="userSpaceOnUse" x1="228.6423" y1="97.7188" x2="228.6423" y2="99.8079">
			<stop  offset="0.3014" style="stop-color:#0B001F"/>
			<stop  offset="0.3141" style="stop-color:#0D0222"/>
			<stop  offset="0.3274" style="stop-color:#100B2C"/>
			<stop  offset="0.3411" style="stop-color:#15183B"/>
			<stop  offset="0.3551" style="stop-color:#19274F"/>
			<stop  offset="0.3692" style="stop-color:#183968"/>
			<stop  offset="0.3835" style="stop-color:#084E86"/>
			<stop  offset="0.3976" style="stop-color:#0067AA"/>
			<stop  offset="0.4041" style="stop-color:#0075BD"/>
			<stop  offset="0.4145" style="stop-color:#007DC3"/>
			<stop  offset="0.4339" style="stop-color:#0096D4"/>
			<stop  offset="0.4537" style="stop-color:#44B5E8"/>
			<stop  offset="0.5734" style="stop-color:#FFFFFF"/>
		</linearGradient>
		<path class="st43" d="M228.27,98.48c0.23,0.17,0.48,0.32,0.74,0.45C228.76,98.79,228.51,98.64,228.27,98.48z"/>
		<linearGradient id="SVGID_44_" gradientUnits="userSpaceOnUse" x1="244.4147" y1="53.3587" x2="244.4147" y2="174.605">
			<stop  offset="0.3014" style="stop-color:#0B001F"/>
			<stop  offset="0.3141" style="stop-color:#0D0222"/>
			<stop  offset="0.3274" style="stop-color:#100B2C"/>
			<stop  offset="0.3411" style="stop-color:#15183B"/>
			<stop  offset="0.3551" style="stop-color:#19274F"/>
			<stop  offset="0.3692" style="stop-color:#183968"/>
			<stop  offset="0.3835" style="stop-color:#084E86"/>
			<stop  offset="0.3976" style="stop-color:#0067AA"/>
			<stop  offset="0.4041" style="stop-color:#0075BD"/>
			<stop  offset="0.4145" style="stop-color:#007DC3"/>
			<stop  offset="0.4339" style="stop-color:#0096D4"/>
			<stop  offset="0.4537" style="stop-color:#44B5E8"/>
			<stop  offset="0.5734" style="stop-color:#FFFFFF"/>
		</linearGradient>
		<path class="st44" d="M258.94,99.62c-5.26-0.42-12.8-2.54-15.6-2.25c-2.8,0.3-10.44,2.04-10.44,2.04l-3.89-0.49
			c0.84,0.43,1.79,0.68,2.87,0.68h25.98l-2.82,13.36h-33.4l-2.23,10.39h37.11c1.98,0,3.88-0.72,5.72-2.15
			c1.78-1.48,2.87-3.24,3.27-5.27l3.91-18.13C265.61,98.8,261.91,99.86,258.94,99.62z"/>
	</g>
	<linearGradient id="SVGID_45_" gradientUnits="userSpaceOnUse" x1="381.5534" y1="49.5792" x2="381.5534" y2="176.9171">
		<stop  offset="0.3014" style="stop-color:#0B001F"/>
		<stop  offset="0.3141" style="stop-color:#0D0222"/>
		<stop  offset="0.3274" style="stop-color:#100B2C"/>
		<stop  offset="0.3411" style="stop-color:#15183B"/>
		<stop  offset="0.3551" style="stop-color:#19274F"/>
		<stop  offset="0.3692" style="stop-color:#183968"/>
		<stop  offset="0.3835" style="stop-color:#084E86"/>
		<stop  offset="0.3976" style="stop-color:#0067AA"/>
		<stop  offset="0.4041" style="stop-color:#0075BD"/>
		<stop  offset="0.4145" style="stop-color:#007DC3"/>
		<stop  offset="0.4339" style="stop-color:#0096D4"/>
		<stop  offset="0.4537" style="stop-color:#44B5E8"/>
		<stop  offset="0.5734" style="stop-color:#FFFFFF"/>
	</linearGradient>
	<path class="st45" d="M394.72,96.84l-3.42,16.12h-22.27l3.29-15.51c-3.17,0.11-5.81,0.14-7.83-0.07c-0.98-0.1-2.07-0.2-3.22-0.29
		l-4.03,18.84c-0.05,0.25-0.09,0.48-0.11,0.7c-0.03,0.22-0.04,0.46-0.04,0.71c0,1.68,0.56,3.11,1.67,4.27
		c1.11,1.16,2.56,1.74,4.34,1.74h29.69c1.98,0,3.88-0.72,5.72-2.15c1.78-1.48,2.87-3.24,3.27-5.27l4.26-19.89
		C404.17,96.16,402.92,96.73,394.72,96.84z"/>
	<linearGradient id="SVGID_46_" gradientUnits="userSpaceOnUse" x1="432.7769" y1="48.841" x2="432.7769" y2="177.2891">
		<stop  offset="0.3014" style="stop-color:#0B001F"/>
		<stop  offset="0.3141" style="stop-color:#0D0222"/>
		<stop  offset="0.3274" style="stop-color:#100B2C"/>
		<stop  offset="0.3411" style="stop-color:#15183B"/>
		<stop  offset="0.3551" style="stop-color:#19274F"/>
		<stop  offset="0.3692" style="stop-color:#183968"/>
		<stop  offset="0.3835" style="stop-color:#084E86"/>
		<stop  offset="0.3976" style="stop-color:#0067AA"/>
		<stop  offset="0.4041" style="stop-color:#0075BD"/>
		<stop  offset="0.4145" style="stop-color:#007DC3"/>
		<stop  offset="0.4339" style="stop-color:#0096D4"/>
		<stop  offset="0.4537" style="stop-color:#44B5E8"/>
		<stop  offset="0.5734" style="stop-color:#FFFFFF"/>
	</linearGradient>
	<path class="st46" d="M448.79,95.81c-0.71-0.03-1.62,0.13-2.65,0.4l-3.55,16.76h-22.27l3.25-15.33c-0.98-0.06-1.88-0.13-2.59-0.26
		c-1.79-0.32-5.13-0.71-8.28-0.99l-4.18,19.55c-0.05,0.25-0.09,0.48-0.11,0.7c-0.03,0.22-0.04,0.46-0.04,0.71
		c0,1.68,0.56,3.11,1.67,4.27c1.11,1.16,2.56,1.74,4.34,1.74h29.69c1.98,0,3.88-0.72,5.71-2.15c1.78-1.48,2.87-3.24,3.27-5.27
		l4.13-19.3C453.81,96.27,450.63,95.9,448.79,95.81z"/>
	<g>
		<linearGradient id="SVGID_47_" gradientUnits="userSpaceOnUse" x1="466.56" y1="52.658" x2="466.56" y2="174.3125">
			<stop  offset="0.3014" style="stop-color:#0B001F"/>
			<stop  offset="0.3141" style="stop-color:#0D0222"/>
			<stop  offset="0.3274" style="stop-color:#100B2C"/>
			<stop  offset="0.3411" style="stop-color:#15183B"/>
			<stop  offset="0.3551" style="stop-color:#19274F"/>
			<stop  offset="0.3692" style="stop-color:#183968"/>
			<stop  offset="0.3835" style="stop-color:#084E86"/>
			<stop  offset="0.3976" style="stop-color:#0067AA"/>
			<stop  offset="0.4041" style="stop-color:#0075BD"/>
			<stop  offset="0.4145" style="stop-color:#007DC3"/>
			<stop  offset="0.4339" style="stop-color:#0096D4"/>
			<stop  offset="0.4537" style="stop-color:#44B5E8"/>
			<stop  offset="0.5734" style="stop-color:#FFFFFF"/>
		</linearGradient>
		<path class="st47" d="M464.67,97.25c-0.26-0.01-0.52-0.03-0.79-0.04l-5.56,26.14h11.13l5.34-25.27
			C471.26,97.77,467.57,97.39,464.67,97.25z"/>
		<linearGradient id="SVGID_48_" gradientUnits="userSpaceOnUse" x1="511.9968" y1="51.3564" x2="511.9968" y2="175.2507">
			<stop  offset="0.3014" style="stop-color:#0B001F"/>
			<stop  offset="0.3141" style="stop-color:#0D0222"/>
			<stop  offset="0.3274" style="stop-color:#100B2C"/>
			<stop  offset="0.3411" style="stop-color:#15183B"/>
			<stop  offset="0.3551" style="stop-color:#19274F"/>
			<stop  offset="0.3692" style="stop-color:#183968"/>
			<stop  offset="0.3835" style="stop-color:#084E86"/>
			<stop  offset="0.3976" style="stop-color:#0067AA"/>
			<stop  offset="0.4041" style="stop-color:#0075BD"/>
			<stop  offset="0.4145" style="stop-color:#007DC3"/>
			<stop  offset="0.4339" style="stop-color:#0096D4"/>
			<stop  offset="0.4537" style="stop-color:#44B5E8"/>
			<stop  offset="0.5734" style="stop-color:#FFFFFF"/>
		</linearGradient>
		<path class="st48" d="M508.81,99.6c-0.06-0.01-0.12-0.02-0.18-0.03l0.47-2.2l-5.49,25.98h11.13l5.67-26.62
			C517.07,97.87,512.33,99.93,508.81,99.6z"/>
		<linearGradient id="SVGID_49_" gradientUnits="userSpaceOnUse" x1="492.0184" y1="52.7224" x2="492.0184" y2="174.266">
			<stop  offset="0.3014" style="stop-color:#0B001F"/>
			<stop  offset="0.3141" style="stop-color:#0D0222"/>
			<stop  offset="0.3274" style="stop-color:#100B2C"/>
			<stop  offset="0.3411" style="stop-color:#15183B"/>
			<stop  offset="0.3551" style="stop-color:#19274F"/>
			<stop  offset="0.3692" style="stop-color:#183968"/>
			<stop  offset="0.3835" style="stop-color:#084E86"/>
			<stop  offset="0.3976" style="stop-color:#0067AA"/>
			<stop  offset="0.4041" style="stop-color:#0075BD"/>
			<stop  offset="0.4145" style="stop-color:#007DC3"/>
			<stop  offset="0.4339" style="stop-color:#0096D4"/>
			<stop  offset="0.4537" style="stop-color:#44B5E8"/>
			<stop  offset="0.5734" style="stop-color:#FFFFFF"/>
		</linearGradient>
		<path class="st49" d="M496.54,97.24l-6.6,9.42l-2.24-8.38c-1.55,0.17-3.18,0.29-4.93,0.29c-2.11,0-4.81-0.2-7.62-0.45l-0.2-0.74
			l7.13,25.98h8.91l18.11-25.98l-1.44,2.07C503.66,98.85,499.95,97.25,496.54,97.24z"/>
	</g>
	<linearGradient id="SVGID_50_" gradientUnits="userSpaceOnUse" x1="340.0018" y1="49.783" x2="340.0018" y2="176.9079">
		<stop  offset="0.3014" style="stop-color:#0B001F"/>
		<stop  offset="0.3141" style="stop-color:#0D0222"/>
		<stop  offset="0.3274" style="stop-color:#100B2C"/>
		<stop  offset="0.3411" style="stop-color:#15183B"/>
		<stop  offset="0.3551" style="stop-color:#19274F"/>
		<stop  offset="0.3692" style="stop-color:#183968"/>
		<stop  offset="0.3835" style="stop-color:#084E86"/>
		<stop  offset="0.3976" style="stop-color:#0067AA"/>
		<stop  offset="0.4041" style="stop-color:#0075BD"/>
		<stop  offset="0.4145" style="stop-color:#007DC3"/>
		<stop  offset="0.4339" style="stop-color:#0096D4"/>
		<stop  offset="0.4537" style="stop-color:#44B5E8"/>
		<stop  offset="0.5734" style="stop-color:#FFFFFF"/>
	</linearGradient>
	<path class="st50" d="M352.37,96.57c-1.91-0.08-3.45-0.13-4.21-0.13c-2.21,0-12.36,2.76-12.36,2.76s-4.54-1.19-9.31-2.21
		l-0.15,2.61h16.5l-5.05,23.75h11.13l4.6-21.52c0.05-0.25,0.09-0.49,0.11-0.74c0.02-0.25,0.04-0.47,0.04-0.67
		c0-1.73-0.56-3.17-1.67-4.3C352.14,96.26,352.25,96.42,352.37,96.57z"/>
</g>
<g>
	
		<image style="overflow:visible;" width="1322" height="509" xlink:href="9D30221BA72E7DD6.png"  transform="matrix(0.24 0 0 0.24 104.323 -36.17)">
	</image>
</g>
</svg>
