<?xml version="1.0" encoding="utf-8"?>
<!-- Generator: Adobe Illustrator 23.0.2, SVG Export Plug-In . SVG Version: 6.00 Build 0)  -->
<svg version="1.1" id="Layer_1" xmlns="http://www.w3.org/2000/svg" xmlns:xlink="http://www.w3.org/1999/xlink" x="0px" y="0px"
	 viewBox="0 0 70.8 119.2" style="enable-background:new 0 0 70.8 119.2;" xml:space="preserve">
<style type="text/css">
	.st0{fill:#FFFFFF;}
</style>
<g>
	<path class="st0" d="M11,119.2c-2.9,0-5.7-1.1-7.7-3.2C1.1,114,0,111.2,0,108.3V9.4c0-5,4.1-9.1,9.1-9.1h18.6l14-0.3
		c3.2-0.1,6.2,1.1,8.4,3.3c2.3,2.2,3.5,5.2,3.6,8.4c0,4.6-0.1,5.5-0.3,6.1c-0.6,2.5-3.1,4.6-7.5,6.4c-1.5,0.6-2.4,2.2-2.1,3.7
		L48,50.4c0.1,0.6,0.6,1,1.2,1l4.4,0.2v-3.9c-1.9-1.5-2.8-3.3-2.5-5.2c0.4-2.5,2.3-4.4,4.8-4.9c1.7-0.3,3.5,0.1,4.9,1.3
		c1.4,1.1,2.1,2.8,2.1,4.5c0,1.2-0.5,2.8-2.7,4.3v4.2l4.5,0.3c3.7,0.2,6,2.8,6,6.7l0,0.3l-0.4,4.1c-0.3,3.6-2.5,6.8-5.7,8.4
		l-5.9,2.9c-0.3,0.1-0.4,0.4-0.4,0.7l3.2,31.5c0.3,3.1-0.7,6.1-2.7,8.4c-2,2.3-5,3.6-8.1,3.6L11,119.2C11,119.2,11,119.2,11,119.2z
		 M9.1,6.3C7.4,6.3,6,7.7,6,9.4v98.9c0,1.3,0.5,2.6,1.5,3.5c0.9,0.9,2.2,1.4,3.5,1.4c0,0,0,0,0,0l39.8-0.2c1.4,0,2.7-0.6,3.6-1.6
		c0.9-1,1.4-2.4,1.2-3.8l-3.2-31.5c-0.3-2.8,1.2-5.4,3.7-6.7l5.9-2.9c1.4-0.7,2.3-2,2.4-3.5l0.3-4c0-0.3,0-0.5-0.1-0.6
		c-0.1,0-0.2,0-0.3,0l-10.2-0.7l-5.3-0.2c-3.4-0.2-6.2-2.6-6.8-5.9L37.8,29c-0.8-4.4,1.6-8.7,5.7-10.4c2.7-1.1,3.7-2,3.9-2.3
		c0-0.3,0.1-1.4,0.1-4.6c0-1.6-0.6-3-1.7-4.1C44.8,6.5,43.3,6,41.7,6L27.7,6.3H9.1z"/>
</g>
</svg>
