<?xml version="1.0" encoding="utf-8"?>
<!-- Generator: Adobe Illustrator 23.0.2, SVG Export Plug-In . SVG Version: 6.00 Build 0)  -->
<svg version="1.1" id="Layer_1" xmlns="http://www.w3.org/2000/svg" xmlns:xlink="http://www.w3.org/1999/xlink" x="0px" y="0px"
	 viewBox="0 0 24 24" style="enable-background:new 0 0 24 24;" xml:space="preserve">
<style type="text/css">
	.st0{fill:#707070;}
</style>
<title  id="simpleicons-instagram-icon">Instagram icon</title>
<path class="st0" d="M12,0C8.7,0,8.3,0,7.1,0.1C5.8,0.2,5,0.4,4.2,0.7C3.4,1,2.7,1.4,2.1,2.1C1.4,2.8,1,3.4,0.7,4.2
	C0.4,5,0.2,5.8,0.1,7.1S0,8.8,0,12s0,3.7,0.1,4.9c0.1,1.3,0.3,2.1,0.6,2.9c0.3,0.8,0.7,1.5,1.4,2.1c0.7,0.7,1.3,1.1,2.1,1.4
	c0.8,0.3,1.6,0.5,2.9,0.6S8.8,24,12,24s3.7,0,4.9-0.1c1.3-0.1,2.1-0.3,2.9-0.6c0.8-0.3,1.5-0.7,2.1-1.4c0.7-0.7,1.1-1.3,1.4-2.1
	c0.3-0.8,0.5-1.6,0.6-2.9S24,15.2,24,12s0-3.7-0.1-4.9c-0.1-1.3-0.3-2.1-0.6-2.9c-0.3-0.8-0.7-1.5-1.4-2.1c-0.7-0.7-1.3-1.1-2.1-1.4
	c-0.8-0.3-1.6-0.5-2.9-0.6C15.7,0,15.3,0,12,0z M12,2.1c3.2,0,3.6,0,4.9,0.1c1.2,0.1,1.8,0.2,2.2,0.4c0.6,0.2,1,0.5,1.4,0.9
	s0.7,0.8,0.9,1.4c0.2,0.4,0.4,1.1,0.4,2.2c0.1,1.3,0.1,1.6,0.1,4.9s0,3.6-0.1,4.9c-0.1,1.2-0.3,1.8-0.4,2.2c-0.2,0.6-0.5,1-0.9,1.4
	s-0.8,0.7-1.4,0.9c-0.4,0.2-1.1,0.4-2.2,0.4c-1.3,0.1-1.6,0.1-4.9,0.1c-3.2,0-3.6,0-4.9-0.1c-1.2-0.1-1.8-0.3-2.2-0.4
	c-0.6-0.2-1-0.5-1.4-0.9s-0.7-0.8-0.9-1.4c-0.2-0.4-0.4-1.1-0.4-2.2c0-1.3-0.1-1.6-0.1-4.8c0-3.2,0-3.6,0.1-4.9C2.3,6,2.5,5.4,2.6,5
	c0.2-0.6,0.5-1,0.9-1.4s0.8-0.7,1.4-0.9C5.3,2.5,6,2.3,7.1,2.3C8.4,2.1,8.7,2.1,12,2.1L12,2.1z M12,5.8c-3.4,0-6.2,2.8-6.2,6.2
	c0,3.4,2.8,6.2,6.2,6.2c3.4,0,6.2-2.8,6.2-6.2S15.4,5.8,12,5.8z M12,16c-2.2,0-4-1.8-4-4s1.8-4,4-4s4,1.8,4,4S14.2,16,12,16z
	 M19.8,5.6c0,0.8-0.6,1.4-1.4,1.4S17,6.4,17,5.6s0.6-1.4,1.4-1.4C19.2,4.1,19.8,4.8,19.8,5.6z"/>
</svg>
