<?xml version="1.0" encoding="utf-8"?>
<!-- Generator: Adobe Illustrator 23.0.2, SVG Export Plug-In . SVG Version: 6.00 Build 0)  -->
<svg version="1.1" id="Layer_1" xmlns="http://www.w3.org/2000/svg" xmlns:xlink="http://www.w3.org/1999/xlink" x="0px" y="0px"
	 viewBox="0 0 528.2 125.3" style="enable-background:new 0 0 528.2 125.3;" xml:space="preserve">
<style type="text/css">
	.st0{fill:#707070;}
</style>
<g>
	<g>
		<path class="st0" d="M173.8,32.3C173.8,32.4,173.8,32.4,173.8,32.3c-0.1,0.2-0.2,0.3-0.4,0.3c-0.1,0.1-0.2,0.1-0.4,0.2
			c-0.9,0.4-1.7,0.8-2.6,1.1c-0.9,0.4-1.7,0.8-2.6,1.1c-1.3,0.5-2.5,1-3.8,1.5c-1.3,0.5-2.6,1-3.9,1.4c-2.1,0.8-4.1,1.5-6.2,2.2
			s-4.2,1.2-6.4,1.5c-0.4,0.1-0.8,0.1-1.3,0.2s-1,0-1.4,0c-0.5-0.1-0.9-0.2-1.2-0.4s-0.6-0.6-0.7-1.1c-0.1-0.5,0-1.1,0.3-1.6
			c0.3-0.5,0.6-1,0.8-1.5c0.8-1.2,1.6-2.5,2.6-3.6c0.9-1.2,1.9-2.3,2.8-3.4c1.9-2.3,3.8-4.5,5.7-6.6c1.9-2.2,3.9-4.3,5.9-6.5
			c1.9-2.1,3.9-4.2,5.9-6.2c0.8-0.8,1.6-1.7,2.4-2.5s1.6-1.6,2.5-2.4c0,0,0.1-0.1,0.2-0.2c0.1-0.1,0.3-0.2,0.5-0.4s0.3-0.2,0.5-0.3
			c0.1-0.1,0.2-0.1,0.2,0c0,0.1,0,0.2-0.1,0.3s-0.1,0.2-0.2,0.3c-0.8,1.2-1.6,2.4-2.5,3.5s-1.8,2.2-2.7,3.3
			c-1.8,2.3-3.7,4.5-5.6,6.6c-1.9,2.2-3.8,4.4-5.7,6.5c-1,1.1-2,2.3-2.9,3.4c-1,1.1-1.9,2.3-2.9,3.4c-0.5,0.6-1,1.2-1.5,1.7
			c-0.5,0.6-0.9,1.2-1.4,1.8c-0.5,0.6-0.9,1.2-1.4,1.7s-0.8,1.2-1.2,1.8c1.4,0,2.7-0.2,4.1-0.4c1.3-0.3,2.6-0.6,4-0.9
			c1.3-0.3,2.6-0.7,3.9-1.1c1.3-0.4,2.6-0.8,3.9-1.1c1.8-0.5,3.5-1.1,5.3-1.7c1.8-0.6,3.5-1.1,5.3-1.6c0,0,0.1,0,0.3-0.1
			s0.4-0.1,0.6-0.2c0.2-0.1,0.4-0.1,0.6-0.2C173.7,32.3,173.8,32.3,173.8,32.3z"/>
		<path class="st0" d="M145.8,44.5c-0.4,0-0.8,0-1.2-0.1c-0.8-0.1-1.6-0.4-2.2-0.8c-0.7-0.4-1.5-1.2-1.8-2.8c-0.2-1,0-2.1,0.5-3.2
			c0.3-0.6,0.6-1.1,0.9-1.6c0.9-1.4,1.8-2.7,2.8-3.9c0.9-1.2,1.9-2.3,2.8-3.5c1.9-2.3,3.8-4.5,5.8-6.7c1.9-2.2,3.9-4.4,6-6.5
			c1.9-2.1,3.9-4.2,5.9-6.2c0.8-0.8,1.6-1.7,2.4-2.5c0.8-0.8,1.7-1.7,2.6-2.5l0,0c0.1-0.1,0.2-0.2,0.3-0.3c0.2-0.2,0.4-0.3,0.6-0.5
			c0.3-0.2,0.5-0.4,0.8-0.5c1-0.5,1.9-0.3,2.3-0.2c0.6,0.2,1.1,0.7,1.3,1.2l0,0c0.4,0.9,0.4,1.9-0.2,2.8l-0.2,0.3
			c-0.8,1.2-1.6,2.5-2.6,3.7c-0.9,1.1-1.8,2.2-2.7,3.3c-1.8,2.2-3.7,4.5-5.6,6.7c-1.9,2.2-3.8,4.4-5.7,6.5l-2.9,3.4
			c-1,1.1-1.9,2.2-2.9,3.4c-0.5,0.6-1,1.1-1.4,1.7c-0.1,0.2-0.2,0.3-0.4,0.4c0.6-0.2,1.3-0.3,1.9-0.5c1.2-0.3,2.5-0.7,3.8-1
			c1.3-0.4,2.6-0.8,3.9-1.1c1.7-0.5,3.4-1.1,5.2-1.6c1.8-0.6,3.6-1.2,5.4-1.7c0,0,0.1,0,0.1,0l0.1,0c0.2-0.1,0.5-0.1,0.7-0.2
			c0.3-0.1,0.6-0.2,0.9-0.2c1.3-0.2,2.2,0.3,2.7,0.9c0.8,1,0.7,2.5-0.2,3.4c-0.1,0.1-0.1,0.1-0.2,0.2c-0.2,0.2-0.5,0.3-0.7,0.5
			c-0.1,0-0.2,0.1-0.2,0.1c-0.1,0.1-0.2,0.1-0.3,0.2c-0.9,0.4-1.7,0.7-2.5,1.1c-0.9,0.4-1.7,0.8-2.6,1.1c-1.3,0.5-2.6,1.1-3.9,1.6
			c-1.3,0.5-2.6,1-3.9,1.5c-2.1,0.8-4.2,1.5-6.3,2.2c-2.2,0.7-4.5,1.3-6.8,1.6c-0.4,0.1-0.9,0.1-1.4,0.2
			C146.4,44.5,146.1,44.5,145.8,44.5z"/>
	</g>
	<g>
		<path class="st0" d="M214.4,11.8c0.1,1.3-0.1,2.6-0.4,4s-0.9,2.8-1.5,4.1s-1.4,2.7-2.2,3.9s-1.6,2.4-2.4,3.4
			c-0.9,1.2-1.8,2.3-2.8,3.4c-1,1-2,2.1-3,3.1c-0.9,0.8-1.9,1.7-2.9,2.6s-2.1,1.7-3.2,2.4s-2.3,1.3-3.5,1.9
			c-1.2,0.5-2.4,0.9-3.6,1.1c-0.8,0.1-1.5,0.1-2.3,0c-0.8-0.1-1.4-0.4-2.1-0.9c-0.5-0.5-0.9-1-1.2-1.6s-0.4-1.2-0.5-1.9
			c-0.1-0.7-0.1-1.4,0-2.1s0.2-1.4,0.4-2c0.4-1.5,0.8-2.9,1.4-4.2c0.6-1.4,1.3-2.7,2.1-3.9c0.8-1.2,1.6-2.4,2.6-3.6s1.9-2.2,3-3.2
			c0.9-0.9,1.9-1.8,2.9-2.6c1-0.8,2.1-1.5,3.2-2.1c0.5-0.2,1.1-0.5,1.7-0.7c0.6-0.2,1.2-0.4,1.8-0.5c0.1,0,0.2,0,0.4-0.1
			s0.2,0,0.3,0.1s0.1,0.1-0.1,0.2c-0.1,0.1-0.2,0.1-0.2,0.2c-0.2,0.1-0.5,0.2-0.7,0.4c-0.2,0.1-0.4,0.2-0.7,0.4
			c-1.1,0.6-2.1,1.4-3.1,2.2c-1,0.8-1.9,1.7-2.8,2.6c-1,1-1.9,2-2.8,3.1c-0.9,1.1-1.7,2.3-2.5,3.5c-0.8,1.2-1.6,2.4-2.3,3.7
			c-0.7,1.3-1.4,2.7-1.9,4.1c-0.2,0.6-0.4,1.2-0.6,1.9c-0.2,0.7-0.3,1.4-0.3,2.1c0,0.7,0.2,1.3,0.4,1.9s0.8,1,1.5,1.2
			c0.7,0.2,1.4,0.3,2.1,0.1c0.7-0.2,1.4-0.4,2.1-0.7c1.2-0.5,2.2-1.1,3.3-1.9c1-0.7,2-1.5,3-2.4c1.4-1.2,2.9-2.5,4.4-4
			c1.5-1.5,3-3.1,4.4-4.8c1.4-1.7,2.8-3.5,3.9-5.4c1.2-1.9,2.2-3.8,2.9-5.7c0.2-0.5,0.4-1,0.5-1.6s0.2-1.1,0.2-1.7s-0.1-1.1-0.2-1.6
			c-0.2-0.5-0.5-1-0.9-1.4c-0.6-0.5-1.1-0.8-1.8-1c-0.7-0.2-1.3-0.2-2-0.2c-0.7,0-1.4,0.1-2,0.3c-0.7,0.2-1.3,0.4-2,0.6
			c-1.2,0.4-2.5,0.8-3.6,1.4s-2.3,1.2-3.4,1.9c-1.1,0.7-2.1,1.5-3,2.3c-0.9,0.8-1.9,1.7-2.8,2.5c-0.1,0-0.1,0.1-0.2,0.1
			c-0.1,0.1-0.1,0.1-0.2,0.1c-0.1,0-0.1,0-0.1-0.1c0.1-0.1,0.1-0.2,0.1-0.2c0.4-0.8,1-1.6,1.6-2.4s1.3-1.4,1.9-2.1
			c1-1,2-1.8,3.2-2.6c1.1-0.7,2.3-1.4,3.6-1.9c1.2-0.5,2.5-0.9,3.9-1.1s2.7-0.2,4-0.1c0.6,0.1,1.3,0.3,1.9,0.5s1.2,0.6,1.7,1.1
			c0.5,0.5,0.9,1.1,1.2,1.7C214.2,10.4,214.4,11,214.4,11.8z"/>
		<path class="st0" d="M187.6,44.2c-0.5,0-1,0-1.5-0.1c-1.2-0.2-2.2-0.7-3.2-1.4c-0.1,0-0.1-0.1-0.1-0.1c-0.8-0.7-1.4-1.6-1.8-2.5
			c-0.4-0.8-0.6-1.7-0.7-2.6c-0.1-0.8-0.1-1.7,0-2.6c0.1-0.8,0.2-1.6,0.4-2.3c0.4-1.6,0.9-3.2,1.6-4.7c0.7-1.5,1.4-2.9,2.2-4.2
			c0.9-1.4,1.8-2.6,2.8-3.8c0.5-0.6,0.9-1.1,1.4-1.7c-0.5-0.7-0.5-1.7-0.1-2.5c0-0.1,0.1-0.2,0.1-0.3c0.5-1,1.2-1.9,1.9-2.8
			c0.7-0.8,1.4-1.6,2.1-2.2c1.1-1.1,2.3-2,3.6-2.8c1.2-0.8,2.6-1.5,4-2.1c1.4-0.6,2.9-1,4.4-1.3c1.6-0.3,3.2-0.3,4.8-0.1
			c0.8,0.1,1.6,0.3,2.4,0.6c1,0.3,1.9,0.9,2.7,1.7c0.7,0.7,1.3,1.5,1.7,2.5c0.4,0.9,0.6,1.8,0.7,2.8c0,0,0,0,0,0.1
			c0.1,1.6-0.1,3.2-0.5,4.9c-0.4,1.5-1,3.1-1.7,4.6c-0.7,1.5-1.5,2.9-2.4,4.2c-0.8,1.3-1.7,2.5-2.5,3.5c-0.9,1.2-1.9,2.4-2.9,3.5
			c-1,1.1-2.1,2.2-3.2,3.2c-0.9,0.9-1.9,1.8-3,2.7c-1.1,0.9-2.3,1.8-3.5,2.6c-1.2,0.8-2.5,1.5-3.8,2.1c-1.4,0.6-2.8,1-4.2,1.3
			C188.7,44.1,188.2,44.2,187.6,44.2z M187,37.3C187,37.3,187,37.3,187,37.3c0.4,0.1,0.7,0.2,1,0.1c0.6-0.1,1.1-0.3,1.6-0.5
			c1-0.4,1.9-1,2.8-1.6c0.9-0.7,1.9-1.4,2.8-2.2c1.4-1.2,2.8-2.5,4.3-3.9c1.5-1.4,2.9-3,4.3-4.6c1.4-1.6,2.6-3.3,3.8-5.1
			c1.1-1.7,2-3.5,2.7-5.3c0.2-0.4,0.3-0.8,0.4-1.3c0.1-0.4,0.1-0.8,0.2-1.1c0-0.3,0-0.5-0.1-0.8c0-0.1-0.1-0.2-0.2-0.4
			c-0.2-0.2-0.4-0.3-0.7-0.4c-0.4-0.1-0.9-0.2-1.3-0.1c-0.5,0-1,0.1-1.5,0.2c-0.6,0.1-1.1,0.3-1.6,0.5c-0.1,0-0.1,0-0.2,0.1
			c-0.2,0.1-0.3,0.1-0.5,0.1c0.2,0.4,0.4,0.8,0.4,1.3c0,0.9-0.5,1.7-1.3,2.2c-0.1,0.1-0.2,0.2-0.4,0.3c-0.2,0.1-0.5,0.3-0.7,0.4
			c-0.2,0.1-0.4,0.2-0.6,0.3c-0.9,0.5-1.8,1.2-2.7,1.9c-0.9,0.7-1.8,1.6-2.6,2.4c-1,1-1.8,2-2.7,3c-0.8,1-1.6,2.1-2.3,3.2
			c0,0,0,0.1-0.1,0.1c-0.8,1.1-1.5,2.3-2.2,3.5c-0.7,1.2-1.2,2.4-1.8,3.8c-0.2,0.5-0.4,1.1-0.5,1.7c-0.1,0.5-0.2,1-0.2,1.5
			C186.9,36.9,186.9,37.1,187,37.3z M188.5,16.4L188.5,16.4L188.5,16.4z M188.5,16.4L188.5,16.4L188.5,16.4z M188.5,16.4L188.5,16.4
			L188.5,16.4z M189.7,14.6C189.7,14.6,189.7,14.6,189.7,14.6L189.7,14.6z M204.3,13.7L204.3,13.7L204.3,13.7z"/>
	</g>
	<g>
		<path class="st0" d="M264.4,2.5c0.1,0,0.1,0.1,0.1,0.1s-0.1,0.1-0.1,0.1c-0.1,0-0.1,0.1-0.2,0.1c-0.1,0-0.1,0.1-0.1,0.1
			c-0.8,0.4-1.5,0.9-2.1,1.6c-0.9,0.8-1.8,1.7-2.7,2.7c-1,1-2,2-3,3.1s-2,2.1-3.1,3.2c-1,1.1-2,2.2-3,3.3c-1,1.1-1.9,2.1-2.9,3.1
			c-0.9,1-1.8,2-2.6,2.8c-1.1,1.2-2.2,2.5-3.3,3.8c-1.1,1.2-2.2,2.5-3.3,3.8c-0.4,0.5-0.9,1-1.5,1.8c-0.6,0.7-1.3,1.5-1.9,2.2
			c-0.7,0.7-1.4,1.4-2,2.1c-0.7,0.7-1.3,1.1-1.9,1.5c-0.2,0.1-0.4,0.1-0.5,0.1c-0.2,0-0.4-0.2-0.5-0.3c-0.3-0.4-0.5-1-0.6-1.8
			c-0.1-0.8-0.1-1.6,0-2.5c0.1-0.9,0.2-1.7,0.4-2.6c0.2-0.8,0.3-1.5,0.4-2c0.4-1.8,0.9-3.6,1.4-5.3c0.5-1.7,1.1-3.5,1.8-5.2l0,0
			c-1.2,1.2-2.5,2.5-3.6,3.9c-1.2,1.3-2.3,2.6-3.5,4c-2.4,2.8-4.8,5.6-7.1,8.4c-2.3,2.8-4.6,5.8-6.8,8.8c-0.4,0.6-0.8,1.1-1.2,1.6
			s-0.9,1-1.3,1.6c-0.1,0.1-0.2,0.2-0.4,0.4c-0.1,0.2-0.2,0.3-0.4,0.3c-0.1,0-0.1-0.1-0.1-0.2c0-0.2,0.1-0.3,0.2-0.5
			s0.2-0.4,0.3-0.6s0.2-0.3,0.2-0.4c0.6-1.2,1.3-2.3,2.1-3.5c0.7-1.1,1.5-2.3,2.2-3.4c1.6-2.3,3.2-4.6,4.8-6.8s3.4-4.4,5.1-6.5
			c1.2-1.4,2.4-2.8,3.6-4.2c1.2-1.4,2.5-2.8,3.7-4.1c0.6-0.6,1.2-1.3,1.8-2s1.2-1.3,1.9-2c0.2-0.2,0.5-0.4,0.9-0.6
			c0.3-0.2,0.7-0.2,1,0c0.3,0.2,0.5,0.6,0.5,0.9c0,0.2,0,0.4-0.1,0.6c-0.1,0.2-0.2,0.4-0.3,0.6c-0.8,1.7-1.6,3.4-2.3,5.1
			c-0.7,1.7-1.4,3.5-2,5.2c-0.3,0.9-0.6,1.8-0.9,2.7s-0.6,1.8-0.8,2.7c-0.2,0.9-0.5,1.8-0.7,2.7c-0.2,0.9-0.4,1.8-0.5,2.7
			c0.9-0.6,1.7-1.3,2.4-2c0.7-0.8,1.4-1.5,2.1-2.3c1.9-2.1,3.8-4.1,5.5-6.2c1.8-2.1,3.6-4.2,5.5-6.4c0.6-0.7,1.4-1.5,2.3-2.4
			c0.9-0.9,1.9-1.9,2.9-2.8s1.9-1.9,2.9-2.8s1.8-1.7,2.4-2.3c0.7-0.6,1.4-1.2,2.1-1.8s1.4-1.2,2.1-1.7c0.6-0.5,1.3-1,2-1.4
			C262.9,3,263.6,2.7,264.4,2.5z"/>
		<path class="st0" d="M208.9,49.8c-0.8,0-1.6-0.4-2.1-1c-0.3-0.4-0.7-1.2-0.4-2.4c0.1-0.3,0.2-0.6,0.4-0.9c0.1-0.2,0.2-0.5,0.4-0.8
			c0.1-0.2,0.2-0.3,0.2-0.4c0.6-1.2,1.4-2.4,2.1-3.6c0.7-1.2,1.5-2.3,2.2-3.4c1.6-2.4,3.2-4.7,4.9-6.9c1.7-2.2,3.4-4.4,5.2-6.6
			c1.2-1.5,2.5-2.9,3.7-4.3c1.2-1.4,2.5-2.8,3.8-4.2c0.6-0.6,1.2-1.3,1.8-1.9c0.7-0.8,1.4-1.5,2.1-2.2c0.4-0.3,0.8-0.6,1.3-0.9
			c1.1-0.6,2.3-0.6,3.4-0.1c0.1,0.1,0.2,0.1,0.4,0.2c1,0.7,1.5,1.8,1.5,3c0,0.6-0.1,1.1-0.4,1.7c-0.1,0.2-0.2,0.4-0.2,0.5
			c0,0,0,0.1-0.1,0.1c-0.8,1.6-1.5,3.2-2.2,4.9c-0.7,1.7-1.3,3.4-2,5.1l-0.6,1.7c1.2-1.4,2.4-2.7,3.6-4.1c1.8-2.1,3.6-4.2,5.5-6.4
			c0.7-0.8,1.5-1.6,2.4-2.5c0.9-0.9,1.9-1.9,2.9-2.9c1-1,2-1.9,2.9-2.8c1-0.9,1.8-1.7,2.5-2.3c0.7-0.6,1.4-1.3,2.1-1.9
			c0.7-0.6,1.4-1.2,2.2-1.8c0.7-0.6,1.5-1.1,2.3-1.6c0.9-0.5,1.9-0.9,3-1.2c0.4-0.1,0.8-0.1,1.2,0c0.8,0.2,1.4,0.7,1.7,1.4
			c0.3,0.7,0.3,1.5,0,2.2c-0.2,0.4-0.5,0.7-0.8,1c-0.2,0.1-0.3,0.2-0.5,0.3c-0.1,0.1-0.2,0.1-0.2,0.2c-0.6,0.3-1,0.6-1.4,1
			c0,0-0.1,0.1-0.1,0.1C262.9,7.1,262,8,261,8.9c-1,1-1.9,2-3,3s-2,2.1-3.1,3.2c-1,1.1-2,2.2-3,3.3c-1,1.1-1.9,2.1-2.9,3.1
			c-0.9,1-1.8,2-2.6,2.8c-1.1,1.2-2.2,2.5-3.2,3.7c-1.1,1.3-2.2,2.5-3.3,3.8c-0.4,0.5-0.9,1-1.5,1.7c-0.6,0.8-1.3,1.5-2,2.2
			c-0.7,0.8-1.4,1.5-2.2,2.2c-0.8,0.8-1.6,1.4-2.4,1.8c-0.8,0.5-1.7,0.6-2.5,0.3c-0.4-0.1-0.9-0.4-1.3-0.7c-0.1-0.1-0.3-0.2-0.4-0.4
			c-0.7-0.8-1.1-1.9-1.2-3.2c-0.1-0.9-0.1-1.9,0-3c0.1-1,0.2-1.9,0.4-2.8c0.2-0.8,0.3-1.5,0.4-2c-2.2,2.6-4.5,5.3-6.6,7.9
			c-2.3,2.8-4.5,5.7-6.6,8.6c-0.4,0.6-0.9,1.2-1.4,1.8c-0.4,0.5-0.8,1-1.1,1.5c-0.1,0.1-0.2,0.2-0.2,0.3c0,0,0,0-0.1,0.1
			c-0.5,0.7-1.2,1.2-2,1.3C209.2,49.8,209.1,49.8,208.9,49.8z M207.2,45.6C207.2,45.6,207.2,45.6,207.2,45.6
			C207.2,45.6,207.2,45.6,207.2,45.6z M265.4,5.1C265.4,5.1,265.4,5.1,265.4,5.1C265.4,5.1,265.4,5.1,265.4,5.1z M265.9,4.7
			L265.9,4.7L265.9,4.7z M265.9,4.7L265.9,4.7L265.9,4.7z"/>
	</g>
	<g>
		<path class="st0" d="M296.9,8.8c1.2,0.6,2.1,1.4,2.8,2.4s0.9,2.2,0.7,3.7c-0.2,1-0.5,2-1.1,3s-1.2,2-1.9,3c-0.7,1-1.5,1.9-2.4,2.8
			c-0.8,0.9-1.6,1.7-2.4,2.5c-2.8,2.6-5.9,5-9.2,7c-3.3,2-6.8,3.7-10.4,5.1c-2.2,0.8-4.4,1.5-6.5,2c-2.1,0.5-4.1,0.9-5.9,1.2
			c-1.8,0.3-3.3,0.4-4.5,0.5S254,42,253.6,42c0,0-0.1,0-0.2,0s-0.2,0-0.4-0.1c-0.1,0-0.2-0.1-0.4-0.1s-0.1-0.1-0.1-0.1
			c0,0,0.1-0.1,0.4-0.1c0.3-0.1,0.7-0.1,1.1-0.2s0.8-0.1,1.1-0.2s0.6-0.1,0.6-0.1c2.5-0.5,5.2-1.1,8-1.9s5.6-1.8,8.4-2.9
			c2.8-1.2,5.5-2.5,8.1-4s5-3.1,7-5c1.2-1,2.4-2.1,3.6-3.2c1.2-1.1,2.3-2.1,3.3-3.2s1.9-2,2.7-3c0.8-1,1.4-1.9,1.8-2.7
			c0.4-0.9,0.6-1.6,0.6-2.4s-0.3-1.3-0.8-1.8c-0.7-0.6-1.6-0.9-2.8-1.2c-1.2-0.2-2.5-0.4-4-0.5s-3,0-4.6,0.1
			c-1.6,0.1-3.2,0.3-4.7,0.4c-1.5,0.2-2.9,0.4-4.2,0.6s-2.3,0.4-3.1,0.5c-1.8,0.3-3.6,0.6-5.2,1s-3.4,0.7-5.2,1c0,0-0.1,0-0.1,0
			c0,0-0.1,0,0-0.1c0,0,0.1-0.1,0.3-0.2c1.6-0.6,3.1-1.2,4.5-1.7c1.4-0.5,2.9-1,4.5-1.4c5-1.4,10.2-2.2,15.4-2.2
			c1.2,0,2.5,0.1,3.9,0.2C294.4,7.9,295.7,8.2,296.9,8.8z M264.1,33.8c-0.1,0-0.1-0.1,0-0.3c0-0.1,0.1-0.3,0.1-0.3
			c0.4-0.6,0.7-1.1,0.9-1.5c0.3-0.4,0.5-0.8,0.8-1.2c0.3-0.4,0.5-0.8,0.8-1.2c0.3-0.4,0.6-0.9,1-1.4c1.6-2.1,3.2-4.1,4.8-6.2
			s3.3-4.1,5-6c0.6-0.7,1.2-1.4,1.8-2s1.3-1.3,2-1.9c0.1,0,0.1-0.1,0.3-0.2c0.1-0.1,0.2-0.2,0.3-0.2s0.2-0.1,0.4-0.2s0.2,0,0.4,0
			c0.1,0.1,0.1,0.2,0.1,0.3c0,0.1,0,0.2-0.1,0.4s-0.1,0.3-0.2,0.4s-0.1,0.2-0.1,0.3c-0.4,0.8-0.9,1.6-1.5,2.3s-1.1,1.5-1.7,2.4
			c-1.6,2-3.3,4-5.1,6s-3.5,3.9-5.2,5.9c-0.8,0.8-1.5,1.5-2.1,2.3c-0.7,0.8-1.4,1.5-2.2,2.3c-0.1,0.1-0.2,0.2-0.3,0.2
			C264.2,33.8,264.1,33.8,264.1,33.8z"/>
		<path class="st0" d="M253.9,44.5c-0.2,0-0.3,0-0.4,0l0,0c-0.1,0-0.3,0-0.6-0.1c-0.1,0-0.3-0.1-0.5-0.1c-0.2,0-0.4-0.1-0.5-0.2
			c-1-0.3-1.7-1.2-1.8-2.2c0-0.3,0-0.7,0.1-1c0.5-1.5,1.9-1.7,2.4-1.8l1.1-0.2c0.4-0.1,0.8-0.1,1.2-0.2c0.2,0,0.4,0,0.5-0.1
			c2.4-0.4,5-1,7.7-1.8c2.7-0.8,5.5-1.7,8.1-2.8c2.7-1.1,5.3-2.4,7.8-3.8c2.5-1.4,4.7-3,6.7-4.7c1.2-1,2.4-2.1,3.6-3.1
			c1.1-1,2.2-2,3.2-3.1c1-1,1.8-2,2.5-2.9c0.7-0.8,1.2-1.6,1.5-2.3c0.3-0.6,0.4-1,0.4-1.2c-0.3-0.2-0.7-0.4-1.6-0.6
			c-1-0.2-2.2-0.4-3.5-0.4c-1.4-0.1-2.8,0-4.3,0.1c-0.8,0.1-1.5,0.1-2.2,0.2c0,0.1-0.1,0.3-0.1,0.4c-0.1,0.2-0.2,0.4-0.3,0.6
			c0,0,0-0.1,0-0.1c0,0.1-0.1,0.3-0.2,0.4c-0.5,0.9-1,1.7-1.6,2.5c-0.5,0.8-1.1,1.6-1.8,2.4c-1.7,2.1-3.4,4.2-5.2,6.1
			c-1.7,1.9-3.5,3.9-5.1,5.8c0,0-0.1,0.1-0.1,0.1c-0.7,0.8-1.4,1.5-2.1,2.2c-0.7,0.8-1.5,1.6-2.3,2.4c-0.2,0.2-0.5,0.4-0.8,0.6
			c-0.9,0.6-2.1,0.5-2.9-0.1c-0.9-0.6-1.5-1.8-0.9-3.2c0.1-0.2,0.2-0.4,0.2-0.6c0,0,0-0.1,0.1-0.1c0.4-0.6,0.7-1.2,1-1.6
			c0.3-0.4,0.6-0.9,0.8-1.3s0.5-0.8,0.8-1.2c0.3-0.4,0.6-0.9,1-1.4c1.6-2.1,3.2-4.2,4.8-6.3c1.6-2.1,3.4-4.2,5.1-6.2
			c0.1-0.1,0.2-0.2,0.3-0.4l-0.4,0.1c-1.8,0.3-3.5,0.6-5.1,1c-1.7,0.4-3.5,0.7-5.3,1c-0.1,0-0.3,0-0.4,0h-0.1
			c-0.9,0-1.7-0.5-2.2-1.2s-0.5-1.7-0.1-2.5c0.3-0.6,0.8-1,1.2-1.2c0.1-0.1,0.2-0.1,0.3-0.2c1.6-0.6,3.2-1.2,4.6-1.7
			c1.5-0.5,3.1-1,4.7-1.5c5.2-1.5,10.6-2.2,16-2.3c0,0,0,0,0,0c1.4,0,2.7,0.1,4.1,0.2c1.6,0.2,3.1,0.6,4.6,1.3c0,0,0,0,0,0
			c1.6,0.8,2.8,1.9,3.8,3.2c1,1.5,1.4,3.3,1.1,5.4c0,0,0,0.1,0,0.1c-0.2,1.2-0.7,2.5-1.3,3.7c-0.6,1.1-1.3,2.3-2.1,3.4
			c-0.8,1.1-1.6,2.1-2.5,3c-0.9,0.9-1.7,1.8-2.5,2.5c-3,2.8-6.2,5.3-9.6,7.3c-3.4,2.1-7.1,3.8-10.8,5.3c-2.3,0.8-4.6,1.5-6.8,2.1
			c-2.2,0.5-4.2,0.9-6.1,1.2s-3.4,0.5-4.7,0.5C255.1,44.5,254.4,44.5,253.9,44.5z M253.5,39.4L253.5,39.4L253.5,39.4z M265.5,31.7
			L265.5,31.7L265.5,31.7z"/>
	</g>
	<g>
		<path class="st0" d="M333,11.8c0.1,1.3-0.1,2.6-0.4,4s-0.9,2.8-1.5,4.1s-1.4,2.7-2.2,3.9s-1.6,2.4-2.4,3.4
			c-0.9,1.2-1.8,2.3-2.8,3.4c-1,1-2,2.1-3,3.1c-0.9,0.8-1.9,1.7-2.9,2.6c-1,0.9-2.1,1.7-3.2,2.4s-2.3,1.3-3.5,1.9
			c-1.2,0.5-2.4,0.9-3.6,1.1c-0.8,0.1-1.5,0.1-2.3,0c-0.8-0.1-1.5-0.4-2.1-0.9c-0.5-0.5-0.9-1-1.2-1.6s-0.4-1.2-0.5-1.9
			c-0.1-0.7-0.1-1.4,0-2.1s0.2-1.4,0.4-2c0.4-1.5,0.8-2.9,1.5-4.2c0.6-1.4,1.3-2.7,2.1-3.9c0.8-1.2,1.6-2.4,2.6-3.6
			c0.9-1.1,1.9-2.2,3-3.2c0.9-0.9,1.9-1.8,2.9-2.6c1-0.8,2-1.5,3.2-2.1c0.5-0.2,1.1-0.5,1.7-0.7c0.6-0.2,1.2-0.4,1.8-0.5
			c0.1,0,0.2,0,0.4-0.1c0.1,0,0.2,0,0.3,0.1s0.1,0.1-0.1,0.2c-0.1,0.1-0.2,0.1-0.2,0.2c-0.2,0.1-0.5,0.2-0.7,0.4
			c-0.2,0.1-0.4,0.2-0.7,0.4c-1.1,0.6-2.1,1.4-3.1,2.2c-1,0.8-1.9,1.7-2.8,2.6c-1,1-1.9,2-2.8,3.1c-0.9,1.1-1.7,2.3-2.5,3.5
			c-0.8,1.2-1.6,2.4-2.3,3.7c-0.7,1.3-1.4,2.7-1.9,4.1c-0.2,0.6-0.4,1.2-0.6,1.9c-0.2,0.7-0.3,1.4-0.3,2.1c0,0.7,0.2,1.3,0.4,1.9
			s0.8,1,1.5,1.2c0.7,0.2,1.4,0.3,2.1,0.1c0.7-0.2,1.4-0.4,2.1-0.7c1.2-0.5,2.2-1.1,3.3-1.9c1-0.7,2-1.5,3-2.4
			c1.4-1.2,2.9-2.5,4.4-4c1.5-1.5,3-3.1,4.4-4.8c1.4-1.7,2.8-3.5,4-5.4c1.2-1.9,2.2-3.8,2.9-5.7c0.2-0.5,0.4-1,0.5-1.6
			s0.2-1.1,0.2-1.7s-0.1-1.1-0.2-1.6c-0.2-0.5-0.5-1-0.9-1.4c-0.5-0.5-1.1-0.8-1.8-1c-0.7-0.2-1.3-0.2-2-0.2c-0.7,0-1.4,0.1-2,0.3
			c-0.7,0.2-1.3,0.4-2,0.6c-1.2,0.4-2.5,0.8-3.6,1.4s-2.3,1.2-3.4,1.9c-1.1,0.7-2.1,1.5-3,2.3c-0.9,0.8-1.9,1.7-2.8,2.5
			c-0.1,0-0.1,0.1-0.2,0.1c-0.1,0.1-0.1,0.1-0.2,0.1c-0.1,0-0.1,0,0-0.1s0.1-0.2,0.1-0.2c0.4-0.8,1-1.6,1.6-2.4
			c0.6-0.8,1.3-1.4,1.9-2.1c1-1,2-1.8,3.2-2.6c1.1-0.7,2.3-1.4,3.6-1.9c1.2-0.5,2.5-0.9,3.9-1.1s2.7-0.2,4-0.1
			c0.6,0.1,1.3,0.3,1.9,0.5s1.2,0.6,1.7,1.1c0.5,0.5,0.9,1.1,1.2,1.7C332.7,10.4,332.9,11,333,11.8z"/>
		<path class="st0" d="M306.2,44.2c-0.5,0-1,0-1.5-0.1c-1.2-0.2-2.2-0.7-3.2-1.4c0,0-0.1-0.1-0.1-0.1c-0.8-0.7-1.4-1.6-1.8-2.5
			c-0.4-0.8-0.6-1.7-0.7-2.6c-0.1-0.8-0.1-1.7,0-2.6c0.1-0.8,0.2-1.6,0.4-2.3c0.4-1.6,0.9-3.2,1.6-4.7c0.7-1.5,1.4-2.9,2.2-4.2
			c0.9-1.4,1.8-2.6,2.8-3.8c0.5-0.6,1-1.1,1.4-1.7c-0.5-0.7-0.5-1.7-0.1-2.5c0-0.1,0.1-0.2,0.1-0.3c0.5-1,1.2-1.9,1.9-2.8
			c0.7-0.8,1.4-1.6,2.1-2.2c1.1-1.1,2.3-2,3.5-2.8c1.2-0.8,2.6-1.5,4-2.1c1.4-0.6,2.9-1,4.4-1.3c1.6-0.3,3.2-0.3,4.8-0.1
			c0.8,0.1,1.6,0.3,2.4,0.6c1,0.3,1.9,0.9,2.7,1.7c0.7,0.7,1.3,1.5,1.7,2.5c0.4,0.9,0.6,1.8,0.7,2.8c0,0,0,0,0,0.1
			c0.1,1.6-0.1,3.2-0.5,4.9c-0.4,1.5-1,3.1-1.7,4.6c-0.7,1.5-1.5,2.9-2.4,4.2c-0.8,1.3-1.7,2.5-2.5,3.5c-0.9,1.2-1.9,2.4-2.9,3.5
			c-1,1.1-2.1,2.2-3.2,3.2c-0.9,0.9-1.9,1.8-3,2.7c-1.1,0.9-2.3,1.8-3.5,2.6c-1.2,0.8-2.5,1.5-3.8,2.1c-1.4,0.6-2.8,1-4.2,1.3
			C307.3,44.1,306.7,44.2,306.2,44.2z M305.6,37.3C305.6,37.3,305.6,37.3,305.6,37.3c0.4,0.1,0.7,0.2,1,0.1c0.6-0.1,1.1-0.3,1.6-0.5
			c1-0.4,1.9-1,2.8-1.6c0.9-0.7,1.9-1.4,2.8-2.2c1.4-1.2,2.8-2.5,4.3-3.9c1.5-1.4,2.9-3,4.3-4.6c1.4-1.6,2.6-3.3,3.8-5.1
			c1.1-1.7,2-3.5,2.7-5.3c0.2-0.4,0.3-0.8,0.4-1.3c0.1-0.4,0.1-0.8,0.2-1.1c0-0.3,0-0.5-0.1-0.8c0-0.1-0.1-0.2-0.2-0.4
			c-0.2-0.2-0.4-0.3-0.7-0.4c-0.4-0.1-0.9-0.2-1.3-0.1c-0.5,0-1,0.1-1.5,0.2c-0.5,0.1-1.1,0.3-1.6,0.5c0,0-0.1,0-0.2,0.1
			c-0.2,0.1-0.3,0.1-0.5,0.1c0.2,0.4,0.4,0.8,0.4,1.3c0,0.9-0.5,1.7-1.3,2.2c-0.1,0.1-0.2,0.2-0.4,0.3c-0.2,0.1-0.5,0.3-0.7,0.4
			c-0.2,0.1-0.4,0.2-0.6,0.3c-0.9,0.5-1.8,1.2-2.7,1.9c-0.9,0.7-1.8,1.6-2.6,2.4c-1,1-1.8,2-2.7,3c-0.8,1-1.6,2.1-2.3,3.2
			c0,0,0,0.1-0.1,0.1c-0.8,1.1-1.5,2.3-2.2,3.5c-0.7,1.2-1.2,2.4-1.8,3.8c-0.2,0.5-0.4,1.1-0.5,1.7c-0.1,0.5-0.2,1-0.2,1.5
			C305.4,36.9,305.5,37.1,305.6,37.3z M307,16.4L307,16.4L307,16.4z M307,16.4L307,16.4L307,16.4z M307,16.4L307,16.4L307,16.4z
			 M308.3,14.6C308.3,14.6,308.3,14.6,308.3,14.6L308.3,14.6z M322.8,13.7L322.8,13.7L322.8,13.7z"/>
	</g>
	<g>
		<path class="st0" d="M383,2.5c0.1,0,0.1,0.1,0.1,0.1S383,2.7,383,2.7c-0.1,0-0.1,0.1-0.2,0.1c-0.1,0-0.1,0.1-0.1,0.1
			c-0.8,0.4-1.5,0.9-2.1,1.6c-0.9,0.8-1.8,1.7-2.7,2.7c-1,1-2,2-3,3.1c-1,1.1-2,2.1-3.1,3.2c-1,1.1-2,2.2-3,3.3
			c-1,1.1-2,2.1-2.9,3.1c-0.9,1-1.8,2-2.6,2.8c-1.1,1.2-2.2,2.5-3.3,3.8c-1.1,1.2-2.2,2.5-3.3,3.8c-0.4,0.5-0.9,1-1.5,1.8
			c-0.6,0.7-1.3,1.5-1.9,2.2c-0.7,0.7-1.4,1.4-2,2.1s-1.3,1.1-1.9,1.5c-0.2,0.1-0.4,0.1-0.5,0.1c-0.2,0-0.4-0.2-0.5-0.3
			c-0.3-0.4-0.5-1-0.6-1.8c-0.1-0.8,0-1.6,0-2.5s0.2-1.7,0.4-2.6c0.2-0.8,0.3-1.5,0.4-2c0.4-1.8,0.9-3.6,1.4-5.3
			c0.5-1.7,1.1-3.5,1.8-5.2l0,0c-1.2,1.2-2.5,2.5-3.6,3.9c-1.2,1.3-2.3,2.6-3.5,4c-2.4,2.8-4.8,5.6-7.1,8.4
			c-2.3,2.8-4.6,5.8-6.8,8.8c-0.4,0.6-0.8,1.1-1.2,1.6c-0.4,0.5-0.9,1-1.3,1.6c-0.1,0.1-0.2,0.2-0.4,0.4c-0.1,0.2-0.2,0.3-0.4,0.3
			c-0.1,0-0.1-0.1-0.1-0.2c0-0.2,0.1-0.3,0.2-0.5s0.2-0.4,0.3-0.6s0.2-0.3,0.2-0.4c0.6-1.2,1.3-2.3,2-3.5c0.7-1.1,1.5-2.3,2.2-3.4
			c1.6-2.3,3.2-4.6,4.8-6.8c1.7-2.2,3.4-4.4,5.1-6.5c1.2-1.4,2.4-2.8,3.6-4.2c1.2-1.4,2.5-2.8,3.7-4.1c0.6-0.6,1.2-1.3,1.8-2
			s1.2-1.3,1.9-2c0.2-0.2,0.5-0.4,0.9-0.6c0.3-0.2,0.7-0.2,1,0c0.3,0.2,0.5,0.6,0.5,0.9c0,0.2,0,0.4-0.1,0.6s-0.2,0.4-0.3,0.6
			c-0.8,1.7-1.6,3.4-2.3,5.1c-0.7,1.7-1.4,3.5-2,5.2c-0.3,0.9-0.6,1.8-0.9,2.7c-0.3,0.9-0.6,1.8-0.8,2.7c-0.2,0.9-0.5,1.8-0.7,2.7
			c-0.2,0.9-0.4,1.8-0.5,2.7c0.9-0.6,1.7-1.3,2.4-2c0.7-0.8,1.4-1.5,2.1-2.3c1.9-2.1,3.8-4.1,5.5-6.2c1.8-2.1,3.6-4.2,5.5-6.4
			c0.6-0.7,1.4-1.5,2.3-2.4c0.9-0.9,1.9-1.9,2.9-2.8s2-1.9,2.9-2.8s1.8-1.7,2.4-2.3c0.7-0.6,1.4-1.2,2-1.8s1.4-1.2,2.1-1.7
			c0.6-0.5,1.3-1,2-1.4C381.4,3,382.2,2.7,383,2.5z"/>
		<path class="st0" d="M327.5,49.8c-0.8,0-1.6-0.4-2.1-1c-0.3-0.4-0.7-1.2-0.4-2.4c0.1-0.3,0.2-0.6,0.4-0.9c0.1-0.2,0.2-0.5,0.4-0.8
			c0.1-0.2,0.2-0.3,0.2-0.4c0.6-1.2,1.4-2.4,2.1-3.6c0.7-1.2,1.5-2.3,2.2-3.4c1.6-2.4,3.2-4.7,4.9-6.9c1.7-2.2,3.4-4.4,5.2-6.6
			c1.2-1.5,2.5-2.9,3.7-4.3c1.2-1.4,2.5-2.8,3.8-4.2c0.6-0.6,1.2-1.3,1.8-1.9c0.7-0.8,1.4-1.5,2.1-2.2c0.4-0.3,0.8-0.6,1.3-0.9
			c1-0.6,2.3-0.6,3.4-0.1c0.1,0.1,0.2,0.1,0.4,0.2c1,0.7,1.5,1.8,1.5,3c0,0.6-0.1,1.1-0.4,1.7c-0.1,0.2-0.2,0.4-0.2,0.5
			c0,0,0,0.1,0,0.1c-0.8,1.6-1.5,3.2-2.2,4.9c-0.7,1.7-1.3,3.4-2,5.1l-0.6,1.7c1.2-1.4,2.4-2.7,3.6-4.1c1.8-2.1,3.6-4.2,5.5-6.4
			c0.7-0.8,1.5-1.6,2.4-2.5c0.9-0.9,1.9-1.9,2.9-2.9c1-1,2-1.9,2.9-2.8c1-0.9,1.8-1.7,2.5-2.3c0.7-0.6,1.4-1.3,2.1-1.9
			c0.7-0.6,1.4-1.2,2.2-1.8c0.7-0.6,1.5-1.1,2.3-1.6c0.9-0.5,1.9-0.9,3-1.2c0.4-0.1,0.8-0.1,1.2,0c0.8,0.2,1.4,0.7,1.7,1.4
			c0.3,0.7,0.3,1.5,0,2.2c-0.2,0.4-0.5,0.7-0.8,1c-0.2,0.1-0.3,0.2-0.5,0.3c-0.1,0.1-0.2,0.1-0.2,0.2c-0.6,0.3-1,0.6-1.4,1
			c0,0-0.1,0.1-0.1,0.1c-0.8,0.8-1.7,1.7-2.7,2.7c-1,1-1.9,2-3,3s-2,2.1-3,3.2c-1,1.1-2,2.2-3,3.3c-1,1.1-1.9,2.1-2.9,3.1
			c-0.9,1-1.8,2-2.6,2.8c-1.1,1.2-2.2,2.5-3.2,3.7c-1.1,1.3-2.2,2.5-3.3,3.8c-0.4,0.5-0.9,1-1.5,1.7c-0.6,0.8-1.3,1.5-2,2.2
			c-0.7,0.8-1.4,1.5-2.2,2.2c-0.8,0.8-1.6,1.4-2.4,1.8c-0.8,0.5-1.7,0.6-2.5,0.3c-0.5-0.1-0.9-0.4-1.3-0.7c-0.1-0.1-0.3-0.2-0.4-0.4
			c-0.7-0.8-1-1.9-1.2-3.2c-0.1-0.9-0.1-1.9,0-3c0.1-1,0.2-1.9,0.4-2.8c0.2-0.8,0.3-1.5,0.4-2c-2.2,2.6-4.5,5.3-6.6,7.9
			c-2.3,2.8-4.5,5.7-6.6,8.6c-0.4,0.6-0.9,1.2-1.4,1.8c-0.4,0.5-0.8,1-1.1,1.5c-0.1,0.1-0.2,0.2-0.2,0.3c0,0,0,0-0.1,0.1
			c-0.5,0.7-1.2,1.2-2,1.3C327.7,49.8,327.6,49.8,327.5,49.8z M325.8,45.6C325.8,45.6,325.8,45.6,325.8,45.6
			C325.8,45.6,325.8,45.6,325.8,45.6z M383.9,5.1C383.9,5.1,383.9,5.1,383.9,5.1C383.9,5.1,383.9,5.1,383.9,5.1z M384.4,4.7
			L384.4,4.7L384.4,4.7z M384.4,4.7L384.4,4.7L384.4,4.7z"/>
	</g>
</g>
<path class="st0" d="M161,97.9c0.1,0,0.2,0,0.2,0l0.1-0.5L161,97.9z"/>
<path class="st0" d="M127.1,98.2c0.1,0,0.2-0.1,0.4-0.1l-0.2-0.7L127.1,98.2z"/>
<path class="st0" d="M474.8,98.1c0.1,0,0.2,0,0.4,0l-0.2-0.7L474.8,98.1z"/>
<path class="st0" d="M507.6,99.4c0.3,0.1,0.6,0.1,1,0.1l0.5-2.2L507.6,99.4z"/>
<path class="st0" d="M303.6,98.6c4.4,0,8.8-3,13.6-3c1.5,0,3.7,0.3,6.1,0.8l1.5-25h-6.7l-14-0.2c0,0-0.2,5.8,0,6.5
	c0.5,1.7,6.1,2.7,6.1,2.7l-3.4,14.3l-4.6,0.2v-1.7c0.5-0.2,0.9-0.7,0.9-1.2c0-0.7-0.7-1.3-1.7-1.3s-1.7,0.6-1.7,1.3
	c0,0.5,0.4,1,0.9,1.2V95l-6.4,0.3l0.1,1.3c0.7-0.2,1.4-0.3,2.4-0.3C301.4,96.2,299.2,98.6,303.6,98.6z"/>
<path class="st0" d="M48.4,96c0.9-0.1,1.7,0,2.5,0.1l1.5-6.9h-26l-1.7,7.9c1.2,0.4,2.8,1,6.1,1.4C38.2,99.6,44.3,96.4,48.4,96z"/>
<path class="st0" d="M17.4,96.3l3.1-14.6h33.4l2.2-10.4H19c-2,0-3.9,0.7-5.7,2.2c-1.8,1.4-2.9,3.2-3.3,5.2L5.8,98.5
	c0.4,0,0.7,0.1,1.1,0.1C11.7,98.6,14.5,97,17.4,96.3z"/>
<path class="st0" d="M78.8,96.8l7-11.5l2.4,13c0.3,0,0.5,0,0.7,0c1.3,0,6.2,0.6,7.5,0.6c0.4,0,2.2-0.3,4.4-0.8l-5-26.7H81.8
	L65.9,97.3c2.8-0.6,5.2-1.1,5.2-1.1C73.1,96.2,76.3,96.5,78.8,96.8z"/>
<path class="st0" d="M127.1,98.2l0.2-0.8l0.2,0.7c2.9-0.7,5.4-2.1,7.9-2.1c3.2,0,3.1,2.5,4.8,2.9l-7.3-27.5h-11.1l-5.4,25.3
	c2.2,0.8,5,1.6,7.4,1.7C124.9,98.6,126,98.4,127.1,98.2z"/>
<path class="st0" d="M158.3,97.4c0.6,0.1,1.5,0.3,2.7,0.5l0.4-0.5l-0.1,0.5c3.5,0.5,8.6,1.1,10.8,1.1c0,0,0.1,0,0.1,0l5.9-27.6H167
	l-18.4,26.3c0.5-0.1,1-0.2,1.4-0.3C151.9,96.9,156.1,96.8,158.3,97.4z"/>
<path class="st0" d="M193.6,96.2c3.6-0.1,6.6,0.8,9.3,1.1c2.6,0.3,13.7,0,13.7,0l3.4,0.4l1.8-8.6h-29.7l1.6-7.4h29.7l2.2-10.4h-33.4
	c-2,0-3.9,0.7-5.7,2.2c-1.8,1.4-2.9,3.2-3.3,5.2l-3.9,18.3c1.7,0.2,3.8,1.8,5.4,1.8C186.6,99,190.1,96.3,193.6,96.2z"/>
<path class="st0" d="M243.3,97.4c2.8-0.3,10.3,1.8,15.6,2.2c3,0.2,6.7-0.8,10.5-1.8l0.2-1.2c0-0.2,0.1-0.5,0.1-0.7s0-0.5,0-0.7
	c0-1.7-0.6-3.2-1.7-4.3c-1.1-1.1-2.6-1.7-4.3-1.7h-26l1.6-7.4h33.4l2.2-10.4h-37.1c-2,0-3.9,0.7-5.7,2.2c-1.8,1.4-2.9,3.2-3.3,5.2
	L226,92.2c-0.1,0.2-0.1,0.5-0.1,0.7c0,0.2,0,0.5,0,0.7c0,1.7,0.6,3.1,1.7,4.3c0.4,0.4,0.9,0.8,1.5,1.1l3.9,0.5
	C232.9,99.4,240.5,97.7,243.3,97.4z"/>
<path class="st0" d="M372.3,97.4l3.3-15.7h22.3l-3.2,15.1c8.2-0.1,9.5-0.7,11.3-0.8l3.7-17.2c0-0.2,0.1-0.5,0.1-0.7s0-0.5,0-0.7
	c0-1.7-0.6-3.2-1.7-4.3c-1.1-1.1-2.6-1.7-4.3-1.7h-29.7c-2,0-3.9,0.7-5.7,2.2c-1.8,1.4-2.9,3.2-3.3,5.2l-3.9,18.3
	c1.1,0.1,2.2,0.2,3.2,0.3C366.5,97.6,369.1,97.6,372.3,97.4z"/>
<path class="st0" d="M423.6,97.6l3.4-15.8h22.3l-3,14.4c1-0.3,1.9-0.4,2.6-0.4c1.9,0.1,5,0.5,8.4,0.8l3.8-17.8
	c0-0.2,0.1-0.5,0.1-0.7s0-0.5,0-0.7c0-1.7-0.6-3.2-1.7-4.3c-1.1-1.1-2.6-1.7-4.3-1.7h-29.7c-2,0-3.9,0.7-5.7,2.2
	c-1.8,1.4-2.9,3.2-3.3,5.2l-3.8,17.6c3.1,0.3,6.5,0.7,8.3,1C421.7,97.5,422.6,97.6,423.6,97.6z"/>
<path class="st0" d="M507.6,99.4l1.4-2.1l-0.5,2.2c0.1,0,0.1,0,0.2,0c3.5,0.3,8.3-1.7,11.6-2.9l5.4-25.3h-11.1l-18.1,25.8
	C500,97.2,503.7,98.8,507.6,99.4z"/>
<path class="st0" d="M474.8,98.1l0.1-0.7l0.2,0.7c2.8,0.2,5.5,0.4,7.6,0.4c1.8,0,3.4-0.1,4.9-0.3l-7.2-26.9h-11.1l-5.5,25.8
	c0.3,0,0.5,0,0.8,0C467.6,97.4,471.3,97.8,474.8,98.1z"/>
<path class="st0" d="M348.2,96.4c0.8,0,2.3,0.1,4.2,0.1c-0.1-0.2-0.2-0.3-0.4-0.5c-1.1-1.1-2.6-1.7-4.3-1.7c2,0,3.9-0.7,5.6-2.2
	c1.8-1.5,2.9-3.2,3.3-5.3l1.8-8.2c0-0.2,0.1-0.5,0.1-0.7s0-0.5,0-0.7c0-1.7-0.6-3.2-1.7-4.3c-1.1-1.1-2.6-1.7-4.3-1.7L328,71.5
	l-0.6,10.3h19.2l-1.6,7.4h-18.1l-0.5,7.8c4.8,1,9.3,2.2,9.3,2.2S346,96.4,348.2,96.4z"/>
<path class="st0" d="M317.3,95.6c-4.9,0-9.3,3-13.6,3s-2.2-2.3-6.6-2.3c-1,0-1.8,0.1-2.4,0.3l0,0.3l0.8,0.1l0.4,3.8l5.7,2.7l-2.5,20
	h22.9l1.6-27C321,95.9,318.7,95.6,317.3,95.6z"/>
<path class="st0" d="M48.4,96c-4,0.4-10.2,3.6-17.6,2.5c-3.2-0.4-4.9-1-6-1.4l-0.5,2.5H39L36.2,113H13.9l3.5-16.6
	c-2.9,0.7-5.8,2.2-10.5,2.2c-0.4,0-0.7,0-1.1-0.1l-3.7,17.4c0,0.2-0.1,0.5-0.1,0.7c0,0.2,0,0.5,0,0.7c0,1.7,0.6,3.1,1.7,4.3
	c1.1,1.2,2.6,1.7,4.3,1.7h37.1l5.8-27.2C50.1,96,49.2,95.9,48.4,96z"/>
<path class="st0" d="M100.9,98.2c-2.2,0.5-4,0.8-4.4,0.8c-1.3,0-6.2-0.6-7.5-0.6c-0.2,0-0.4,0-0.7,0l0.5,2.8H76.2l2.6-4.3
	c-2.6-0.3-5.7-0.6-7.8-0.6c0,0-2.4,0.6-5.2,1.1l-15.9,26h12.6l7.3-11.9h20.9l2.2,11.9h12.6L100.9,98.2z"/>
<g>
	<path class="st0" d="M123.7,98.5c-2.4-0.2-5.2-1-7.4-1.7l-5.7,26.6h11.1l5.5-26l-0.2,0.8C126,98.4,124.9,98.6,123.7,98.5z"/>
	<path class="st0" d="M172.1,99c-2.2,0-7.3-0.6-10.8-1.1l0.1-0.5l-5.5,26H167l5.2-24.3C172.2,99,172.1,99,172.1,99z"/>
	<path class="st0" d="M158.3,97.4c-2.2-0.6-6.4-0.5-8.4,0c-0.4,0.1-0.8,0.2-1.4,0.3l-6.3,9l-2.1-7.7c-1.6-0.4-1.6-2.9-4.8-2.9
		c-2.5,0-5,1.4-7.9,2.1l-0.2-0.7l7.1,26h8.9l18.1-26l-0.4,0.5C159.9,97.7,158.9,97.5,158.3,97.4z"/>
</g>
<path class="st0" d="M219.6,99.6l0.4-1.8l-3.4-0.4c0,0-11,0.3-13.7,0c-2.6-0.3-5.7-1.3-9.3-1.1c-3.6,0.1-7.1,2.8-8.8,2.8
	c-1.7,0-3.8-1.7-5.4-1.8l-4,18.8c-0.1,0.2-0.1,0.5-0.1,0.7c0,0.2,0,0.5,0,0.7c0,1.7,0.6,3.1,1.7,4.3c1.1,1.2,2.6,1.7,4.3,1.7h33.4
	l2.2-10.4h-29.7l2.8-13.4C189.9,99.6,219.6,99.6,219.6,99.6z"/>
<g>
	<path class="st0" d="M228.3,98.5c0.2,0.2,0.5,0.3,0.7,0.4C228.8,98.8,228.5,98.6,228.3,98.5z"/>
	<path class="st0" d="M258.9,99.6c-5.3-0.4-12.8-2.5-15.6-2.2c-2.8,0.3-10.4,2-10.4,2l-3.9-0.5c0.8,0.4,1.8,0.7,2.9,0.7h26L255,113
		h-33.4l-2.2,10.4h37.1c2,0,3.9-0.7,5.7-2.2c1.8-1.5,2.9-3.2,3.3-5.3l3.9-18.1C265.6,98.8,261.9,99.9,258.9,99.6z"/>
</g>
<path class="st0" d="M394.7,96.8l-3.4,16.1H369l3.3-15.5c-3.2,0.1-5.8,0.1-7.8-0.1c-1-0.1-2.1-0.2-3.2-0.3l-4,18.8
	c0,0.2-0.1,0.5-0.1,0.7c0,0.2,0,0.5,0,0.7c0,1.7,0.6,3.1,1.7,4.3c1.1,1.2,2.6,1.7,4.3,1.7h29.7c2,0,3.9-0.7,5.7-2.2
	c1.8-1.5,2.9-3.2,3.3-5.3L406,96C404.2,96.2,402.9,96.7,394.7,96.8z"/>
<path class="st0" d="M448.8,95.8c-0.7,0-1.6,0.1-2.6,0.4l-3.5,16.8h-22.3l3.2-15.3c-1-0.1-1.9-0.1-2.6-0.3c-1.8-0.3-5.1-0.7-8.3-1
	l-4.2,19.6c0,0.2-0.1,0.5-0.1,0.7c0,0.2,0,0.5,0,0.7c0,1.7,0.6,3.1,1.7,4.3c1.1,1.2,2.6,1.7,4.3,1.7h29.7c2,0,3.9-0.7,5.7-2.2
	c1.8-1.5,2.9-3.2,3.3-5.3l4.1-19.3C453.8,96.3,450.6,95.9,448.8,95.8z"/>
<g>
	<path class="st0" d="M464.7,97.2c-0.3,0-0.5,0-0.8,0l-5.6,26.1h11.1l5.3-25.3C471.3,97.8,467.6,97.4,464.7,97.2z"/>
	<path class="st0" d="M508.8,99.6c-0.1,0-0.1,0-0.2,0l0.5-2.2l-5.5,26h11.1l5.7-26.6C517.1,97.9,512.3,99.9,508.8,99.6z"/>
	<path class="st0" d="M496.5,97.2l-6.6,9.4l-2.2-8.4c-1.5,0.2-3.2,0.3-4.9,0.3c-2.1,0-4.8-0.2-7.6-0.4l-0.2-0.7l7.1,26h8.9l18.1-26
		l-1.4,2.1C503.7,98.8,500,97.2,496.5,97.2z"/>
</g>
<path class="st0" d="M352.4,96.6c-1.9-0.1-3.5-0.1-4.2-0.1c-2.2,0-12.4,2.8-12.4,2.8s-4.5-1.2-9.3-2.2l-0.1,2.6h16.5l-5,23.8h11.1
	l4.6-21.5c0-0.2,0.1-0.5,0.1-0.7s0-0.5,0-0.7c0-1.7-0.6-3.2-1.7-4.3C352.1,96.3,352.2,96.4,352.4,96.6z"/>
<g>
</g>
</svg>
