<?xml version="1.0" encoding="utf-8"?>
<!-- Generator: Adobe Illustrator 23.0.2, SVG Export Plug-In . SVG Version: 6.00 Build 0)  -->
<svg version="1.1" id="Layer_1" xmlns="http://www.w3.org/2000/svg" xmlns:xlink="http://www.w3.org/1999/xlink" x="0px" y="0px"
	 viewBox="0 0 113.8 113.8" style="enable-background:new 0 0 113.8 113.8;" xml:space="preserve">
<style type="text/css">
	.st0{fill:#FFFFFF;}
</style>
<g>
	<path class="st0" d="M38.1,54.7l5.6-0.3H65v5.7H38.1V54.7z M38.1,78.7c5.7-3.1,8.9-8.7,8.9-15c0-6.8-4.1-13.2-4.1-19.8
		c0-9.5,6.2-15.4,15.6-15.4c5.9,0,10,2.7,13,6.3l-4,3.9c-2.2-2.6-4.7-4.4-8.5-4.4c-6,0-9.3,4-9.3,9.8c0,6.5,3.5,12.1,3.5,19.7
		c0,5.9-1.8,9.4-5.2,12.9V77h23.6v5.9H38.1V78.7z"/>
</g>
<g>
	<path class="st0" d="M56.9,113.8C25.5,113.8,0,88.3,0,56.9S25.5,0,56.9,0s56.9,25.5,56.9,56.9S88.3,113.8,56.9,113.8z M56.9,6
		C28.8,6,6,28.8,6,56.9s22.8,50.9,50.9,50.9s50.9-22.8,50.9-50.9S85,6,56.9,6z"/>
</g>
<g>
	<path class="st0" d="M56.9,103.4c-25.7,0-46.5-20.9-46.5-46.5s20.9-46.5,46.5-46.5s46.5,20.9,46.5,46.5S82.6,103.4,56.9,103.4z
		 M56.9,14.4c-23.5,0-42.5,19.1-42.5,42.5s19.1,42.5,42.5,42.5s42.5-19.1,42.5-42.5S80.4,14.4,56.9,14.4z"/>
</g>
</svg>
