<?xml version="1.0" encoding="utf-8"?>
<!-- Generator: Adobe Illustrator 23.0.2, SVG Export Plug-In . SVG Version: 6.00 Build 0)  -->
<svg version="1.1" id="Layer_1" xmlns="http://www.w3.org/2000/svg" xmlns:xlink="http://www.w3.org/1999/xlink" x="0px" y="0px"
	 viewBox="0 0 88.1 124.6" style="enable-background:new 0 0 88.1 124.6;" xml:space="preserve">
<style type="text/css">
	.st0{fill:#FFFFFF;}
</style>
<g>
	<path class="st0" d="M44,37.3c-10.3,0-18.7-8.4-18.7-18.7S33.7,0,44,0s18.7,8.4,18.7,18.7S54.3,37.3,44,37.3z M44,6
		c-7,0-12.7,5.7-12.7,12.7S37,31.3,44,31.3c7,0,12.7-5.7,12.7-12.7S51,6,44,6z"/>
</g>
<g>
	<path class="st0" d="M56.5,83.8L53,110.7l0,0.4c0,4.1-3.2,7.5-7.1,7.5h-3.6c-3.9,0-7.1-3.3-7.1-7.5l-3.5-27.3
		c-2.2-0.2-4.3-0.9-6.2-1.9c0,0.2,0,0.3,0,0.5l3.7,28.9c0.1,7.3,6,13.3,13.1,13.3h3.6c7.2,0,13-5.9,13.1-13.3l3.7-28.5l0-0.4
		c0-0.2,0-0.3,0-0.5C60.8,83,58.7,83.6,56.5,83.8z"/>
</g>
<g>
	<path class="st0" d="M17.7,46.5c0-1,0.1-2.1,0.3-3.1H0v6h17.7V46.5z"/>
	<path class="st0" d="M70,43.4c0.2,1,0.3,2,0.3,3.1v2.9h17.7v-6H70z"/>
</g>
<g>
	<rect x="70.3" y="61.8" class="st0" width="17.7" height="6"/>
	<rect y="61.8" class="st0" width="17.7" height="6"/>
</g>
<g>
	<path class="st0" d="M55.1,83.9H32.9c-8.4,0-15.2-6.8-15.2-15.2V46.5c0-8.4,6.8-15.2,15.2-15.2h22.2c8.4,0,15.2,6.8,15.2,15.2v22.2
		C70.3,77.1,63.5,83.9,55.1,83.9z M32.9,37.3c-5.1,0-9.2,4.1-9.2,9.2v22.2c0,5.1,4.1,9.2,9.2,9.2h22.2c5.1,0,9.2-4.1,9.2-9.2V46.5
		c0-5.1-4.1-9.2-9.2-9.2H32.9z"/>
</g>
</svg>
